<svg xmlns="http://www.w3.org/2000/svg" width="261.752" height="263.325" viewBox="0 0 261.752 263.325"><defs><clipPath id="a" clipPathUnits="userSpaceOnUse"><path d="M-1282.466 173.512H463.186v-350.253h-1745.652Z"/></clipPath><clipPath id="b" clipPathUnits="userSpaceOnUse"><path d="M-1249.305 234.486H496.347v-350.252h-1745.652Z"/></clipPath><clipPath id="c" clipPathUnits="userSpaceOnUse"><path d="M-1236.827 172.828H508.825v-350.253h-1745.652Z"/></clipPath><clipPath id="d" clipPathUnits="userSpaceOnUse"><path d="M-1206.293 166.39H539.36v-350.253h-1745.652Z"/></clipPath><clipPath id="e" clipPathUnits="userSpaceOnUse"><path d="M-1147.915 155.682H597.737v-350.253h-1745.653Z"/></clipPath><clipPath id="f" clipPathUnits="userSpaceOnUse"><path d="M-1127.356 125.648H618.296v-350.253h-1745.652Z"/></clipPath><clipPath id="g" clipPathUnits="userSpaceOnUse"><path d="M-1165.651 110.125H580.001v-350.253h-1745.652Z"/></clipPath><clipPath id="h" clipPathUnits="userSpaceOnUse"><path d="M-1135.284 131.575H610.368v-350.253h-1745.652Z"/></clipPath><clipPath id="i" clipPathUnits="userSpaceOnUse"><path d="M-1168.237 145.419H577.415v-350.253h-1745.652Z"/></clipPath><clipPath id="j" clipPathUnits="userSpaceOnUse"><path d="M-1223.736 134.818H521.916v-350.253h-1745.652Z"/></clipPath><clipPath id="k" clipPathUnits="userSpaceOnUse"><path d="M-1192.242 122.108H553.41v-350.253h-1745.652Z"/></clipPath><clipPath id="l" clipPathUnits="userSpaceOnUse"><path d="M-1112.272 135.138H633.38v-350.253h-1745.652Z"/></clipPath><clipPath id="m" clipPathUnits="userSpaceOnUse"><path d="M-1120.052 151.328H625.6v-350.253h-1745.652Z"/></clipPath><clipPath id="n" clipPathUnits="userSpaceOnUse"><path d="M-1097.184 157.23H648.468v-350.253h-1745.652Z"/></clipPath><clipPath id="o" clipPathUnits="userSpaceOnUse"><path d="M-1109.242 139.383H636.41V-210.87h-1745.652Z"/></clipPath><clipPath id="p" clipPathUnits="userSpaceOnUse"><path d="M-1138.079 214.736H607.573v-350.253h-1745.652Z"/></clipPath><clipPath id="q" clipPathUnits="userSpaceOnUse"><path d="M-1207.22 239.858H538.432v-350.253H-1207.22Z"/></clipPath><clipPath id="r" clipPathUnits="userSpaceOnUse"><path d="M-1257 237.039H488.654v-350.253H-1257Z"/></clipPath><clipPath id="s" clipPathUnits="userSpaceOnUse"><path d="M-1226.43 192.382H519.224v-350.253H-1226.43Z"/></clipPath><clipPath id="t" clipPathUnits="userSpaceOnUse"><path d="M-1282.347 169.213H463.305V-181.04h-1745.652Z"/></clipPath><clipPath id="u" clipPathUnits="userSpaceOnUse"><path d="M-1210.964 102.799H534.688v-350.253h-1745.652Z"/></clipPath><clipPath id="v" clipPathUnits="userSpaceOnUse"><path d="M-1148.124 86.44H597.528v-350.253h-1745.652Z"/></clipPath><clipPath id="w" clipPathUnits="userSpaceOnUse"><path d="M-1182.853 170.893H562.8V-179.36h-1745.652Z"/></clipPath><clipPath id="x" clipPathUnits="userSpaceOnUse"><path d="M-1182.297 161.42H563.355v-350.253h-1745.652Z"/></clipPath><clipPath id="y" clipPathUnits="userSpaceOnUse"><path d="M-1168.243 145.421H577.409v-350.253h-1745.653Z"/></clipPath><clipPath id="z" clipPathUnits="userSpaceOnUse"><path d="M-1200.816 175.864H544.836V-174.39h-1745.652Z"/></clipPath><clipPath id="A" clipPathUnits="userSpaceOnUse"><path d="M-1200.616 179.733H545.036V-170.52h-1745.652Z"/></clipPath><clipPath id="B" clipPathUnits="userSpaceOnUse"><path d="M-1203.98 188.943H541.672V-161.31H-1203.98Z"/></clipPath><clipPath id="C" clipPathUnits="userSpaceOnUse"><path d="M-1202.623 194.394H543.03V-155.86h-1745.652Z"/></clipPath><clipPath id="D" clipPathUnits="userSpaceOnUse"><path d="M-1178.984 176.148H566.668v-350.253h-1745.652Z"/></clipPath><clipPath id="E" clipPathUnits="userSpaceOnUse"><path d="M-1184.925 175.574H560.727v-350.253h-1745.652Z"/></clipPath><clipPath id="F" clipPathUnits="userSpaceOnUse"><path d="M-1183.219 179.048H562.433v-350.253h-1745.652Z"/></clipPath><clipPath id="G" clipPathUnits="userSpaceOnUse"><path d="M-1213.357 180.329H532.295v-350.253h-1745.652Z"/></clipPath><clipPath id="H" clipPathUnits="userSpaceOnUse"><path d="M-1218.988 177.811H526.664v-350.253h-1745.652Z"/></clipPath><clipPath id="I" clipPathUnits="userSpaceOnUse"><path d="M-1217.108 183.57H528.544v-350.254h-1745.652Z"/></clipPath><clipPath id="J" clipPathUnits="userSpaceOnUse"><path d="M-1111.304 165.534H634.348v-350.253h-1745.652Z"/></clipPath><clipPath id="K" clipPathUnits="userSpaceOnUse"><path d="M-1246.024 243.822H499.628v-350.253h-1745.652Z"/></clipPath></defs><path d="M0 0c-.049-.282-.111-.558-.166-.837l-.051-.254a24 24 0 0 0-.17-.765 20 20 0 0 0-.317-1.179c-.034-.111-.074-.219-.11-.329-.061-.185-.118-.372-.186-.556a9 9 0 0 0-.288-.713l-.029-.065q-.273-.601-.611-1.184c-.043-.075-.073-.155-.118-.229-.298-.495-.608-.983-.914-1.473q-.153-.25-.308-.497-.313-.49-.634-.974c-.168-.256-.329-.516-.501-.769q-.394-.572-.802-1.129l-.041-.06c-1.442-1.981-2.986-3.897-4.53-5.804a28 28 0 0 1-1.267-1.697c-.189-.274-.383-.546-.554-.828a13 13 0 0 1-1.012-2.101c-.091-.241-.199-.472-.274-.723-.567-1.906-.679-3.822-.548-5.794.204-2.949.446-5.898.39-8.846-.046-3.088-.781-6.074-2.13-8.902-.166-.35-.353-.674-.544-.989-.034-.057-.063-.121-.097-.177a10 10 0 0 0-.713-.976c-.065-.079-.137-.149-.205-.225a9 9 0 0 0-.594-.62c-.091-.085-.186-.162-.28-.242a9 9 0 0 0-.61-.485q-.155-.11-.315-.214a9.5 9.5 0 0 0-1.746-.899c-.106-.042-.209-.086-.317-.125a11 11 0 0 0-.893-.274c-.082-.022-.161-.049-.244-.069q-.593-.148-1.221-.241c-.253-.037-.507-.041-.76-.065-2.196-.216-4.401.014-6.501.764a23 23 0 0 0-3.588 1.681l.004-.018c-2.679 1.196-5.735 3.924-6.667 4.788-.076.428-.141.845-.18 1.23 0 0-.196 1.752-.728 4.454-1.522 8.541-5.359 17.668-6.771 20.846.314.518.443 1.112.488 1.585l.001.002c1.189.305 2.162.847 2.952 1.594.812.767 1.434 1.746 1.924 2.88.122.278.222.567.322.845a14 14 0 0 1 .351 1.327q.138.651.228 1.308a39 39 0 0 1 .143 1.065l.163 1.431.029.289q.059.623.11 1.247.043.552.071 1.105l.019.36q.035.833.031 1.668l.001.052c-.012 1.245.011 2.491-.012 3.736 0 .296-.012.596-.021.896a45 45 0 0 1-.026.728 26 26 0 0 1-.153 1.966c-.02.175-.03.35-.055.524-.078.601-.156 1.19-.234 1.802-.078.6-.167 1.223-.244 1.857l.001.001v.002c.542.419 1.064.836 1.582 1.245l.119.093c.536.421 1.067.832 1.61 1.22 2.065 1.47 4.428 2.046 6.93 2.176l1.551.074c1.31.062 2.62.128 3.918.248 2.733.234 5.287.993 7.629 2.323a18 18 0 0 1 1.635 1.039c.372.262.74.541 1.124.831l.32.244q.16-.032.333-.059c.162-.026.325-.055.484-.105a46 46 0 0 0 1.842-.536c.815-.254 1.619-.54 2.401-.902.515-.237.997-.513 1.466-.803 1.66-1.021 3.056-2.348 4.253-3.907a29 29 0 0 0 4.26-7.869c.02-.058.032-.118.052-.176q.188-.547.324-1.102.054-.22.1-.441c.023-.112.055-.223.075-.335.038-.211.063-.423.091-.634A11.1 11.1 0 0 0 0 0m-25.53-64.387c0-.056 0-.1-.011-.134l-.004-.015a6 6 0 0 0-.211-.872c-.184-.551-.367-1.103-.56-1.649-.078-.219-.163-.432-.246-.647-.067-.174-.125-.352-.198-.523-.018-.041-.043-.077-.061-.118-.039-.086-.076-.173-.121-.256-.023-.044-.051-.08-.074-.122a6 6 0 0 0-.279-.458c-.029-.042-.05-.091-.081-.132-.078-.122-.166-.222-.255-.334-.089-.111-.19-.211-.29-.311-.058-.058-.123-.11-.184-.167q-.096-.09-.196-.177a5 5 0 0 0-.631-.468l-.001.001c-.483-.269-1.277-.44-1.277-.44l-.828 2.011q-.035.114-.067.227l2.077.731v-.003l.044.019-4.894 12.42-.009-.002.022-.049-2.609-.652-2.315 6.229q-.18.54-.356 1.093l3.278-2.28a28 28 0 0 1 3.614-1.727c.612-.238 1.23-.46 1.864-.643.496-.138 1.003-.26 1.519-.382l.965-.225c1.042-1.553 1.6-3.19 1.879-4.93.14-.865.307-1.72.437-2.586.028-.174.044-.349.063-.523l.029-.216.002-.039c.014-.157.015-.314.02-.471.003-.089.012-.18.012-.268l-.004-.052a7 7 0 0 0-.061-.84zm-6.464-.957c-1.29 1.623-2.713 5.048-3.569 7.539.356.2.667.378 1.034.589.156-.267 1.023-2.735 1.368-3.758.422-1.29.878-2.58 1.334-3.881.1-.289.2-.589.345-1.034a5 5 0 0 0-.512.545m-2.917-7.121-.002.002c-.056-.021-.112-.047-.169-.064-1.289-.344-2.579-.656-3.858-1-2.49-.665-4.829-1.606-6.999-2.864a24.5 24.5 0 0 1-4.429-3.267 53 53 0 0 0-2.805-2.434 36 36 0 0 0-3.569-2.566 30 30 0 0 0-2.106-1.177c-.317-.165-.632-.333-.951-.492a10 10 0 0 0-4.084-1.014c-1.075-.038-2.14-.026-3.187.104-.999.123-1.982.354-2.938.755-.845.356-1.623.846-2.424 1.279-.256.145-.467.345-.667.489h-.011c.178.467.278.79.411 1.079.03.062.055.127.084.189q.457.981.828 1.986l.045.116c.278.767.522 1.545.733 2.346.423 1.579.723 3.191.935 4.826.159 1.215.294 2.432.418 3.655.045.463.091.925.127 1.389l.033.404c.089 1.323.066 2.669.022 3.992-.067 2.124-.133 4.248-.334 6.36a62 62 0 0 1-.322 2.825c-.133.934-.3 1.868-.478 2.791-.031.153-.07.304-.103.457q-.2.96-.442 1.911c-.082.319-.171.635-.259.952-.182.651-.37 1.299-.583 1.942l-.07.22-.062.178a40 40 0 0 1-.649 1.749c-.089.223-.176.447-.269.669q-.365.873-.771 1.727c-.044.092-.083.187-.128.28a41 41 0 0 1-1.168 2.202 32 32 0 0 1-1.323 2.124c-.111.166-.189.344-.322.589l.001.001.082.04q.205.1.382.18c.085.039.169.078.252.106 1.231.397 2.385.929 3.502 1.528.415.223.827.453 1.23.699q1.103.678 2.151 1.459c.366.272.737.535 1.095.824.84.679 1.649 1.388 2.434 2.115a47 47 0 0 1 3.026 3.1c.309.35.606.708.902 1.065q.33.4.651.806c.275.348.551.695.815 1.053a48 48 0 0 1 2.135 3.125c.006.01.016.02.022.03.191.296.416.569.668.92.326-.419.326-.837.381-1.228.107-.733.245-1.452.393-2.166.042-.201.081-.402.126-.601a35 35 0 0 1 1.292-4.393q.122-.326.25-.647.294-.754.624-1.492.147-.335.301-.667a34 34 0 0 1 1.095-2.13 34 34 0 0 1 1.076-1.785c.129-.202.265-.401.399-.601q.462-.687.958-1.358.209-.284.423-.567c.468-.608.95-1.209 1.463-1.796 1.479-1.684 3.06-3.283 4.613-4.911.316-.331.822-.668 1.107-1.082.481-2.242.983-4.264 1.443-5.524l1.95-5.815a1.6 1.6 0 0 1-.257-.084c-.426-.169-1.044-.375-1.637-.577l4.959-12.19.012.003-.004.006 1.673.435s.259-.938.77-2.28zm-40.31 3.327c-.112-3.163-.335-6.335-1.21-9.385-.679-2.391-1.553-4.735-2.465-7.06-.604-1.544-1.553-2.912-2.79-4.084-1.739-1.655-3.832-2.325-6.148-2.279-.728.014-1.449.066-2.165.143-2.667.281-5.239 1.008-7.685 2.252-1.714.883-3.361 1.874-4.971 2.924a85 85 0 0 0-3.568 2.458c-1.442 1.06-2.884 2.12-4.363 3.115l-.051.033c-.528.354-1.065.699-1.614 1.022-.556.345-1.112.667-1.679.979l-.217.114q-.678.367-1.368.706l-.358.171q-.68.326-1.372.623l-.276.118a35 35 0 0 1-3.416 1.227q-.176.052-.353.101-.69.2-1.393.37-.218.054-.438.105-.863.2-1.745.353l-.016.003-.1.015c-2.051.353-4.129.585-6.197.851-1.031.128-2.064.242-3.092.387a25 25 0 0 0-2.67.517c-.369.092-.739.177-1.103.296l-.524.179c-.296.099-.59.197-.892.302-.122.045-.227.105-.346.153-.411.164-.815.335-1.194.53-.182.093-.346.202-.52.302-.302.173-.601.347-.88.541-.174.12-.335.253-.5.381-.249.193-.495.389-.724.6-.17.155-.33.32-.49.485q-.282.29-.542.598c-.084.1-.183.188-.264.29-.094.123-.168.256-.258.381q-.16.225-.311.458c-.081.126-.178.243-.253.374-.082.135-.144.285-.221.424q-.122.225-.236.456-.224.455-.416.938-.097.243-.186.493c-.056.158-.124.305-.176.468-.077.245-.155.501-.222.768-.778 2.924-.712 5.86.156 8.751.082.276.173.547.256.822q.268.895.555 1.783c.065.202.122.406.189.608.072.219.155.432.229.648q.13.38.267.757c.085.235.16.473.249.708.116.309.243.616.365.925l.069.174c.273.675.557 1.347.867 2.003.067.134.134.267.212.389.077.134.155.245.233.367.078.111.178.223.278.323.079.098.178.179.276.266.013.011.02.025.034.036.827.697 1.627 1.423 2.437 2.148a32 32 0 0 1 1.701 1.666 40 40 0 0 1 2.295 2.685 49 49 0 0 1 1.797 2.472 138 138 0 0 0 2.335 3.314c.801 1.101 1.601 2.191 2.391 3.28a8 8 0 0 0 .671.793l.049.051c.111.116.221.235.336.346l.285.261.101.099c.362.319.729.63 1.093.947q1.349 1.175 2.701 2.342l.82.71c.064.057.135.105.21.155.111.075.234.154.394.267.057-.065.111-.116.163-.171.231-.237.428-.439.6-.641a45 45 0 0 1 1.675-1.763q.2-.198.403-.393.602-.584 1.224-1.142.3-.276.603-.544a41 41 0 0 1 3.429-2.659 40 40 0 0 1 2.656-1.704c.101-.061.204-.116.306-.175a41 41 0 0 1 1.941-1.049l.021-.011h.011a39 39 0 0 1 1.962-.907c.195-.084.386-.172.583-.254a43 43 0 0 1 2.292-.874c2.513-.867 4.982-1.89 7.606-2.379a86 86 0 0 1 6.038-.912c1.401-.178 2.824-.233 4.236-.289a21.4 21.4 0 0 1 6.283.712c.155.044.311.077.478.1.178.033.356.055.545.089l.001-.004.001.001c.14-.344.279-.642.372-.949.754-2.465 1.498-4.93 2.261-7.395.855-2.753 1.274-5.59 1.73-8.418.362-2.306.521-4.623.548-6.957.016-1.271.087-2.542.134-3.812l.008-.284c.028-.837.045-1.674.017-2.508m-73.646 24.143c-1.643-1.282-3.372-2.419-5.302-3.15a13 13 0 0 0-1.585-.502 14.4 14.4 0 0 0-2.717-.403 11.3 11.3 0 0 0-4.442.653c-.066.024-.133.041-.199.066a7.2 7.2 0 0 0-2.01 1.14c-.043.035-.093.058-.135.095l-.003.002a17.6 17.6 0 0 0-2.501 2.614q-.425.554-.797 1.155c-.059.095-.133.179-.191.276-.411.712-.8 1.435-1.134 2.168a28 28 0 0 0-.9 2.235 22.5 22.5 0 0 0-1.079 4.737 12 12 0 0 0-.078 1.991c.111 1.823.245 3.647.423 5.459.093.949.165 1.888.229 2.835a70 70 0 0 1 .119 3.403l.005.305c.002.933-.015 1.866-.064 2.798-.004.067-.012.14-.018.21q-.034.42-.096.841c-.042.299-.085.601-.131.895-.044.222-.067.444-.1.656-.011.144-.011.278-.022.422-.011.134-.011.278-.022.423q.188.03.347.004c.337-.045.593-.243.847-.406 3.247-2.112 6.707-3.842 10.111-5.665 1.114-.594 2.241-1.161 3.367-1.731a219 219 0 0 1 14.827-6.798c.525-.218 1.045-.446 1.572-.661 1.131-.458 2.278-.884 3.421-1.318q.446-.168.89-.338l.064-.029c.165-.07.333-.151.555-.249-.177-.289-.298-.54-.465-.763-.847-1.126-1.74-2.233-2.558-3.377a30 30 0 0 0-1.577-2.005l-.277-.314a36 36 0 0 0-1.43-1.55c-.055-.057-.105-.119-.161-.175-.132-.135-.271-.264-.405-.398-.166-.163-.33-.329-.499-.49a49 49 0 0 0-1.398-1.291c-1.456-1.29-2.946-2.569-4.481-3.77m-25.624 55.17-.331.224.002.003h-.011c.189.212.356.412.523.601s.311.367.456.545c.144.166.289.333.433.489s.278.3.434.445c2.454 2.337 4.928 4.643 7.403 6.95q.208.194.415.39l.041.034q.179.159.397.324c.061.047.119.09.185.144.091-.074.181-.138.271-.204.148-.108.292-.215.417-.333.461-.459.944-.89 1.427-1.32 2.004-1.777 4.181-3.328 6.489-4.691.279-.165.569-.311.853-.467.92-.501 1.858-.973 2.817-1.372 2.029-.834 4.041-1.71 6.172-2.253.37-.095.736-.201 1.115-.271.149-.028.288-.139.493-.242.456-3.766.907-7.552 1.36-11.382.146-.788.338-1.786.457-2.225.374-1.38 1.893-4.989 2.108-5.497.445-.76.89-1.517 1.344-2.271.5-.811 1.201-1.378 2.046-1.779 2.057-.967 4.213-1.489 6.492-1.501.266-.005.534.022.81.01.278-.012.563-.064.86-.232-.134-.167-.223-.334-.334-.356-.567-.111-1.145-.267-1.724-.267h-.005c-2.179 0-4.281.345-6.293 1.234-1.224.545-2.202 1.335-2.825 2.525-.622 1.223-1.256 2.435-1.879 3.658-.145.289-.222.6-.345.989l.005.001-1.579 3.928-.009.002c-.318.097-.636.197-.944.311-.423.148-.841.307-1.247.491-2.184.975-4.349 1.981-6.527 2.96-.355.159-.708.323-1.063.48l-1.396.613c-3.527 1.556-7.059 3.099-10.584 4.643-1.591.698-3.228 1.312-4.772 2.112-.214.112-.421.237-.628.36-1.003.59-1.946 1.288-2.924 1.924-.125.086-.258.174-.405.273m-1.232 21.745-.565-.517a126 126 0 0 1-1.876-1.767l-1.307-1.267-.791-.775c-1.109-1.094-2.207-2.188-3.32-3.281a.3.3 0 0 0-.124-.03c-.032-.004-.058-.006-.111-.015h-.01a1.3 1.3 0 0 0-.111.523c0 .029.008.058.01.088q.005.087.018.173c.007.048.01.096.019.144q.023.121.049.24l.015.078.03.139c.344 1.779.853 3.495 1.577 5.125l.028.073a20 20 0 0 0 1.624 2.947 35 35 0 0 0 1.927 2.632c.076.095.157.187.234.281q.338.408.69.8.325.359.664.704.076.083.154.164c.098.104.206.204.312.306.097.095.187.196.286.288.271.255.556.49.848.719q.296.236.6.466c.267.189.545.334.945.556l.001-.004.006.003c.05-.202.101-.37.142-.532q.043-.161.062-.312c.023-.336.037-.668.053-1.001q.015-.304.034-.61c.01-.213.031-.425.048-.638q.025-.324.065-.648.057-.41.145-.814c.018-.082.026-.164.046-.245q.063-.266.13-.525c.038-.154.074-.297.112-.443l.102-.399-.001-.003c-.055-.123-.055-.167-.078-.189h-.003l-.002-.003c-.018-.026-.039-.046-.057-.072a1.3 1.3 0 0 0-.121-.15c-.019-.021-.032-.05-.054-.067a80 80 0 0 1-2.445-2.142m-9.666-17.159a11.8 11.8 0 0 1-.489-3.792c.022-.622.066-1.245.111-1.868a6 6 0 0 0-.011-.867c-.059-.435-.376-.756-.771-.813a.9.9 0 0 0-.413.035c-.334.1-.679.311-.934.556a2.5 2.5 0 0 0-.767 1.656c-.034.49-.056 1.001.044 1.479.378 1.835 1.279 3.403 2.591 4.726.189.178.478.267.745.412l.001-.003.004.003c.312-.601.022-1.079-.111-1.524m17.775 32.958c.433.634.878 1.268 1.345 1.879a39.3 39.3 0 0 0 4.615 5.149c.433.4.845.8 1.245 1.223.144.152.278.31.419.463a26 26 0 0 1 1.835 2.206c.342.464.662.938.971 1.434l.063.107a21 21 0 0 1 1.02 1.845c.296.608.554 1.228.787 1.858l.067.171q.333.932.579 1.894.039.155.075.308.22.904.367 1.833c.006.041.016.082.022.123.389 2.591 1.201 5.004 2.557 7.25.2.323.401.634.623.934a15 15 0 0 0 1.434 1.724c.256.267.534.534.812.789q.32.282.661.537c.561.429 1.159.799 1.799 1.102q.4.192.82.352c3.636 1.356 7.384 1.868 11.264 1.579a21 21 0 0 0 2.548-.367c3.592-.717 6.775-2.342 9.594-4.844 2.846-2.521 5.33-5.377 7.6-8.418l.451-.609c.084-.114.172-.228.256-.34q.162-.224.325-.444.192-.256.381-.514.128-.17.251-.352l.066-.091c.012-.021.02-.047.032-.069q.086-.148.15-.315l.025-.063c.053-.156.094-.321.1-.515-.865-.139-1.731-.204-2.549-.418-.535-.138-1.069-.346-1.616-.563-.299-.12-.594-.241-.912-.359h-.011a1 1 0 0 1-.066.113.8.8 0 0 0-.111.195l-.001.004q-.181.637-.495 1.124c-.628.98-1.632 1.539-2.825 1.895-1.682.49-3.345.472-5.004.087a13 13 0 0 1-.883-.238c-1.468-.455-2.858-1.067-4.159-1.89a388 388 0 0 0-5.382-3.325 39 39 0 0 0-2.724-1.501c-1.153-.574-2.306-1.123-3.455-1.688-1.455-.717-2.906-1.445-4.372-2.142a30 30 0 0 1-1.902-.982c-.49-.277-.974-.563-1.435-.892a10 10 0 0 1-1.168-.945c-.061-.058-.109-.123-.168-.182-.999-.988-1.79-2.149-2.396-3.454-.195-.409-.391-.819-.642-1.339-.2.043-.359.074-.505.105q-.157.032-.303.066c-.043.013-.083.017-.126.029a4.5 4.5 0 0 1-.621.115q-.132.015-.262.022c-.221.01-.436.007-.641-.02-.065-.008-.125-.025-.189-.036a4 4 0 0 1-.487-.126q-.087-.027-.17-.058a3.6 3.6 0 0 1-.553-.28q-.048-.031-.095-.065a4 4 0 0 1-.473-.372l-.036-.032a4 4 0 0 1-.446-.506l-.049-.076a4 4 0 0 1-.285-.459q-.047-.095-.091-.19a4 4 0 0 1-.202-.489c-.177-.549-.233-1.135-.326-1.702-.065-.41-.093-.819-.13-1.265-.24-.163-.469-.336-.695-.511l-.023-.017-.139-.107c-.544-.425-1.085-.834-1.699-1.148-.116-.06-.224-.129-.346-.18-.054-.022-.101-.062-.153-.09a4 4 0 0 1-.614-.421l-.154-.122q-.624-.484-1.246-.969c-1.093-.853-2.185-1.709-3.281-2.556a5 5 0 0 0-.511-.353c-.119-.077-.24-.154-.385-.251l-.001.006-.004-.002c-.044.2-.089.367-.122.511s-.067.278-.078.412c-.014.159-.013.315-.022.473-.171 2.848.405 5.504 1.745 7.962.254.467.526.93.835 1.383m33.158 39.018c.033.123.055.234.111.334.523 1.045 1.157 2.024 2.002 2.847l.201.202c.541.534 1.076 1.079 1.611 1.623q.277.285.556.565c3.08 3.036 6.816 4.848 10.986 5.827q.751.175 1.507.296c1.123.181 2.254.256 3.392.241.39-.004.781-.009 1.172-.037 1.624-.122 3.203-.411 4.737-1.012q1.028-.428 2.055-.866c.193-.083.389-.158.582-.244 2.262-1.018 4.625-1.553 7.061-1.793a31 31 0 0 1 1.655-.121c1.471-.063 2.944-.122 4.416-.208a70 70 0 0 0 3.424-.269c.08-.008.156-.026.235-.035q.742-.084 1.459-.219c.194-.037.381-.087.572-.13.363-.081.723-.165 1.076-.266.203-.059.401-.127.601-.192q.497-.16.981-.348.295-.118.585-.245a18 18 0 0 0 1.487-.732q.448-.252.882-.53c.178-.114.359-.224.533-.344.277-.191.546-.398.814-.606.177-.138.359-.268.533-.414.208-.175.407-.367.61-.553.27-.245.539-.492.798-.756.148-.149.295-.295.442-.458.21-.22.408-.452.607-.684l.007-.008c.333-.398.63-.814.907-1.239l.071-.106q.405-.639.736-1.314l.044-.089q.337-.696.603-1.423l.003-.009q.429-1.183.697-2.434c.117-.553.211-1.109.29-1.665.011-.072.028-.142.038-.214.022-.178.036-.357.052-.536a14 14 0 0 0 .049-1.941 11 11 0 0 0-.065-.754c-.013-.114-.012-.226-.029-.34-.028-.192-.072-.378-.107-.567-.022-.117-.041-.235-.066-.351-.039-.182-.086-.361-.133-.54q-.063-.241-.137-.479c-.049-.156-.097-.312-.153-.466a11 11 0 0 0-.269-.665 9.4 9.4 0 0 0-.652-1.248c-.651-1.014-1.395-1.963-2.13-2.921-.296-.389-.607-.77-.917-1.152l-.091-.115q-.095-.122-.191-.242c-.275-.34-.55-.68-.81-1.03a11.6 11.6 0 0 1-1.791-3.562q-.038-.133-.074-.267a12 12 0 0 1-.274-1.166c-.047-.279-.13-.558-.233-.986l-.292.054c-.604.107-1.143.199-1.65.305-2.635.551-5.291.892-7.981.876l-.067.002-.223-.005c-1.694-.026-3.388-.08-5.082-.132q-1.086-.038-2.173-.068c-.258-.006-.52-.05-.783-.021a1 1 0 0 0-.459.148h-.011c0 .111 0 .212.022.312 0 .023.009.046.012.07q.007.053.017.106l.004.024c.012.078.034.167.067.244l.019.063.014.043c.004.014.006.024.012.039.021.063.051.122.076.184q.063.155.129.307.055.128.106.254c.133.311.267.612.411.912.096.198.206.387.305.583q.168.333.346.663c.093.172.174.351.272.522.083.147.179.285.264.431q.317.54.655 1.068c.195.308.388.617.593.919.298.439.611.87.928 1.299.105.142.2.29.307.43.053.076.106.145.16.218.112.153.217.3.325.45.096.137.196.274.282.411-.12.2-.212.339-.303.439-.034.038-.07.083-.103.108a.34.34 0 0 1-.158.06c-.015.002-.028.015-.044.015-.021 0-.046-.014-.068-.017-.051-.008-.101-.015-.16-.043a4.3 4.3 0 0 1-.729-.428c-.106-.076-.216-.15-.314-.234-1.63-1.462-3.051-3.065-4.183-4.865a17.7 17.7 0 0 1-1.955-4.221c-.006-.021-.017-.045-.023-.066a9 9 0 0 0-.142-.401c-.034-.09-.061-.169-.095-.267-1.042-.345-2.13-.317-3.079-.559-.372.279-.632.475-.912.689l-.002.005h-.006c-.044.089-.111.189-.167.3-.011.033-.011.089-.022.122-.111.231-.216.468-.325.701q-.163.348-.323.698c-.342.75-.682 1.502-1.031 2.248a60 60 0 0 1-1.156 2.413 37 37 0 0 1-.905 1.654l-.118.202q-.45.762-.949 1.497l-.074.112c-.391.56-.796 1.108-1.199 1.657q-.457.618-.922 1.225-.38.493-.769.978a59 59 0 0 1-1.511 1.804c-.214.245-.423.495-.642.737a46 46 0 0 1-2.307 2.388c-.478.456-.979.89-1.49 1.323-.472.409-.957.788-1.45 1.151-2.951 2.165-6.287 3.505-9.96 4.094-.256.04-.516.094-.775.145-.109.02-.213.042-.325.059q-.22.03-.455.057c-.186.022-.381.044-.603.074l.001.002h-.01c.044.134.066.267.1.389m86.815-99.775c-.089-.222-.223-.444-.345-.689-.626-.192-1.246-.371-1.921-.364a3.6 3.6 0 0 0-.697.075c.033.3.022.545.1.756 1.69 4.036 2.113 8.262 1.968 12.576a77.6 77.6 0 0 1-1.523 12.599c-.423 2.079-.968 4.125-1.824 6.071-.044.111-.067.233-.122.467.462.128.897.183 1.32.186s.836-.047 1.254-.131c.556-.645.9-1.401 1.167-2.179.412-1.212.812-2.446 1.09-3.703.467-2.179.934-4.381 1.234-6.594.234-1.768.289-3.569.3-5.348.011-2.824-.155-5.638-.578-8.44a25 25 0 0 0-1.423-5.282m-8.408-5.182c.005.026 0 .053.007.079l.008.018c.013.045.038.089.056.134.025.065.044.13.081.192.167.278.311.59.522 1.012h2.357l.002-.004c.263-.589.838-1.524 1.918-1.833 1.171-2.188 3.116-6.016 4.478-9.709a40 40 0 0 0 1.392-4.98c.011-.074.031-.155.041-.229 0 0 .484-3.137 1.164-6.891l-1.015 1.022-.019.017-.001.001h-.009a45 45 0 0 0-2.513 2.903q-.553.703-1.077 1.422l-.119.162q-.535.737-1.039 1.496a39 39 0 0 0-1.935 3.28 50 50 0 0 0-.845 1.723c-.267.59-.522 1.179-.767 1.78-.978 2.468-1.812 4.992-2.624 7.505-.028.086-.034.167-.051.25a2 2 0 0 0-.027.129q-.015.112-.015.222-.002.15.03.299M-76.808 4.665c.367-1.835.745-3.67 1.735-5.304.033-.056 0-.156 0-.267a.25.25 0 0 0-.159-.028c-.132.024-.185.194-.269.295-.567.611-1.089 1.256-1.679 1.834-.789.768-1.768 1.224-2.857 1.424-.201.044-.401.078-.601.111-.389.889-.534 1.79-.667 2.691-.289 2.057-.389 4.136-.545 6.204-.256 3.447-.2 6.894-.145 10.342 0 .455.067.9.089 1.312.765.271 1.857.412 2.85.408.597-.002 1.158-.055 1.592-.164-.734-3.38-.978-6.794-.166-10.263 1.523-.979 3.191-1.746 4.681-2.847-.211-.7-.612-1.167-1.09-1.567-.7-.601-1.39-1.19-2.135-1.724-.533-.378-.767-.856-.745-1.479a6 6 0 0 1 .111-.978m18.15 32.919c-.003-.091-.002-.182-.008-.273-.004-.059-.015-.117-.02-.177a20 20 0 0 0-.128-1.174 14 14 0 0 0-.219-1.199 6 6 0 0 0-.111-.452c-.022-.076-.054-.149-.076-.225a10 10 0 0 0-.184-.539c-.034-.093-.057-.188-.096-.281-.046-.105-.103-.206-.153-.309q-.073-.158-.156-.314a7 7 0 0 0-.38-.608c-.054-.079-.092-.163-.15-.24-.065-.084-.056-.223-.111-.453.11.01.212.009.304.012a.6.6 0 0 1 .281.059c.192.12.365.256.532.396q.112.1.217.203c.111.107.222.215.321.331l.051.056.029.037c.089.109.166.227.246.343.188.276.363.565.504.887.166.367.333.756.478 1.101.285.223.555.309.808.285.191-.015.368-.112.536-.243.052-.041.107-.07.157-.12l.017-.021c.283-.285.532-.603.76-.935.014-.02.032-.035.046-.056.057-.078.101-.156.149-.234.027-.045.062-.086.088-.132.633-1.079 1.033-2.261 1.303-3.488a19 19 0 0 0 .328-1.961 17 17 0 0 0 .102-1.527c.006-.219-.002-.439-.005-.659q-.008-.489-.045-.979a15 15 0 0 0-.069-.728 16 16 0 0 0-.185-1.099c-.032-.157-.043-.313-.08-.47-.067-.287-.113-.592-.241-.877q-.022-.054-.051-.107a1.4 1.4 0 0 0-.133-.189c-.019-.023-.028-.048-.049-.07-.045-.067-.1-.111-.156-.156l-1.245-.36c-.518-.151-1.037-.303-1.576-.464l-.001.002-.002-.001c-.1.234-.2.412-.245.59-.018.088-.042.174-.061.262a21 21 0 0 1-.406 1.551q-.023.077-.044.155a23 23 0 0 1-.69 1.901 32 32 0 0 1-1.779 3.636c-.044.08-.095.157-.141.236a28 28 0 0 1-.936 1.491l-.013.019c-.389.567-.778 1.123-1.178 1.69a8 8 0 0 1-1.057 1.223c-.389.389-.8.723-1.223 1.057-.765.605-1.627.962-2.54 1.177a10 10 0 0 1-.901.163q-.182.029-.374.054l-.143.018-.003.002-.001.001c-2.298 2.241-5.014 3.934-7.823 5.608l.001.003-.002.001c.133.245.211.467.333.667 1.123 1.713 1.835 3.536 1.757 5.616-.009.234.02.44.074.627l.017.071.009.036c.048.152.133.283.239.396l.039.046.011.013c.059.059.15.092.224.138.078.048.142.11.236.145.172.063.377.099.599.119.02.001.033.009.054.01.242.019.493.009.744-.019a21 21 0 0 0 2.834-.592 19 19 0 0 0 6.25-3.087l.087-.061c.032-.023.061-.051.093-.075.353-.269.701-.548 1.042-.845l.011-.011c.175-.154.35-.317.513-.492.101-.104.187-.22.283-.328.105-.12.212-.238.31-.362q.306-.389.571-.805.157-.245.301-.498.222-.387.419-.79.117-.246.224-.498c.049-.111.104-.22.15-.333q.093-.237.18-.478c.025-.066.056-.129.079-.195.015-.041.017-.083.03-.124q.096-.303.147-.611.02-.11.035-.219.043-.36.041-.722zm-32.11 15.561.004.003v.001c.56.456 1.203.694 1.878.838q.534.117 1.087.17c.671.054 1.334-.009 1.997-.13.159-.029.32-.04.479-.078A20 20 0 0 0-80.255 52a17 17 0 0 0 1.09-.646c1.172-.772 1.814-1.842 1.962-3.181.177-1.582.056-3.154-.548-4.661a3.6 3.6 0 0 0-.236-.493c-.013-.022-.024-.049-.038-.07-.01-.015-.025-.03-.036-.045a2 2 0 0 0-.158-.195c-.015-.016-.022-.032-.039-.049-.03-.032-.071-.066-.104-.098l-.09-.085a9 9 0 0 0-.347-.293c-.027-.021-.04-.034-.069-.057h-.001l-.001-.001-.921.425q-.416.19-.835.385c-2.027.967-4.083 1.851-6.269 2.4-3.46.865-6.976 1.088-10.52.837-.291-.021-.582-.049-.872-.074-4.104-.352-8.145-1.073-12.04-2.516a1.4 1.4 0 0 0-.202-.042.8.8 0 0 0-.429.037l.004.004-.007.001c.168.159.338.327.514.476.059.051.115.107.177.151.921.642 1.842 1.274 2.782 1.888q.783.52 1.454 1.155l.026.027q.626.6 1.163 1.305c.018.024.038.044.056.068l.063.087a8 8 0 0 1 .599.967c.096.184.187.37.262.561.023.058.049.114.07.173a5.5 5.5 0 0 1 .259 1.051q.05.334.061.685c.001.056.009.11.009.168 0 .322.044.645.055 1.023l.006.003v.001c.8.458 1.649.75 2.519.989q.786.216 1.59.397c.103.023.204.027.307.046a6.8 6.8 0 0 0 3.067-.14c.259-.073.519-.147.777-.25.351-.142.673-.313.982-.496q.111-.066.22-.135a7 7 0 0 0 1.583-1.399l.101-.124a9.2 9.2 0 0 0 1.346-2.339c.102-.26.205-.539.325-.8.028-.054.126-.074.2-.109.099.139.175.282.238.437.015.041.033.081.045.124l.028.116q.022.11.033.231.007.062.01.126.005.152-.008.322c-.002.03 0 .056-.003.087a5 5 0 0 1-.066.444c-.017.091-.04.19-.062.288l-.051.217a14 14 0 0 1-.137.497c-.108.367-.243.777-.407 1.244m-26.053 10.242c.701.478 1.468.745 2.313.856q.556.08 1.081.051c1.051-.054 2.012-.431 2.872-1.141 1.223-1.023 1.468-2.135.812-3.569-.612-1.312-1.457-2.435-2.669-3.236-1.835-1.212-3.614-2.546-5.549-3.581-2.735-1.445-5.003-3.469-7.338-5.426-.601-.489-1.179-1.001-1.835-1.545l-.002.003-.004-.003c-.578.945-.556 2.001-1.022 2.868-.456.834-.901 1.679-1.446 2.469-.545.812-1.19 1.545-1.835 2.368.267.223.501.467.779.612 2.435 1.356 4.692 2.98 6.971 4.57a770 770 0 0 0 6.872 4.704m-28.888-32.603c-.6.512-1.079 1.146-1.568 1.757-.723.912-1.179 1.968-1.534 3.091-.567 1.824-.145 3.436.767 4.993.278.456.578.901.856 1.312-.117.25-.258.361-.407.389-.147.026-.301-.028-.444-.111a8 8 0 0 1-1.279-.778c-.355-.267-.656-.612-1.034-.957l-.003.003-.002-.003c-1.257.734-1.99 1.835-2.313 3.214-.389 1.601-.244 3.214.3 4.77.334.957.99 1.713 1.657 2.458 1.479 1.59 3.247 2.824 5.06 3.992 3.046 1.957 6.271 3.558 9.44 5.281 1.546.856 3.002 1.913 4.515 2.847 1.301.8 2.601 1.612 4.08 2.101 1.294.426 2.6.626 3.932.615q.667-.006 1.344-.081c1.212-.133 2.191-.712 2.98-1.623.156-.189.201-.445.278-.634-.289-.634-.9-.756-1.367-1.079-2.758-1.923-5.516-3.847-8.284-5.737-.99-.679-2.057-1.246-2.814-2.224-.066-.1-.2-.156-.311-.212-.078-.044-.156-.055-.245-.088l-.002.001-.003-.001c-1.455.71-2.6 2.031-4.42 2.3.101-.599.467-.788.789-1.011a16 16 0 0 0 3.058-2.691c1.657-1.879 2.969-3.98 3.625-6.438.367-1.367.523-2.768.645-4.169.022-.323.033-.657.056-1.079.231-.033.342-.044.484-.066.444.322.589.8.622 1.289.067.656.1 1.312.1 1.979-.011.467.145.756.523 1.034 1.89 1.357 3.714 2.803 5.638 4.081 2.868 1.902 5.648 3.948 8.817 5.338.723.311 1.446.645 2.157.956a3.15 3.15 0 0 0 1.5.266c.795-.061 1.526-.443 2.209-1 1.045-.867 1.223-2.024.989-3.291-.278-1.424-1.145-2.458-2.213-3.381-1.445-1.256-3.169-2.112-4.803-3.102-1.768-1.056-3.614-2.013-5.404-3.047-1.068-.634-2.146-1.278-3.114-2.057-.689-.534-1.367-1.023-2.168-1.368-.912-.411-1.501-1.167-1.912-2.057-.167-.378-.312-.767-.468-1.145a4.5 4.5 0 0 0-.614-.071c-.603-.031-1.187.046-1.77.104a31 31 0 0 1-3.415.188 23 23 0 0 1-3.407-.254c-.401-.056-.846-.023-1.101-.456.222-.367.545-.423.934-.445 2.991-.122 5.971-.267 8.951-.411a.6.6 0 0 0 .211-.056c.311-1.067.501-2.266 1.521-3.011.352.166.342.366.264.643-.311 1.145-.267 2.301.078 3.436.397 1.301 1.403 2.162 2.607 2.283.722.075 1.515-.116 2.291-.638 1.078-.723 1.412-1.946 1.134-3.224-.167-.757-.523-1.435-1.023-2.091-1.056-1.345-2.368-2.29-3.925-2.947-2.736-1.167-5.627-1.723-8.584-1.868a42 42 0 0 0-1.373-.046c-1.368-.023-2.736.035-4.103.269-3.336.567-6.372 1.79-8.985 3.958m-12.05-4.083.173.156a100 100 0 0 0 .845.748c.237.208.465.405.668.577l.027.022a22 22 0 0 0 .646.524q.109.084.194.143c.037.026.094.071.123.09.121-.069.254-.141.388-.213q.318-.171.643-.35c.221-.124.437-.255.653-.384.082-.049.166-.092.248-.14.241-.14.483-.276.736-.388.433-.197.865-.35 1.295-.45 1.115-.257 2.21-.117 3.254.846.136-.057.28-.102.422-.15.299-.097.594-.197.833-.367 1.535-1.107 3.293-1.721 5.07-2.307.015-.022.019-.046.033-.068l.069-.11v-.011c.005-.012.004-.026.008-.038.136-.347.085-.728.085-1.094.004-.385-.004-.772-.011-1.159l-.001-.129a37 37 0 0 1-.007-1.455c.01-.624.084-1.238.131-1.982-.131-.122-.262-.251-.393-.378q-.13-.123-.257-.248a13 13 0 0 1-.751-.818 12 12 0 0 1-.334-.417 8 8 0 0 1-.522-.777c-.046-.077-.1-.147-.143-.227-.623-1.153-.754-2.446-1.005-3.674h-.002l-.001-.002c-.744-.278-1.378 0-2.001.189a7 7 0 0 0-.779.276 16 16 0 0 0-.835.374c-2.695 1.286-5.362 2.636-7.914 4.185a51 51 0 0 0-2.125 1.347c-1.201.823-2.324 1.746-3.47 2.646-.122.1-.233.212-.344.334s-.2.256-.312.367c.078.1.201.245.356.4.156.178.334.367.545.567.078.078.145.156.222.223l.234.233a117 117 0 0 0 3.306 3.089m2.637 17.649c.1-1.735.778-3.214 2.124-4.359.411-.345.845-.667 1.268-1.012.211-.178.4-.378.589-.556-.589-3.247.2-6.149 1.935-8.806-.276-.393-.621-.497-.95-.477a1.6 1.6 0 0 0-.323.054c-.59.167-1.212.378-1.69.734-1.413 1.068-2.558 2.369-3.303 3.981-1.001 2.19-2.001 4.381-2.546 6.738-.334 1.457-.534 2.936-.501 4.448.011.834.212 1.623.823 2.279.509.551 1.024.789 1.761.695.248-.031.519-.099.824-.205v-1.157c-.011-.789-.055-1.579-.011-2.357m24.658-45.234c-.156 4.281-.645 8.518-1.746 12.676-.556 2.102-1.401 4.081-2.346 6.038-.178.367-.334.745-.59 1.301.76.117 1.4.24 2.034.2q.319-.018.64-.1c.668-.901 1.123-1.923 1.546-2.958 1.156-2.802 2.146-5.659 2.691-8.662.756-4.37 1.123-8.751.778-13.154-.155-1.979-.6-3.947-.934-5.904-.078-.39-.267-.768-.4-1.123a2.4 2.4 0 0 0-.638-.156c-.618-.066-1.199.105-1.825.189 0 .189-.033.356 0 .489.845 3.681.945 7.417.79 11.164m6.605 10.875a52 52 0 0 1-2.346 7.228c-.356.878-.79 1.756-1.357 2.513-.701.945-.756 1.901-.4 2.946.155.467.4.901.645 1.335.289.555.734.845 1.367.967 2.146.367 4.126 1.245 6.016 2.29a11.1 11.1 0 0 1 3.68 3.281c1.179 1.668 1.357 3.525.701 5.459-.078.234-.167.456-.267.745.278.201.534.401.801.579 3.98 2.657 8.384 4.192 13.098 4.881 2.302.345 4.615.645 6.95.712 2.858.089 5.638-.345 8.373-1.057 3.881-1.011 7.606-2.446 11.208-4.181 1.012-.478 1.991-1.045 2.958-1.612.378-.211.779-.445 1.079-.967-.401-.045-.712-.111-1.023-.123-2.747-.1-5.493-.211-8.206-.644-1.19-.19-2.358-.49-3.525-.79-.389-.1-.834-.178-1.057-.6-.066-.512.256-.634.668-.712 1.178-.234 2.39-.367 3.591-.334 1.946.056 3.903.178 5.86.245.779.044 1.568.033 2.357.044.623.023 1.246.045 1.869.078a9.2 9.2 0 0 0 4.025-.689c1.234-.489 2.112-1.457 2.902-2.491 1.735-2.246 2.813-4.792 3.414-7.55.467-2.157.733-4.337.722-6.549-.022-3.214.034-6.405.045-9.619 0-.7-.067-1.401-.1-2.19-1.234.2-2.291.734-3.458.711-1.123-.033-2.224-.011-3.414-.011-.222 1.179.2 2.313.178 3.447-.011 1.135.044 2.258 0 3.37a52 52 0 0 1-.256 3.48 47 47 0 0 1-.445 3.336c-.211 1.145-.478 2.279-.734 3.413-.244 1.09-.522 2.169-.789 3.258.422.501.979.501 1.512.512.601.022 1.157.2 1.613.578.166.145.233.378.378.601-.49.4-.968.456-1.468.433-3.492-.155-6.983-.311-10.464-.489-.956-.056-1.901-.256-2.846-.334-.534-.055-1.079 0-1.612.034-.768.033-1.201.5-1.457 1.178-.122.345-.234.712-.389 1.057-.067.167-.212.311-.345.489-1.079-1.479-.867-3.436.511-4.815-1.49-7.472-1.356-14.889 1.524-22.116 1.267-.2 2.413-.467 3.425-1.201.967-.69 1.645-1.635 2.279-2.68.334.178.578.289.823.423 2.591 1.612 5.282 2.991 8.273 3.702.912.223 1.879.356 2.824.401 2.324.1 4.192-.879 5.716-2.591 1.59-1.768 2.268-3.925 2.457-6.26a13.3 13.3 0 0 0-.878-5.983 43.1 43.1 0 0 0-7.317-12.276c-1.612-1.89-3.258-3.78-5.248-5.315a18.2 18.2 0 0 0-4.081-2.368c-1.879-.79-3.77-1.535-5.749-2.046-2.146-.556-4.303-.923-6.516-.945-1.045-.011-2.09-.056-3.125-.034-4.603.1-9.095.845-13.365 2.669-1.49.645-2.947 1.334-4.415 2.046-4.347 2.09-8.072 5.104-11.731 8.173-1.857 1.557-3.402 3.425-4.759 5.448a11.2 11.2 0 0 0-1.568 3.536c1.902 2.836 2.291 6.105 2.458 9.385.256 4.937-.456 9.785-1.59 14.589m53.24 62.914c.019.062.046.122.069.181q.062.182.146.357l.007.018c.023.056.063.111.096.169.032.055.057.116.093.168l.046.06c.209.301.426.602.644.893.134.174.286.329.424.499q.34.419.698.821c.133.15.252.313.39.459.117.125.249.233.369.355q.65.67 1.343 1.294c.197.179.391.365.593.54q.778.666 1.597 1.291c.159.123.306.257.468.378 2.012 1.479 4.27 2.391 6.683 2.958 4.125.956 8.295 1.312 12.509.789.389-.047.769-.126 1.15-.2 1.507-.29 2.94-.798 4.286-1.534.287-.156.579-.3.857-.478a35.6 35.6 0 0 0 4.126-3.06 33 33 0 0 0 3.795-3.812c.109-.127.224-.249.33-.378a33 33 0 0 0 2.18-2.991c.402-.624.759-1.265 1.096-1.916.106-.204.203-.411.303-.617.11-.228.231-.449.335-.681.106-.233.196-.474.296-.71.094-.225.191-.448.28-.675a36 36 0 0 0 .702-1.942l.041-.123c.116-.37.232-.739.338-1.109q.102-.36.199-.719c.041-.151.092-.299.132-.451.577-2.167 1.126-4.344 1.73-6.502.566-2.044 1.446-3.915 2.576-5.646a24 24 0 0 1 1.17-1.624c.31-.397.629-.789.968-1.171l.067-.079c.809-.893 1.619-1.786 2.419-2.688.417-.475.802-.97 1.17-1.476.035-.047.076-.09.11-.137.048-.069.088-.139.135-.208q.228-.33.437-.671c.056-.089.119-.176.173-.266.047-.079.081-.166.125-.246q.214-.385.4-.786c.031-.065.068-.125.098-.191.066-.132.119-.275.175-.416.03-.074.069-.142.097-.217.052-.135.081-.272.127-.408.117-.334.228-.669.314-1.007.042-.167.067-.336.102-.504.064-.311.124-.623.163-.937.025-.202.038-.405.053-.609a12 12 0 0 0 .021-1.496c-.005-.116.002-.229-.007-.344-.016-.23-.05-.463-.082-.696-.01-.084-.009-.166-.021-.25-.301-2.063-.737-4.084-1.623-5.947q-.074-.155-.152-.308c-.198-.39-.409-.775-.653-1.149a23 23 0 0 0-1.279-1.754 22 22 0 0 0-.716-.852q-.274-.304-.559-.595c-.089-.092-.174-.191-.263-.28-.105-.104-.216-.199-.322-.3-.154-.146-.307-.294-.465-.433q-.527-.465-1.087-.884c-.117-.087-.239-.166-.358-.25a17 17 0 0 0-.962-.628q-.194-.118-.391-.232-.657-.374-1.355-.688c-.066-.03-.137-.054-.204-.082a16 16 0 0 0-1.72-.623 17 17 0 0 0-1.466-.377c-.04-.008-.077-.022-.117-.03a19 19 0 0 0-1.617-.237c-.409-.046-.819-.086-1.234-.129-1.541-.166-3.091-.304-4.633-.458l-.319-.032c-2.426-.249-4.564-1.079-6.457-2.448a15 15 0 0 1-1.618-1.356c-.24-.234-.49-.469-.737-.703-.146-.139-.286-.277-.435-.418-.023-.022-.067-.033-.111-.056a2 2 0 0 1-.19-.044c-.055.1-.122.2-.177.3-.067.1-.123.189-.178.3-.256.512-.512 1.046-.767 1.568-.256.523-.512 1.056-.79 1.568-.474.916-1.027 1.754-1.709 2.473a7.1 7.1 0 0 1-2.533 1.718c-.029.012-.053.032-.08.049-.078.046-.146.1-.204.141h-.011c-.122 1.89-.244 3.758-.367 5.626-.255 3.814-.622 7.606-1.401 11.365-.389 1.879-1.212 3.524-2.279 5.07-.256.367-.512.756-.779 1.145.356.462.768.826 1.21 1.138s.915.571 1.39.822c.996.521 2 1.023 3.042 1.423.644.253 1.3.443 1.95.626.353.101.708.2 1.048.306a.8.8 0 0 1 .007.336l-.002.006a.5.5 0 0 1-.107.207q-.019.02-.04.038a.8.8 0 0 1-.221.145l-.04.02q-.237.09-.478.149a3.8 3.8 0 0 1-1.487.055c-1.758-.299-3.476-.693-5.074-1.397a12 12 0 0 1-2.728-1.653.3.3 0 0 0-.103-.044c-.053-.016-.118-.032-.201-.064a5 5 0 0 0-.563.412c-.661.537-1.24 1.206-1.942 1.733q-.589.444-1.179.894l-.306.228c-.4.301-.801.6-1.212.887a64 64 0 0 1-2.837 1.814q-.81.487-1.629.96c-.426.243-.852.483-1.285.711-.99.534-2.001 1.012-3.024 1.501-1.001.478-2.013.968-3.047 1.401-1.045.434-2.102.801-3.147 1.201-1.034.389-2.079.79-3.169 1.201v.002c.033.222.045.432.1.61.1.344.211.678.334 1.012.133.322.266.644.433.967q.484.934 1.168 1.768a51 51 0 0 0 2.302 2.613c.315.338.601.688.891 1.038q.666.803 1.229 1.668a18 18 0 0 1 1.011 1.785c.089.185.181.369.264.558.215.493.411.997.577 1.52.013.039.03.075.042.114M2.391 8.69a31.3 31.3 0 0 1-3.825 6.983c-2.613 3.603-5.982 6.205-10.33 7.439-.189.044-.356.156-.634.278.256.422.445.778.667 1.112 1.09 1.69 1.946 3.491 2.413 5.448.334 1.379.667 2.758.856 4.148.401 2.991 0 5.893-1.378 8.617a20.8 20.8 0 0 1-2.992 4.437c-.745.834-1.501 1.668-2.246 2.513-1.99 2.235-3.48 4.759-4.27 7.673-.511 1.923-1.011 3.858-1.523 5.782-1.534 5.904-4.192 11.197-8.506 15.589a49 49 0 0 1-4.937 4.403c-3.547 2.747-7.506 4.293-12.054 4.482-3.769.155-7.472-.078-11.153-.834-3.324-.679-6.36-1.946-8.995-4.092-.968-.801-1.924-1.602-2.891-2.391-.2-.167-.467-.278-.756-.456-.078.311-.112.512-.167.712-.345 1.323-.612 2.68-1.057 3.969-1.023 2.98-2.857 5.416-5.215 7.495-3.825 3.369-8.284 5.17-13.354 5.526-2.691.2-5.393.323-8.084.467a20.8 20.8 0 0 0-6.672 1.457c-.778.311-1.556.6-2.335.901-2.59.989-5.326 1.345-8.072 1.267-3.225-.078-6.35-.812-9.341-2.023-5.181-2.102-9.107-5.727-12.409-10.13-.489-.656-.823-1.446-1.234-2.157-.178-.323-.356-.657-.512-.946l-.589-.078c-2.502-.166-4.926-.711-7.306-1.523-1.49-.522-2.913-1.212-4.147-2.224-4.003-3.28-6.416-7.472-7.228-12.587-.2-1.312-.411-2.635-.734-3.914-.734-2.835-2.079-5.337-4.103-7.483a46 46 0 0 0-1.668-1.668c-2.368-2.302-4.414-4.871-6.293-7.562a13.7 13.7 0 0 1-1.735-3.313c-.367-1.012-.712-2.035-1.079-3.091-.211-.089-.433-.212-.656-.289-1.579-.49-2.957-1.324-4.214-2.38-2.024-1.69-3.747-3.669-5.237-5.838-2.446-3.602-3.758-7.572-3.781-11.942v-2.268c-.256-.345-.522-.656-.756-1.001-1.067-1.579-2.202-3.136-3.18-4.77-1.89-3.158-1.79-6.405-.189-9.652 1.468-2.958 3.669-5.337 5.993-7.617a89 89 0 0 1 4.148-3.769 62 62 0 0 1 3.814-3.025c.6-.445 1.001-.956 1.234-1.657a22.5 22.5 0 0 0 1.223-5.837c.2-2.747.123-5.493-.144-8.24-.167-1.857-.278-3.725-.389-5.593-.167-2.947.378-5.793 1.323-8.584 1.223-3.547 2.991-6.761 5.737-9.385 1.357-1.268 2.869-2.257 4.615-2.891 2.869-1.056 5.782-1.056 8.74-.478a18.4 18.4 0 0 1 5.693 2.124c.267.144.523.366.956.278-.1-.278-.155-.467-.211-.657-.389-.967-.756-1.934-1.145-2.902-1.323-3.436-1.602-6.961-.912-10.552.912-4.648 3.369-8.262 7.483-10.697 2.068-1.234 4.304-2.035 6.65-2.446 2.902-.49 5.837-.845 8.762-1.246 3.858-.511 7.561-1.556 11.053-3.336 2.98-1.512 5.704-3.402 8.35-5.426a64 64 0 0 1 7.606-5.015c3.758-2.112 7.795-3.291 12.087-3.636 1.879-.155 3.758-.022 5.515.712 3.492 1.457 6.461 3.603 8.584 6.794.178.256.423.478.612.7.723-.178 1.201-.578 1.712-.934 1.235-.867 2.58-1.523 4.048-1.868 4.303-1.023 8.428-.578 12.331 1.535 2.547 1.379 4.826 3.113 6.939 5.081a69 69 0 0 0 2.669 2.436c1.545 1.356 3.291 2.401 5.181 3.213 2.413 1.045 4.948 1.701 7.506 2.257.432.1.875.156 1.34.222.801-1.487 1.807-2.975 3.013-4.109.135-.159.278-.311.417-.467l2.738 1.512-.071.099c-.17.274-.98 1.594-1.911 3.291-.202.439-.307.711-.307.711s.541.222.771.357c.199.116.721.503.721.503l.002-.003c.209.191.411.376.603.542a9.7 9.7 0 0 1 2.358 3.058 16.5 16.5 0 0 1 1.468 4.737c.077.611.066 1.245.022 1.868-.056.911-.189 1.812-.245 2.724a13.9 13.9 0 0 1-1.323 5.037c-.145.3-.267.601-.489 1.067.867.112 1.567.178 2.257.29 4.281.756 7.683 2.802 9.785 6.76 1.59 2.98 2.468 6.194 2.691 9.53.167 2.813-.011 5.659-.067 8.473-.022 1.089-.156 2.168-.156 3.247-.033 2.368.657 4.514 2.091 6.404.378.49.767.968 1.145 1.468 2.502 3.225 4.96 6.472 7.106 9.963 1.323 2.146 2.223 4.448 2.835 6.894.901 3.525.678 6.994-.656 10.397" clip-path="url(#a)" style="fill:#231f20;fill-opacity:1;fill-rule:nonzero;stroke:none" transform="matrix(1.33333 0 0 -1.33333 256.966 135.5)"/><path d="M0 0c-.345 1.023-1.212 3.492-1.368 3.758-.367-.211-.678-.389-1.034-.589.856-2.491 2.28-5.915 3.569-7.539.178-.211.345-.4.512-.545-.145.445-.245.745-.345 1.034C.878-2.58.422-1.29 0 0" clip-path="url(#b)" style="fill:#fff;fill-opacity:1;fill-rule:nonzero;stroke:none" transform="matrix(1.33333 0 0 -1.33333 212.752 216.8)"/><path d="M0 0c-.011 1.779-.067 3.581-.3 5.348-.301 2.213-.768 4.415-1.235 6.594-.277 1.257-.678 2.491-1.089 3.703-.267.778-.612 1.535-1.168 2.18-.418.083-.83.133-1.253.13a5 5 0 0 1-1.315-.186c.055-.234.077-.356.122-.467.856-1.946 1.401-3.992 1.823-6.071A77.5 77.5 0 0 0-2.891-1.368c.144-4.314-.278-8.539-1.968-12.576-.078-.211-.067-.456-.1-.756q.357-.074.692-.075c.675-.007 1.295.172 1.921.364.122.245.256.467.345.69A25 25 0 0 1-.578-8.44C-.156-5.638.011-2.824 0 0" clip-path="url(#c)" style="fill:#508783;fill-opacity:1;fill-rule:nonzero;stroke:none" transform="matrix(1.33333 0 0 -1.33333 196.114 134.589)"/><path d="M0 0c.745.534 1.434 1.123 2.135 1.724.478.4.878.867 1.09 1.567C1.735 4.392.067 5.159-1.457 6.138c-.811 3.469-.567 6.883.167 10.263-.434.109-.996.162-1.592.164-.992.003-2.081-.138-2.845-.408-.022-.412-.088-.857-.088-1.312-.056-3.448-.112-6.895.144-10.342.156-2.068.256-4.147.545-6.204.133-.901.278-1.802.667-2.691.2-.034.4-.067.601-.111 1.089-.201 2.068-.656 2.857-1.424C-.411-6.505.111-7.15.678-7.761c.083-.1.136-.268.263-.295a.25.25 0 0 1 .16.028c0 .111.033.211 0 .267C.111-6.127-.267-4.292-.634-2.457c-.067.322-.1.656-.111.978C-.767-.856-.534-.378 0 0" clip-path="url(#d)" style="fill:#fff;fill-opacity:1;fill-rule:nonzero;stroke:none" transform="matrix(1.33333 0 0 -1.33333 155.402 126.004)"/><path d="M0 0c.945-1.957 1.79-3.936 2.346-6.038 1.101-4.159 1.59-8.395 1.746-12.676.156-3.747.056-7.483-.79-11.164-.033-.133 0-.3 0-.489.624-.083 1.204-.253 1.82-.189.208.021.419.068.638.155.133.356.322.734.4 1.124.334 1.956.779 3.925.934 5.904.345 4.403-.022 8.784-.778 13.154-.545 3.002-1.535 5.86-2.691 8.662C3.202-.523 2.747.5 2.079 1.401a3.3 3.3 0 0 1-.641.1c-.632.039-1.27-.084-2.027-.2C-.334.745-.178.367 0 0" clip-path="url(#e)" style="fill:#508783;fill-opacity:1;fill-rule:nonzero;stroke:none" transform="matrix(1.33333 0 0 -1.33333 77.565 111.727)"/><path d="M0 0a4 4 0 0 1-.824.205C-1.558.297-2.072.06-2.58-.489c-.611-.656-.811-1.446-.823-2.28-.033-1.512.167-2.991.501-4.448.545-2.357 1.545-4.547 2.546-6.738.745-1.612 1.89-2.913 3.303-3.981.478-.356 1.1-.567 1.69-.734q.154-.042.318-.054c.329-.02.674.084.949.477C4.17-15.589 3.38-12.687 3.97-9.44c-.189.177-.378.378-.59.556-.422.344-.856.667-1.267 1.011C.767-6.727.089-5.248-.011-3.514c-.045.779 0 1.568.011 2.358z" clip-path="url(#f)" style="fill:#fff;fill-opacity:1;fill-rule:nonzero;stroke:none" transform="matrix(1.33333 0 0 -1.33333 50.152 71.682)"/><path d="M0 0a756 756 0 0 1-6.872-4.704c-2.279-1.59-4.537-3.213-6.972-4.57-.278-.144-.511-.389-.778-.611.645-.823 1.29-1.557 1.835-2.369.544-.789.989-1.634 1.445-2.468.467-.867.445-1.921 1.022-2.866l.001-.003c.656.545 1.234 1.056 1.835 1.546 2.335 1.957 4.603 3.98 7.339 5.426 1.934 1.034 3.714 2.368 5.548 3.58 1.212.801 2.057 1.924 2.669 3.236.656 1.435.411 2.546-.812 3.569C5.4.476 4.44.853 3.388.908A5.5 5.5 0 0 1 2.313.856C1.468.745.7.478 0 0" clip-path="url(#g)" style="fill:#fff;fill-opacity:1;fill-rule:nonzero;stroke:none" transform="matrix(1.33333 0 0 -1.33333 101.213 50.985)"/><path d="M0 0a33 33 0 0 1-.856-1.312c-.912-1.557-1.335-3.169-.767-4.993.355-1.123.811-2.179 1.534-3.091.489-.612.967-1.245 1.568-1.757 2.613-2.168 5.649-3.391 8.984-3.958 1.367-.234 2.733-.292 4.099-.269q.686.012 1.372.046c2.958.145 5.849.701 8.584 1.868 1.557.656 2.869 1.602 3.926 2.947.5.656.856 1.334 1.023 2.09.278 1.279-.056 2.502-1.135 3.225-.775.521-1.568.713-2.29.638-1.202-.123-2.206-.984-2.602-2.284-.345-1.134-.389-2.29-.078-3.436.078-.277.089-.478-.267-.644l-.002.002c-1.021.745-1.21 1.944-1.521 3.011a.7.7 0 0 1-.211.056c-2.981.144-5.96.289-8.952.411-.389.022-.711.078-.934.445.256.433.701.4 1.101.456 1.134.172 2.27.25 3.407.254 1.139.004 2.28-.065 3.42-.188.583-.058 1.165-.134 1.765-.104q.304.014.615.071c.156.378.3.767.467 1.145.411.89 1.001 1.646 1.913 2.057.8.345 1.478.834 2.168 1.368.967.778 2.046 1.423 3.113 2.057 1.79 1.034 3.636 1.991 5.404 3.047 1.635.99 3.358 1.846 4.804 3.102 1.067.923 1.935 1.957 2.213 3.381.233 1.267.055 2.424-.99 3.291-.682.557-1.413.939-2.208 1a3.15 3.15 0 0 1-1.495-.266c-.711-.312-1.434-.645-2.157-.956-3.169-1.39-5.949-3.436-8.817-5.338-1.924-1.278-3.748-2.724-5.638-4.081-.378-.278-.534-.567-.523-1.034 0-.667-.033-1.323-.1-1.979-.033-.489-.178-.967-.622-1.29l-.005.001c-.142.021-.254.033-.485.066-.022.422-.033.756-.055 1.078-.123 1.401-.278 2.803-.645 4.17-.656 2.458-1.968 4.559-3.625 6.438a16 16 0 0 1-3.058 2.691c-.322.223-.689.412-.789 1.011l-.001.001c1.823-.267 2.968-1.588 4.424-2.3l.002-.002c.089.034.167.045.245.089.111.056.244.112.311.212.756.978 1.824 1.545 2.813 2.224 2.769 1.89 5.527 3.814 8.284 5.737.467.323 1.079.445 1.368 1.079-.078.189-.122.445-.278.634-.79.911-1.768 1.49-2.98 1.623q-.677.075-1.344.081c-1.331.01-2.635-.19-3.927-.615-1.479-.489-2.78-1.301-4.081-2.101-1.512-.934-2.968-1.991-4.514-2.847-3.169-1.723-6.394-3.325-9.44-5.282-1.813-1.167-3.581-2.401-5.06-3.991-.667-.745-1.323-1.502-1.657-2.458-.545-1.557-.689-3.169-.3-4.77.322-1.378 1.055-2.478 2.31-3.211l.003-.003c.378.345.678.69 1.034.957.4.3.823.556 1.279.778.143.083.297.137.444.111C-.262.363-.118.253 0 0" clip-path="url(#h)" style="fill:#fff;fill-opacity:1;fill-rule:nonzero;stroke:none" transform="matrix(1.33333 0 0 -1.33333 60.723 79.584)"/><path d="M0 0c.056 2.446.567 4.77 2.157 6.738.123.145.234.278.367.39.043.043.092.075.136.117q.208.2.43.371c.115.087.236.161.356.236.137.084.273.171.418.238.159.075.329.127.498.18.127.04.249.092.382.12.213.045.442.057.672.068.103.006.196.033.302.031 1.461-.018 2.912-.065 4.363-.102 1.175-.028 2.346-.045 3.517-.072.737-.017 1.474-.033 2.214-.076 2.657-.144 5.304-.444 7.817-1.412.134-.05.268-.107.402-.162.134-.052.268-.101.402-.157.623-.26.902-.707.735-1.414a1 1 0 0 0-.339-.286c-.256-.143-.559-.182-.867-.182-.667 0-1.334-.023-1.99.055-.55.07-1.102.12-1.653.168-2.098.179-4.204.235-6.304.338-.474.025-.951.015-1.427.006-.766-.016-1.534-.046-2.302-.067h-.879q-1.257-.001-2.51-.008l-.853-.005a4 4 0 0 1-.759-.089q-.079-.018-.154-.041a3 3 0 0 1-.535-.199c-.051-.025-.103-.047-.153-.075a3 3 0 0 1-.574-.417l-.006-.007a3.5 3.5 0 0 1-.526-.651 23 23 0 0 1-.916-1.591c-.08-.152-.154-.308-.23-.461a17 17 0 0 1-.714-1.603C1.226-.673 1.03-1.352.472-2.012l-.002.004-.003-.005c-.1.134-.178.256-.245.39-.016.032-.022.066-.037.098l-.023.062C-.037-.968-.02-.462 0 0m25.88 1.69c.623-.734.612-1.746.456-2.791 0-.078-.022-.167-.033-.244-.223-1.313-.756-2.369-2.291-2.68.045-.256.045-.489.089-.723.367-2.035.745-4.081 1.101-6.116.2-1.067.4-2.135.523-3.202.355-3.236.155-6.461-.334-9.685-.322-2.124-.7-4.259-1.201-6.361-.1-.433-.133-.911-.645-1.223l-.003.002-.002-.002c-.345.234-.723.49-1.09.756-2.635 1.965-5.568 2.781-8.739 2.657a18 18 0 0 1-1.374-.11 28.3 28.3 0 0 1-5.226-1.19c-2.169-.689-4.126-1.735-5.66-3.469-.156-.178-.311-.545-.601-.467l-.002.002-.003-.002-.002.005c-.163.049-.169.267-.15.361l-.004.012v.022c.145.345.301.689.512.99 1.468 2.012 3.213 3.714 5.571 4.659.489.2.967.444 1.434.667-.189 3.947-.667 7.784-.189 11.664.067.489.122.968.189 1.457l.034.215c.08.62.16 1.246.25 1.864a53 53 0 0 0 .9 4.793c.189.789.401 1.579.645 2.346.045.133.267.823.267.823l-1.39.3c-.011 0-.011.001-.022.011h-.006c-.122.022-.233.045-.355.067-.356.1-.712.178-1.068.244-.4.089-.811.178-1.212.29-.067.022-.133.033-.211.055l-.011.004c-.564.144-1.342.335-1.196.967l-.005.008.01.009c.059.211.288.32.482.397l.008.005c.011 0 .023.011.034.011.066.022.178.056.311.078.167.033.389.078.623.111l.016.002c.409.066.871.121 1.29.143 2.135.133 4.359.033 5.493-.056.111-.011.222-.022.334-.022.1-.011.177-.011.244-.022h.034a18 18 0 0 1 1.1-.089c.378-.034.757-.056 1.134-.089a78 78 0 0 1 2.302-.167 30 30 0 0 0 3.447-.389q.229-.037.437-.048c.969-.045 1.612.366 2.127 1.338.255.478.422.989.644 1.49.012.033.034.066.045.089.044.066.078.122.133.178l.019.011c.211.237.515.372.787.044m1.162-37.639c.301.178.601.356.89.545.245.155.478.311.701.489.055.033.1.067.155.111.134.111.256.222.367.345.345.367.612.778.845 1.223.156.289.278.6.401.901.122.311.233.622.355.934.145.344.189.734.345 1.067.189.423.434.778.712 1.045.767.79 1.823.968 3.08.312 1.245-.668 2.057-1.779 2.279-3.225.145-.834.123-1.657-.122-2.457a4 4 0 0 0-.167-.479 12 12 0 0 0-.411-.934c-.367-.767-.812-1.49-1.412-2.123-.123-.134-.234-.256-.367-.367-1.39-1.268-3.025-1.835-4.871-1.802-.989-.044-1.912.156-2.757.668q-.717.433-.968 1.034c-.166.4-.189.856-.1 1.39.078.411.256.7.512.934.156.144.333.278.533.389m13.377-8.206c.035-.007.065-.016.099-.023.199-.038.399-.088.574-.128.158-.493-.112-.716-.437-.8l-.349-.087c-.6-.159-1.212-.312-1.826-.341h-.007l-.137-.004c-1.608-.077-3.216-.08-4.815-.089-.996 0-2 .112-2.986.056-.521-.028-1.041-.073-1.561-.118a55 55 0 0 1-1.573-.164c-.357-.042-.715-.077-1.071-.127-.294-.043-.588-.101-.882-.151-1.129-.192-2.258-.412-3.387-.615-.478-.078-.978-.178-1.479.289l.002.001-.002.001c.079.08.147.159.216.238.124.144.246.278.396.349.6.289 1.201.556 1.823.756a45 45 0 0 0 5.617 1.364 63 63 0 0 0 1.891.307c.373.056.746.086 1.119.109 1.369.086 2.734-.024 4.105-.19 1.557-.189 3.114-.422 4.67-.633m4.702 12.378a1.567 1.567 0 1 0 0-3.133 1.567 1.567 0 0 0 0 3.133m3.751-2.931a1.721 1.721 0 1 0 .002-3.442 1.721 1.721 0 0 0-.002 3.442m1.879 4.797c.21 0 .398-.065.571-.156.024-.011.05-.019.072-.033.031-.021.054-.049.082-.071.305-.227.516-.572.516-.981a1.2 1.2 0 0 0-.119-.515l-.001-.001a.6.6 0 0 0-.111-.2c-.02-.034-.056-.053-.081-.084a1 1 0 0 0-.113-.119c-.027-.022-.042-.057-.073-.075a.6.6 0 0 0-.214-.118 1.2 1.2 0 0 0-.529-.128 1.24 1.24 0 1 0 0 2.481M34.395-49.664a1 1 0 0 0-.685-.197c-.158.007-.315.032-.474.046q-1.032.105-2.039.037c-.915-.065-1.813-.253-2.681-.676-.149-.065-.362-.01-.558-.01v.004h-.004c.034.156.011.278.056.3l.004.002v.001a16.4 16.4 0 0 0 3.365 1.832l.002.001c.048.019.096.022.143.039q.627.219 1.237.142a3.3 3.3 0 0 0 1.234-.432.96.96 0 0 0 .391-.4c.007-.015.021-.026.028-.042.071-.178.07-.39-.019-.647M16.688-32.637a1.24 1.24 0 1 0 0 2.48 1.24 1.24 0 0 0 0-2.48m-1.706-4.436a1.721 1.721 0 1 0 0 3.442 1.721 1.721 0 0 0 0-3.442m-4.234 3.117a1.614 1.614 0 1 0 .001 3.227 1.614 1.614 0 0 0-.001-3.227m-21.245-8.12c.323-1.29.845-2.457 1.568-3.536 1.357-2.024 2.902-3.892 4.759-5.449 3.659-3.069 7.384-6.082 11.731-8.172a113 113 0 0 1 4.415-2.046c4.269-1.824 8.762-2.569 13.365-2.669 1.034-.022 2.08.022 3.125.033 2.213.023 4.37.39 6.516.946 1.979.511 3.869 1.256 5.749 2.045a18.2 18.2 0 0 1 4.08 2.369c1.991 1.534 3.637 3.425 5.249 5.315a43.1 43.1 0 0 1 7.316 12.276 13.3 13.3 0 0 1 .879 5.982c-.189 2.335-.868 4.492-2.458 6.26-1.523 1.713-3.391 2.691-5.715 2.591a15 15 0 0 1-2.824-.4c-2.991-.712-5.682-2.091-8.273-3.703-.245-.133-.489-.244-.823-.422-.634 1.045-1.312 1.99-2.279 2.679-1.012.734-2.158 1.001-3.425 1.201-2.88 7.228-3.014 14.645-1.524 22.117-1.378 1.379-1.59 3.336-.511 4.815.133-.178.278-.323.345-.49.155-.344.266-.711.389-1.056.255-.678.689-1.145 1.456-1.179.534-.033 1.079-.089 1.613-.033.945.078 1.89.278 2.846.334 3.481.178 6.972.333 10.464.489.5.022.978-.033 1.467-.434-.144-.222-.211-.456-.378-.6-.455-.378-1.011-.556-1.612-.578-.534-.012-1.09-.012-1.512-.512.267-1.09.545-2.168.789-3.258.256-1.134.523-2.268.734-3.414.189-1.1.334-2.212.445-3.335.122-1.157.211-2.313.256-3.481.044-1.112-.011-2.235 0-3.369.022-1.134-.401-2.268-.178-3.447 1.19 0 2.29-.022 3.413.011 1.168.022 2.224-.511 3.459-.712.033.79.1 1.49.1 2.191-.011 3.213-.067 6.405-.045 9.618.011 2.213-.255 4.392-.723 6.55-.6 2.757-1.679 5.304-3.413 7.55-.79 1.034-1.668 2.001-2.902 2.49a9.2 9.2 0 0 1-4.026.69c-.622-.033-1.245-.056-1.868-.078-.789-.011-1.579 0-2.357-.044-1.957-.067-3.914-.189-5.86-.245-1.201-.033-2.413.1-3.592.334-.411.077-.733.2-.667.711.223.423.667.501 1.057.601 1.167.3 2.335.6 3.524.789 2.714.434 5.46.545 8.207.645.311.011.622.078 1.023.122-.301.523-.701.756-1.079.968-.967.567-1.946 1.134-2.958 1.612-3.602 1.735-7.327 3.169-11.208 4.181-2.736.712-5.515 1.145-8.373 1.056-2.335-.066-4.648-.367-6.95-.711-4.714-.69-9.118-2.224-13.098-4.882-.267-.178-.523-.378-.801-.578.1-.289.189-.511.267-.745.656-1.935.478-3.792-.701-5.46a11.1 11.1 0 0 0-3.68-3.28c-1.891-1.045-3.87-1.924-6.016-2.291-.634-.122-1.078-.411-1.368-.967-.244-.433-.489-.867-.645-1.334-.355-1.045-.3-2.002.401-2.947.567-.756 1.001-1.634 1.356-2.513a52 52 0 0 0 2.347-7.228c1.134-4.803 1.845-9.651 1.59-14.588-.167-3.28-.556-6.55-2.458-9.385" clip-path="url(#i)" style="fill:#d98522;fill-opacity:1;fill-rule:nonzero;stroke:none" transform="matrix(1.33333 0 0 -1.33333 104.66 98.043)"/><path d="M0 0a4 4 0 0 1-.147.611c-.013.041-.015.083-.03.124C-.2.801-.231.863-.256.929q-.154.412-.33.812a15 15 0 0 1-.224.498 13 13 0 0 1-.72 1.288 10 10 0 0 1-.571.805c-.098.124-.205.242-.31.362-.25.283-.505.564-.796.82l-.011.011c-.341.297-.689.576-1.042.845-.032.024-.061.052-.093.075l-.087.061a19.1 19.1 0 0 1-6.25 3.087q-1.376.39-2.834.592a4 4 0 0 1-.744.019c-.021-.001-.034-.009-.054-.011a2.3 2.3 0 0 1-.599-.119c-.094-.034-.158-.096-.236-.144-.079-.049-.171-.087-.235-.151q-.02-.022-.039-.046a1.2 1.2 0 0 1-.248-.432q-.01-.035-.017-.071a2 2 0 0 1-.07-.626c.074-2.084-.642-3.907-1.758-5.618-.121-.195-.204-.417-.334-.668l-.001-.002c2.809-1.674 5.525-3.367 7.823-5.609h.001l.146-.021q.192-.024.374-.053.459-.061.901-.163c.916-.212 1.773-.571 2.54-1.176.847-.67 1.674-1.377 2.288-2.279.394-.572.795-1.138 1.183-1.711q.491-.73.936-1.491c.048-.082.104-.158.151-.24C-.499-12.239.379-14.126.987-16.115q.232-.765.406-1.552c.02-.087.049-.17.067-.257.047-.185.149-.362.241-.593l.001-.002c.539.16 1.058.312 1.576.464l1.243.364c.088.068.146.146.207.222.05.062.097.123.133.189q.028.053.051.106c.128.285.174.59.241.878.037.156.048.313.08.469.073.367.139.733.185 1.1.03.242.05.485.069.728q.038.489.045.979c.003.22.011.439.005.659a17 17 0 0 1-.104 1.537q-.111.975-.326 1.95c-.27 1.228-.67 2.41-1.303 3.489-.026.045-.061.086-.088.132-.061.099-.129.194-.195.29-.228.332-.477.65-.76.934l-.017.02c-.05.051-.105.08-.157.121-.168.132-.345.228-.536.244-.251.021-.521-.067-.804-.29-.14-.345-.307-.726-.475-1.098a6 6 0 0 0-.511-.885c-.08-.116-.157-.234-.246-.343l-.08-.093a5 5 0 0 0-.321-.331q-.105-.104-.217-.203a5 5 0 0 0-.532-.396.6.6 0 0 0-.281-.059c-.093-.004-.193-.003-.305-.015l.001.003c.055.23.046.369.111.452.058.078.096.162.15.241.137.199.268.4.38.608q.083.155.156.313.137.291.249.591.1.267.184.539c.067.224.134.448.187.677q.136.592.219 1.198.081.585.128 1.175c.011.15.024.3.028.45q.003.084.004.169.002.362-.041.722Q.02-.109 0 0" clip-path="url(#j)" style="fill:#ba3022;fill-opacity:1;fill-rule:nonzero;stroke:none" transform="matrix(1.33333 0 0 -1.33333 178.66 83.908)"/><path d="M0 0q.028-.111.051-.217c.022-.097.046-.198.062-.288q.045-.239.066-.444c.003-.031.002-.057.004-.087q.013-.17.007-.322-.003-.065-.01-.126a2 2 0 0 0-.061-.347q-.02-.063-.044-.124a1.7 1.7 0 0 0-.234-.439l-.005.002c-.074.035-.172.055-.199.109-.121.261-.223.54-.326.8A9.2 9.2 0 0 1-2.136.98a7 7 0 0 1-1.803 1.534c-.309.183-.63.354-.982.496a8 8 0 0 1-.777.25 6.8 6.8 0 0 1-3.067.14c-.102-.019-.202-.023-.304-.046a39 39 0 0 1-1.593-.397c-.869-.239-1.719-.531-2.519-.989v-.002c-.019-.38-.055-.705-.055-1.03 0-.057-.014-.108-.015-.164a6 6 0 0 0-.061-.684q-.02-.143-.047-.282a5.5 5.5 0 0 0-.212-.769q-.033-.087-.069-.173a6 6 0 0 0-.262-.561 7 7 0 0 0-.238-.421 8 8 0 0 0-.362-.546c-.02-.027-.035-.057-.055-.084-.02-.026-.044-.045-.063-.071-.36-.469-.744-.906-1.163-1.305l-.027-.027a11 11 0 0 0-1.454-1.155c-.939-.614-1.86-1.246-2.781-1.888-.063-.044-.118-.1-.177-.151-.175-.151-.341-.318-.507-.477l-.005-.005a.8.8 0 0 1 .43-.036c.07.012.14.023.203.046 3.892 1.442 7.93 2.165 12.038 2.512.291.025.581.053.872.074 3.544.251 7.06.028 10.521-.837 2.185-.549 4.241-1.433 6.269-2.4q.418-.196.834-.385c.315-.144.626-.285.922-.424l.002-.001.068.058q.204.166.348.293l.089.085c.055.051.1.1.144.147a2 2 0 0 1 .231.31c.079.134.152.283.236.493.605 1.507.725 3.079.549 4.66-.149 1.34-.791 2.41-1.963 3.182-.356.235-.723.441-1.089.646q-.588.327-1.193.606a20 20 0 0 1-3.876 1.343c-.159.038-.319.049-.479.078-.662.118-1.328.179-1.995.126a9 9 0 0 1-1.089-.166C.663 2.439.02 2.201-.54 1.745v-.001A25 25 0 0 0-.116.429Q-.051.203 0 0" clip-path="url(#k)" style="fill:#ba3022;fill-opacity:1;fill-rule:nonzero;stroke:none" transform="matrix(1.33333 0 0 -1.33333 136.667 66.962)"/><path d="M0 0c.01-.157.009-.312.023-.47.028-.268.12-.528.203-.924l.001-.007c.145.098.266.175.386.252.188.121.36.234.507.353C2.219.054 3.311.907 4.404 1.76q.621.485 1.246.969l.154.122c.195.159.399.305.614.421.052.028.1.068.153.09.122.05.23.12.346.18.612.313 1.155.724 1.699 1.148l.139.107.023.017c.227.175.456.348.695.51.037.447.065.856.13 1.265.093.568.149 1.154.326 1.703.053.165.127.327.203.489q.042.095.091.19.126.236.284.459.024.039.05.076.2.27.445.506l.036.032q.22.203.473.372.047.034.096.065.26.163.552.279c.056.023.113.039.17.059q.235.079.487.126c.064.012.124.028.189.036.205.027.421.03.642.02q.129-.007.262-.022a4.4 4.4 0 0 0 .62-.116c.043-.011.082-.01.125-.023q.147-.04.304-.071c.147-.031.305-.062.505-.105.251.52.447.93.642 1.339.607 1.305 1.397 2.466 2.396 3.454.41.406.846.79 1.334 1.132.464.324.947.611 1.437.887q.93.523 1.902.982c1.466.697 2.917 1.425 4.372 2.142 1.148.565 2.302 1.116 3.451 1.69.921.456 1.832.959 2.725 1.498 1.805 1.088 3.6 2.204 5.386 3.33a17.5 17.5 0 0 0 4.158 1.888q.44.134.883.236c1.659.385 3.322.403 5.004-.087 1.193-.356 2.198-.915 2.826-1.895a4.1 4.1 0 0 0 .494-1.125l.001-.003a.8.8 0 0 1 .111-.195q.042-.055.075-.112c.319.118.615.238.914.358.547.217 1.081.424 1.616.563.819.214 1.684.279 2.549.418a1.7 1.7 0 0 1-.1.514l-.025.063a2 2 0 0 1-.149.316q-.047.082-.099.16a9 9 0 0 1-.251.352l-.38.514q-.29.393-.582.784l-.451.609c-2.27 3.041-4.753 5.897-7.6 8.418-2.819 2.502-6.002 4.127-9.593 4.844-.829.166-1.672.298-2.545.365-3.888.288-7.627-.224-11.264-1.582a10 10 0 0 1-2.623-1.449q-.339-.256-.661-.541a15.6 15.6 0 0 1-2.864-3.442c-1.359-2.242-2.168-4.66-2.558-7.246-.007-.043-.019-.085-.026-.128q-.146-.93-.367-1.833-.035-.154-.075-.308a21 21 0 0 0-.579-1.894l-.067-.172a20 20 0 0 0-.802-1.892 21 21 0 0 0-1.005-1.81c-.02-.033-.035-.068-.056-.102a24 24 0 0 0-.978-1.439 26 26 0 0 0-1.835-2.206 30 30 0 0 0-1.661-1.684c-2.27-2.112-4.223-4.484-5.962-7.032a16 16 0 0 1-.836-1.381C.405 5.504-.171 2.848 0 0" clip-path="url(#l)" style="fill:#ba3022;fill-opacity:1;fill-rule:nonzero;stroke:none" transform="matrix(1.33333 0 0 -1.33333 30.04 84.335)"/><path d="M0 0c.205-.223.4-.502.651-.698 1.144-.902 2.27-1.823 3.47-2.641a51 51 0 0 1 2.122-1.35c2.552-1.55 5.219-2.899 7.914-4.185a16 16 0 0 1 .835-.374c.257-.105.518-.202.784-.277.622-.186 1.254-.464 1.997-.186h.002c.251 1.228.382 2.521 1.005 3.674.043.08.097.15.143.227a8.4 8.4 0 0 0 .856 1.194c.323.38.663.732 1.008 1.066.131.127.262.256.393.378-.047.744-.121 1.358-.131 1.981-.01.484-.002.97.007 1.456l.001.129c.007.387.015.774.011 1.159 0 .366.051.747-.085 1.094a1 1 0 0 1-.077.159c-.014.022-.018.046-.033.068-1.777.586-3.535 1.2-5.07 2.307-.239.17-.534.27-.833.367-.142.046-.285.091-.422.145-1.041-.96-2.139-1.1-3.254-.841-.43.099-.862.253-1.295.45a8 8 0 0 0-.736.388q-.124.068-.248.14c-.216.129-.432.26-.653.383-.216.12-.433.237-.643.35l-.389.209c-.032-.02-.081-.057-.122-.086a5 5 0 0 1-.194-.142L6.83 6.4c-.138-.111-.29-.235-.462-.38l-.027-.022a59 59 0 0 1-.669-.577l-.124-.109q-.346-.304-.72-.639l-.173-.156-.528-.479C2.355 2.419.455.589 0 0" clip-path="url(#m)" style="fill:#ba3022;fill-opacity:1;fill-rule:nonzero;stroke:none" transform="matrix(1.33333 0 0 -1.33333 40.415 105.922)"/><path d="M0 0c-.265-.143-.552-.232-.74-.409C-2.052-1.732-2.953-3.3-3.331-5.135c-.1-.478-.078-.99-.045-1.479a2.5 2.5 0 0 1 .768-1.657c.255-.244.6-.456.934-.556a.9.9 0 0 1 .408-.034c.395.057.712.378.77.813.034.289.022.589.011.867-.044.623-.089 1.245-.111 1.868-.044 1.29.122 2.546.489 3.792.134.445.423.923.112 1.523z" clip-path="url(#n)" style="fill:#fff;fill-opacity:1;fill-rule:nonzero;stroke:none" transform="matrix(1.33333 0 0 -1.33333 9.923 113.79)"/><path d="M0 0q.064.069.121.15C.139.176.16.196.179.222L.18.225c.026.027.028.074.081.189l.001.003L.16.816c-.038.145-.073.29-.112.443q-.067.259-.13.525c-.019.081-.028.163-.045.245a10 10 0 0 0-.211 1.462q-.028.32-.048.638l-.034.61q-.022.5-.052.998c-.008.104-.035.209-.062.315-.042.162-.093.33-.143.532l-.005-.003c-.388-.222-.685-.361-.944-.555a25 25 0 0 1-.603-.463 13 13 0 0 1-.848-.719c-.099-.092-.188-.193-.286-.288a21 21 0 0 1-.466-.47 23 23 0 0 1-1.353-1.504l-.235-.281a37 37 0 0 1-1.92-2.638 20 20 0 0 1-1.659-3.014c-.724-1.63-1.233-3.346-1.577-5.125l-.029-.139-.016-.078-.049-.24-.019-.144q-.012-.086-.018-.173c-.01-.199.014-.401.111-.611.053.009.079.011.111.015.062.008.103.013.122.031 1.109 1.09 2.214 2.187 3.322 3.28q.395.388.792.775.65.636 1.306 1.267a136 136 0 0 0 2.442 2.284A80 80 0 0 0-.054-.067C-.032-.05-.019-.021 0 0" clip-path="url(#o)" style="fill:#ba3022;fill-opacity:1;fill-rule:nonzero;stroke:none" transform="matrix(1.33333 0 0 -1.33333 26 89.995)"/><path d="M0 0q.713.633 1.4 1.29c.169.161.332.327.499.491q.285.283.566.572.736.755 1.429 1.55c.092.106.187.208.278.315.548.646 1.08 1.308 1.576 2.005.819 1.144 1.712 2.251 2.558 3.376.168.223.289.475.465.763-.221.098-.39.18-.555.249l-.068.03q-.441.17-.886.337c-1.142.435-2.29.86-3.42 1.319-.527.214-1.048.442-1.573.66a216 216 0 0 0-14.827 6.798c-1.125.571-2.252 1.137-3.366 1.732-3.404 1.823-6.865 3.553-10.111 5.664-.255.163-.511.361-.847.407a1.1 1.1 0 0 1-.344-.007c.019-.288.019-.567.047-.846.066-.516.151-1.032.225-1.548q.061-.42.096-.841c.005-.069.019-.138.023-.206.048-.934.061-1.868.058-2.802 0-.101-.004-.203-.004-.305a62 62 0 0 0-.12-3.403 77 77 0 0 0-.222-2.829 153 153 0 0 1-.419-5.469c-.037-.661 0-1.331.075-1.991.39-3.265 1.441-6.297 3.116-9.134.056-.096.122-.183.181-.278q.37-.6.797-1.154.172-.225.352-.443a17.6 17.6 0 0 1 2.148-2.171l.001-.001c.043-.037.094-.06.138-.096a7.2 7.2 0 0 1 2.01-1.14c.066-.025.132-.043.198-.066a11.35 11.35 0 0 1 4.443-.654c.901.044 1.807.182 2.717.403a14 14 0 0 1 1.585.502c1.931.735 3.66 1.868 5.298 3.154C-2.948-2.567-1.46-1.293 0 0" clip-path="url(#p)" style="fill:#ba3022;fill-opacity:1;fill-rule:nonzero;stroke:none" transform="matrix(1.33333 0 0 -1.33333 64.45 190.466)"/><path d="M0 0c-.046 1.269-.117 2.54-.133 3.812-.028 2.334-.186 4.65-.549 6.957-.456 2.828-.874 5.665-1.73 8.418-.763 2.465-1.507 4.93-2.26 7.395-.093.307-.233.604-.372.948h-.002c-.38-.065-.706-.102-1.022-.186a21.5 21.5 0 0 0-6.287-.716c-1.414.056-2.828.112-4.233.288-2.018.242-4.037.54-6.036.912-2.623.493-5.098 1.516-7.609 2.381-.779.27-1.541.566-2.292.878-.196.081-.388.17-.583.254a40 40 0 0 0-1.994.918c-.66.33-1.304.685-1.941 1.049a40 40 0 0 0-2.962 1.879 40 40 0 0 0-3.428 2.659c-.204.177-.403.362-.604.543a44 44 0 0 0-1.224 1.143c-.134.131-.27.259-.402.392a45 45 0 0 0-1.676 1.763c-.172.203-.369.405-.599.642l-.163.168c-.161-.111-.284-.19-.394-.264a2 2 0 0 1-.211-.155l-.82-.711a821 821 0 0 1-2.701-2.341c-.363-.317-.731-.628-1.092-.948-.035-.031-.067-.067-.102-.099a14 14 0 0 1-.621-.606l-.049-.051a9 9 0 0 1-.67-.797c-1.591-2.177-3.2-4.353-4.716-6.595a44 44 0 0 0-1.807-2.468q-.19-.242-.383-.481a35 35 0 0 0-1.913-2.203 32 32 0 0 0-1.701-1.666c-.809-.725-1.609-1.451-2.437-2.148-.013-.011-.021-.025-.034-.037-.434-.374-.736-.816-.989-1.34a38 38 0 0 1-.876-2.007l-.069-.175a50 50 0 0 1-.615-1.632q-.136-.378-.267-.757a77 77 0 0 1-.973-3.04c-.083-.275-.17-.549-.251-.826-.865-2.883-.93-5.822-.158-8.743.113-.429.252-.837.396-1.239q.089-.25.185-.493.193-.483.416-.938.115-.231.237-.456a11.7 11.7 0 0 1 1.306-1.927q.26-.31.542-.598c.16-.166.32-.33.49-.486.23-.21.475-.406.724-.599.166-.129.326-.261.5-.382.279-.193.579-.367.88-.54.174-.1.338-.21.52-.303.379-.194.783-.365 1.195-.529.119-.048.226-.106.348-.151q.446-.156.889-.304l.524-.18c.365-.118.735-.203 1.103-.295a26 26 0 0 1 2.67-.517c1.028-.146 2.061-.259 3.092-.388 2.069-.265 4.146-.497 6.197-.85l.1-.015.016-.003a33 33 0 0 0 1.745-.353q.22-.052.438-.106.703-.17 1.393-.369l.354-.101q1.744-.526 3.415-1.227l.276-.119q.693-.296 1.372-.622l.359-.171q.69-.34 1.368-.706a44 44 0 0 0 3.509-2.115l.052-.033c1.479-.995 2.92-2.055 4.362-3.116a85 85 0 0 1 3.569-2.457c1.608-1.049 3.255-2.038 4.97-2.919 2.442-1.247 5.019-1.972 7.686-2.258a25 25 0 0 1 2.164-.142c2.316-.046 4.409.623 6.148 2.279 1.237 1.172 2.186 2.539 2.791 4.083.911 2.326 1.786 4.67 2.465 7.06C-.31-9.127-.087-5.955.025-2.793c.028.835.011 1.671-.016 2.508z" clip-path="url(#q)" style="fill:#ba3022;fill-opacity:1;fill-rule:nonzero;stroke:none" transform="matrix(1.33333 0 0 -1.33333 156.638 223.961)"/><path d="M0 0q0 .16-.008.32c-.005.157-.006.313-.02.471-.007.085-.021.17-.031.255-.019.174-.035.348-.063.523-.13.865-.297 1.721-.437 2.586-.279 1.74-.837 3.377-1.879 4.93l-.965.224c-.516.121-1.022.242-1.518.381-.635.183-1.253.406-1.865.645a28 28 0 0 0-3.614 1.726l-3.278 2.281q.175-.553.355-1.093l2.316-6.229 2.609.652-.022.048.009.002 4.894-12.419v-.001l-.043-.02-.001.001v.004l-2.078-.731.068-.227.828-2.011s.794.171 1.277.44l.005.003c.226.143.431.3.627.464q.1.087.196.177a5.4 5.4 0 0 1 1.089 1.402c.067.124.135.248.195.378.018.041.043.077.06.118.074.171.132.349.199.522.083.215.169.43.246.648.193.546.376 1.097.56 1.648q.14.435.211.873c.009.056.009.112.016.169Q-.005-.421 0 0" clip-path="url(#r)" style="fill:#ba3022;fill-opacity:1;fill-rule:nonzero;stroke:none" transform="matrix(1.33333 0 0 -1.33333 223.01 220.203)"/><path d="M0 0c.017-.081.034-.162.061-.245.809-2.521 1.637-5.041 2.623-7.516 1.187-2.979 2.733-5.722 4.577-8.273l.119-.162a45 45 0 0 1 3.599-4.325l.002-.001.019-.017 1.015-1.022a293 293 0 0 0-1.164 6.891c-.011.073-.03.154-.042.229a40 40 0 0 1-1.391 4.979C8.056-5.768 6.111-1.94 4.939.248 3.859.557 3.284 1.492 3.022 2.08H.665c-.214-.418-.353-.725-.52-1.004C.106 1.011.086.946.059.881.042.836.016.791.003.747-.006.715-.005.682-.012.65A1.4 1.4 0 0 1-.026.129Q-.016.065 0 0" clip-path="url(#s)" style="fill:#ba3022;fill-opacity:1;fill-rule:nonzero;stroke:none" transform="matrix(1.33333 0 0 -1.33333 182.25 160.66)"/><path d="M0 0q-.045.221-.099.441-.14.555-.325 1.102c-.02.058-.031.118-.052.176a29 29 0 0 1-4.26 7.869c-1.196 1.559-2.593 2.886-4.253 3.907-.469.289-.952.564-1.467.8-.782.361-1.586.649-2.4.905q-.914.287-1.842.536c-.158.05-.322.079-.484.105q-.172.025-.334.054l-.318-.239c-.385-.29-.752-.569-1.124-.831a18 18 0 0 0-1.636-1.039c-2.342-1.332-4.892-2.088-7.629-2.328a98 98 0 0 0-3.917-.243l-1.552-.074c-2.502-.13-4.865-.707-6.929-2.176a45 45 0 0 1-1.611-1.22l-.119-.093c-.518-.409-1.04-.826-1.582-1.245l.001-.002c.167-1.283.325-2.473.483-3.663.023-.173.029-.347.048-.521a27 27 0 0 0 .154-1.966q.016-.365.025-.728c.044-1.546.022-3.092.033-4.635l-.001-.049a34 34 0 0 0-.031-1.668c-.004-.12-.013-.24-.019-.36a47 47 0 0 0-.21-2.641q-.074-.717-.163-1.431-.032-.264-.066-.526l-.068-.534a18 18 0 0 0-.237-1.313l-.007-.034a12 12 0 0 0-.658-2.141c-.955-2.24-2.466-3.851-4.884-4.474-.046-.472-.174-1.066-.489-1.584 1.413-3.178 5.249-12.305 6.771-20.846.532-2.702.728-4.454.728-4.454.039-.385.105-.802.181-1.23.931-.864 3.987-3.592 6.667-4.788l-.005.018a23 23 0 0 1 3.588-1.681c2.101-.75 4.306-.98 6.502-.764.254.025.509.029.762.067q.626.093 1.218.239c.084.02.162.047.244.069q.459.12.893.274.16.06.317.125.384.15.751.329a10 10 0 0 1 1.31.784q.315.228.611.485c.093.08.189.157.279.242.207.193.403.404.595.62.067.076.139.146.204.225.292.353.559.741.81 1.153.192.315.378.638.545.989 1.348 2.828 2.083 5.814 2.13 8.902.055 2.948-.186 5.897-.391 8.846-.13 1.971-.019 3.888.549 5.794.074.251.182.482.273.723.398 1.05.934 2.016 1.566 2.929.399.578.819 1.144 1.268 1.697 1.544 1.906 3.088 3.823 4.529 5.804l.041.06c.453.619.88 1.257 1.303 1.898q.322.484.634.974c.105.165.205.331.309.497.305.49.616.978.913 1.473.045.074.075.154.119.229.222.388.433.781.611 1.184l.028.064c.181.416.332.841.474 1.27.036.11.076.218.11.329q.177.583.317 1.179.091.38.171.765l.05.254c.056.279.118.555.166.837.193 1.132.189 2.239.047 3.33Q.103-.482 0 0" clip-path="url(#t)" style="fill:#ba3022;fill-opacity:1;fill-rule:nonzero;stroke:none" transform="matrix(1.33333 0 0 -1.33333 256.807 129.768)"/><path d="M0 0a17 17 0 0 0-1.011-1.785A18 18 0 0 0-2.24-3.454c-.287-.348-.57-.699-.884-1.032a51 51 0 0 1-2.307-2.623 10.05 10.05 0 0 1-1.935-3.74c-.055-.185-.065-.39-.102-.612v-.002c1.088-.409 2.13-.809 3.172-1.199 1.042-.4 2.102-.773 3.144-1.2a71 71 0 0 0 3.051-1.405c1.013-.484 2.027-.967 3.023-1.497.431-.228.857-.47 1.282-.714q.82-.473 1.629-.961a64 64 0 0 0 2.837-1.814c.411-.286.812-.585 1.212-.886l.306-.228c.394-.299.786-.6 1.179-.895.702-.526 1.281-1.196 1.942-1.732.181-.146.363-.288.561-.407.085.027.149.043.203.059q.061.016.103.043c.855.694 1.77 1.23 2.728 1.654 1.597.706 3.315 1.101 5.076 1.397.503.084 1 .063 1.484-.055q.242-.059.479-.149l.04-.021a.8.8 0 0 0 .221-.144q.021-.019.04-.039a.5.5 0 0 0 .107-.207l.002-.005a.7.7 0 0 0-.001-.338c-.341-.105-.699-.204-1.054-.304-.65-.183-1.307-.373-1.95-.626-1.042-.4-2.046-.902-3.042-1.423-.475-.252-.948-.51-1.39-.823a5.4 5.4 0 0 1-1.205-1.14c.27-.39.521-.772.782-1.144 1.069-1.544 1.888-3.19 2.278-5.069.782-3.758 1.145-7.553 1.405-11.367l.363-5.618c.062-.041.132-.098.208-.146.027-.017.051-.037.08-.049a7.1 7.1 0 0 0 2.533-1.718c.685-.715 1.242-1.558 1.718-2.477.539-1.033 1.032-2.093 1.553-3.135.103-.204.242-.4.354-.595.149.046.241.056.297.102.149.138.289.276.435.414.247.234.497.468.737.702.517.502 1.058.951 1.618 1.357 1.89 1.372 4.031 2.204 6.456 2.448h.001l.319.032c1.549.154 3.098.295 4.638.461q.615.059 1.229.125c.544.061 1.086.131 1.617.238.04.008.077.021.117.03a17 17 0 0 1 1.894.513q.664.218 1.292.486c.067.029.137.053.204.083.467.207.916.44 1.355.688q.197.114.39.232.494.297.963.628c.119.084.241.163.358.25q.56.418 1.087.884c.158.139.311.287.465.433q.298.282.585.579c.188.196.377.391.559.596q.367.413.716.852c.446.559.876 1.137 1.279 1.754.244.374.455.759.653 1.149q.078.153.152.307c.885 1.864 1.322 3.884 1.623 5.948.012.084.011.166.021.249a13 13 0 0 1 .068 2.537c-.015.203-.028.407-.053.609-.039.314-.099.626-.163.937-.035.168-.06.337-.102.504-.085.338-.199.672-.314 1.007-.046.135-.075.273-.127.408-.028.075-.067.143-.097.217-.084.206-.178.407-.273.607a13 13 0 0 1-.698 1.298 15 15 0 0 1-.682 1.016 20 20 0 0 1-1.171 1.475c-.799.903-1.609 1.796-2.418 2.688l-.067.08a27 27 0 0 0-.968 1.17q-.144.186-.286.373-.464.613-.884 1.252c-1.13 1.731-2.01 3.602-2.576 5.646-.604 2.158-1.153 4.334-1.73 6.501-.04.152-.091.301-.132.452a45 45 0 0 1-.578 1.951 35 35 0 0 1-.702 1.942c-.089.227-.186.45-.28.674q-.297.705-.631 1.392c-.1.206-.197.413-.303.617-.338.65-.695 1.29-1.095 1.911a32 32 0 0 1-2.511 3.374 33.4 33.4 0 0 1-3.795 3.811 37 37 0 0 1-4.121 3.056c-.28.18-.573.325-.862.483a14.7 14.7 0 0 1-4.286 1.533c-.381.074-.76.152-1.149.198-4.213.521-8.38.167-12.51-.791-2.409-.567-4.67-1.469-6.679-2.958-.161-.12-.312-.251-.472-.373a36 36 0 0 1-1.597-1.292c-.203-.174-.395-.36-.593-.539a29 29 0 0 1-2.102-2.108 24 24 0 0 1-.698-.821A23 23 0 0 1 1.34 3.145l-.046-.06c-.036-.053-.061-.113-.093-.169q-.056-.09-.103-.186a3 3 0 0 1-.146-.357c-.022-.06-.049-.121-.067-.181-.012-.039-.031-.075-.044-.114A16 16 0 0 0 .264.558C.181.369.09.185 0 0" clip-path="url(#u)" style="fill:#ba3022;fill-opacity:1;fill-rule:nonzero;stroke:none" transform="matrix(1.33333 0 0 -1.33333 161.63 41.216)"/><path d="M0 0c-.102-.204-.13-.445-.204-.723l-.001-.002c.222-.031.417-.053.603-.074.158-.018.308-.035.458-.057.109-.016.214-.039.321-.06.26-.05.52-.105.776-.144 3.673-.59 7.008-1.93 9.96-4.095.494-.362.981-.742 1.453-1.151a39 39 0 0 0 1.488-1.321 46 46 0 0 0 2.306-2.39c.219-.242.428-.491.642-.737a57 57 0 0 0 2.28-2.782q.467-.606.922-1.224c.403-.549.808-1.097 1.199-1.657.026-.037.048-.076.074-.113.337-.489.649-.989.949-1.497l.118-.201c1.179-2.032 2.117-4.184 3.091-6.316l.324-.698q.162-.35.327-.7c.019-.037.019-.084.028-.121.055-.11.118-.21.165-.302l.002-.005c.279-.214.54-.409.912-.688.949.242 2.037.214 3.079.558.034.098.061.178.095.268.051.135.103.274.142.401.006.021.017.045.023.066a17.7 17.7 0 0 0 1.955 4.221c1.131 1.801 2.551 3.406 4.184 4.866.097.085.207.157.313.233.231.164.474.313.729.428.059.028.109.034.16.043.022.003.047.016.068.016.015 0 .029-.012.044-.014a.35.35 0 0 0 .158-.061c.033-.024.069-.069.103-.107.093-.102.191-.236.313-.445-.091-.127-.196-.27-.292-.405l-.325-.451c-.053-.072-.101-.141-.155-.213-.107-.143-.206-.29-.312-.434-.317-.429-.63-.86-.928-1.3-.206-.301-.398-.611-.594-.918a34 34 0 0 1-.654-1.069 28 28 0 0 1-.882-1.616 27 27 0 0 1-.822-1.748q-.066-.153-.129-.308-.047-.11-.088-.222l-.014-.044a3 3 0 0 1-.09-.331l-.018-.106a2 2 0 0 1-.026-.378c.154-.1.309-.135.463-.152.263-.028.525.016.783.022q1.087.03 2.173.067c1.694.056 3.388.11 5.082.132l.223.005.067-.001c2.684.021 5.341-.329 7.979-.873.511-.104 1.05-.197 1.652-.309l.292-.054c.103.428.186.707.233.986.07.398.167.784.274 1.167q.035.134.074.266c.389 1.28.98 2.472 1.791 3.562.26.35.535.69.81 1.03.096.119.186.24.282.358.31.381.621.762.917 1.152.735.958 1.479 1.906 2.13 2.92.254.402.463.821.651 1.248q.147.328.27.665c.056.154.104.31.153.467q.074.237.137.478c.047.179.094.359.133.541.025.116.044.233.066.35.035.189.079.375.106.567.018.114.016.227.03.34a11 11 0 0 1 .081 1.329q.001.396-.022.789a14 14 0 0 1-.133 1.327 25 25 0 0 1-.29 1.666 18.5 18.5 0 0 1-.697 2.433l-.003.01q-.266.727-.603 1.423l-.044.089q-.33.674-.736 1.314l-.071.106c-.277.425-.574.84-.907 1.238l-.007.009c-.338.401-.691.776-1.049 1.141-.259.265-.529.511-.798.757-.203.185-.401.378-.61.553-.174.145-.356.276-.534.414-.268.207-.536.415-.813.605-.175.121-.355.231-.533.344q-.434.28-.882.53-.277.152-.558.294a17 17 0 0 1-2.495 1.031c-.2.065-.398.134-.602.192-.352.101-.713.185-1.075.266-.191.043-.378.094-.572.131q-.717.134-1.459.218c-.079.01-.155.027-.235.036a70 70 0 0 1-3.424.268c-1.472.085-2.946.143-4.417.206-.555.026-1.106.07-1.654.124-2.436.24-4.799.775-7.062 1.792-.192.086-.388.161-.582.244q-1.026.44-2.059.863c-1.526.604-3.107.893-4.735 1.014a20 20 0 0 1-1.169.039 19.8 19.8 0 0 1-4.895-.541c-4.177-.977-7.906-2.791-10.985-5.823a75 75 0 0 1-.561-.566c-.535-.543-1.07-1.088-1.611-1.623-.067-.066-.133-.136-.2-.202C1.163 2.018.53 1.042 0 0" clip-path="url(#v)" style="fill:#ba3022;fill-opacity:1;fill-rule:nonzero;stroke:none" transform="matrix(1.33333 0 0 -1.33333 77.844 19.405)"/><path d="M0 0c-.878-.233-2.58-.3-3.781-.167-.322.89-.3 1.846-.378 2.78-.278 3.481-.233 6.961-.211 10.452.022 2.469.378 4.86.956 7.25.145.567.367 1.101.567 1.713h3.859s-.122-.634-.178-.968c-.345-1.879-.734-3.747-.99-5.637-.244-1.768-.311-3.547-.456-5.327-.022-.2.034-.4.056-.622C1.19 8.317 3.18 7.661 5.004 6.449 3.402 4.815 1.412 3.914-.345 2.569-.222 1.701-.111.845 0 0m10.463 27.109c-.055-.055-.089-.111-.133-.178-.011-.022-.033-.055-.045-.089-.222-.5-.389-1.011-.644-1.49-.516-.973-1.16-1.384-2.133-1.337a4 4 0 0 0-.436.048c-1.145.2-2.291.322-3.447.389q-1.151.067-2.302.166c-.378.034-.756.056-1.134.089-.367.023-.734.045-1.101.089h-.033c-.067.012-.145.012-.245.023-.111 0-.222.011-.333.022-1.135.089-3.358.189-5.493.055a13 13 0 0 1-1.29-.143l-.011-.001c-.234-.033-.456-.078-.623-.111a2 2 0 0 1-.311-.078c-.011 0-.023-.011-.034-.011l-.013-.006c-.194-.076-.423-.185-.483-.396l-.004-.01-.001-.007c-.145-.632.633-.823 1.196-.967l.017-.004c.078-.022.144-.034.211-.056.4-.111.812-.2 1.212-.289.356-.067.712-.144 1.068-.245l.355-.066.001-.001c.01-.01.011-.01.022-.01l1.39-.301-.267-.822a33 33 0 0 1-.645-2.347 54 54 0 0 1-.901-4.792c-.09-.618-.169-1.244-.249-1.864l-.029-.215c-.067-.49-.122-.968-.189-1.457-.478-3.881 0-7.717.189-11.664-.467-.223-.945-.467-1.434-.668-2.358-.945-4.103-2.646-5.571-4.659-.211-.3-.367-.645-.512-.989v-.022l-.001-.012c-.02-.094-.013-.313.15-.362q.002 0 .004-.003l.003-.002c.289-.077.445.29.601.467 1.534 1.735 3.491 2.78 5.659 3.47 1.713.556 3.447.967 5.226 1.19q.694.083 1.375.11c3.173.125 6.107-.691 8.744-2.657.366-.266.743-.521 1.087-.754l.003-.002c.511.311.545.79.645 1.223.5 2.102.878 4.237 1.201 6.36.489 3.225.689 6.45.333 9.686-.122 1.067-.322 2.134-.522 3.202-.356 2.035-.734 4.081-1.101 6.116-.045.233-.045.467-.089.722 1.534.312 2.068 1.368 2.291 2.68.011.078.033.167.033.245.156 1.045.167 2.057-.456 2.791-.273.327-.576.192-.787-.044z" clip-path="url(#w)" style="fill:#231f20;fill-opacity:1;fill-rule:nonzero;stroke:none" transform="matrix(1.33333 0 0 -1.33333 124.149 132.009)"/><path d="M0 0c-.022.222-.078.423-.056.623C.089 2.402.156 4.181.4 5.949c.256 1.89.645 3.758.99 5.637.056.334.178.968.178.968h-3.859c-.2-.612-.422-1.145-.567-1.713-.578-2.39-.934-4.781-.956-7.249C-3.836.1-3.881-3.38-3.603-6.861c.078-.934.056-1.89.378-2.78 1.201-.133 2.903-.066 3.781.167-.111.845-.222 1.702-.345 2.569C1.968-5.56 3.958-4.659 5.56-3.025 3.736-1.812 1.746-1.156 0 0" clip-path="url(#x)" style="fill:#fff;fill-opacity:1;fill-rule:nonzero;stroke:none" transform="matrix(1.33333 0 0 -1.33333 123.407 119.377)"/><path d="M0 0c-.014-.462-.037-.963.155-1.461q.01-.03.023-.061c.069-.162.159-.324.285-.483l.002-.004c.558.66.754 1.339 1.005 1.99.206.553.455 1.081.714 1.603.076.154.149.31.23.461.285.54.587 1.072.916 1.592a3.5 3.5 0 0 0 .532.658c.177.168.371.302.574.417.05.028.102.05.153.075q.254.123.535.199.075.023.154.041c.24.051.491.085.759.089l.853.004q1.254.005 2.514.014h.874c.769.018 1.536.047 2.302.062.477.009.954.019 1.428-.006 2.1-.103 4.206-.159 6.304-.338.55-.047 1.1-.096 1.649-.164.66-.084 1.33-.056 2-.056.305 0 .606.039.861.179a1 1 0 0 1 .339.286c.167.707-.112 1.154-.735 1.414q-.201.08-.402.157-.204.081-.407.159c-2.512.968-5.153 1.265-7.814 1.414-.737.043-1.475.059-2.212.077-1.171.027-2.342.043-3.517.072-1.451.037-2.902.084-4.363.102-.106.002-.199-.025-.302-.031-.229-.012-.459-.024-.672-.069-.133-.027-.255-.079-.382-.119-.169-.053-.339-.106-.498-.18-.145-.067-.281-.154-.418-.238a4 4 0 0 1-.356-.236 5 5 0 0 1-.43-.372c-.169-.16-.34-.315-.495-.503C.567 4.772.056 2.446 0 0" clip-path="url(#y)" style="fill:#231f20;fill-opacity:1;fill-rule:nonzero;stroke:none" transform="matrix(1.33333 0 0 -1.33333 104.67 98.046)"/><path d="M0 0c.345.545 1.056.434 1.245-.178.134-.378.201-.823.145-1.212-.111-.923-.6-1.701-1.245-2.357-.078-.078-.223-.089-.345-.123-.567.223-.667.701-.678 1.212C-.901-1.668-.5-.801 0 0m-6.483-8.217q.25-.601.968-1.034c.845-.512 1.768-.712 2.757-.668 1.846-.033 3.481.534 4.871 1.802.133.111.244.233.367.367.6.634 1.045 1.356 1.412 2.124.144.3.289.611.411.934.067.155.123.322.167.478.245.8.267 1.623.122 2.457C4.37-.311 3.558.801 2.313 1.468c-1.257.656-2.313.478-3.08-.312A3.6 3.6 0 0 1-1.468.111c-.155-.333-.2-.723-.344-1.067-.123-.312-.234-.623-.367-.934-.123-.301-.245-.612-.401-.901-.222-.445-.489-.867-.845-1.223a4 4 0 0 0-.367-.345 1.4 1.4 0 0 0-.155-.111 8 8 0 0 0-.701-.489 24 24 0 0 0-.889-.545 2.8 2.8 0 0 1-.534-.389 1.7 1.7 0 0 1-.501-.934c-.1-.534-.077-.99.089-1.39" clip-path="url(#z)" style="fill:#231f20;fill-opacity:1;fill-rule:nonzero;stroke:none" transform="matrix(1.33333 0 0 -1.33333 148.1 138.636)"/><path d="M0 0c.122.033.267.045.345.122C.99.778 1.479 1.557 1.59 2.48c.056.389-.011.834-.145 1.212-.189.611-.9.722-1.245.178-.5-.801-.901-1.668-.878-2.658C-.667.701-.567.222 0 0" clip-path="url(#A)" style="fill:#fff;fill-opacity:1;fill-rule:nonzero;stroke:none" transform="matrix(1.33333 0 0 -1.33333 147.833 143.796)"/><path d="M0 0c-1.367.168-2.733.277-4.1.193A13 13 0 0 1-5.218.084 60 60 0 0 1-7.11-.224a44 44 0 0 1-5.614-1.366c-.624-.196-1.228-.466-1.824-.754-.15-.072-.273-.205-.398-.348-.069-.079-.136-.159-.215-.238l.001-.001c.502-.464.994-.371 1.477-.287 1.13.199 2.259.421 3.388.612.294.05.588.108.882.15.356.05.713.085 1.07.128q.786.094 1.573.164c.52.045 1.041.09 1.561.118.986.056 1.991-.056 2.986-.056 1.599.009 3.207.012 4.816.089l.14.004h.003c.609.032 1.222.184 1.826.341l.349.087c.326.084.595.307.437.8-.175.04-.375.089-.573.127-.034.007-.063.016-.096.022C3.116-.419 1.563-.186 0 0" clip-path="url(#B)" style="fill:#231f20;fill-opacity:1;fill-rule:nonzero;stroke:none" transform="matrix(1.33333 0 0 -1.33333 152.318 156.076)"/><path d="M0 0a.95.95 0 0 1-.391.4q-.601.351-1.234.432A2.7 2.7 0 0 1-2.862.69C-2.91.673-2.957.67-3.005.651L-3.007.65l-.004-.002a16.4 16.4 0 0 1-3.361-1.83v-.001c-.046-.028-.029-.147-.056-.302v-.004c.195 0 .409-.055.558.01.868.423 1.766.611 2.681.676q1.01.072 2.044-.034c.155-.016.311-.041.469-.049a1 1 0 0 1 .685.197c.088.257.09.469.018.647C.021-.026.007-.015 0 0" clip-path="url(#C)" style="fill:#231f20;fill-opacity:1;fill-rule:nonzero;stroke:none" transform="matrix(1.33333 0 0 -1.33333 150.508 163.343)"/><path d="M0 0a1.613 1.613 0 1 1 0-3.226A1.613 1.613 0 0 1 0 0" clip-path="url(#D)" style="fill:#231f20;fill-opacity:1;fill-rule:nonzero;stroke:none" transform="matrix(1.33333 0 0 -1.33333 118.99 139.015)"/><path d="M0 0a1.24 1.24 0 1 1 0-2.482A1.24 1.24 0 0 1 0 0" clip-path="url(#E)" style="fill:#231f20;fill-opacity:1;fill-rule:nonzero;stroke:none" transform="matrix(1.33333 0 0 -1.33333 126.911 138.25)"/><path d="M0 0a1.722 1.722 0 1 1 0-3.444A1.722 1.722 0 0 1 0 0" clip-path="url(#F)" style="fill:#231f20;fill-opacity:1;fill-rule:nonzero;stroke:none" transform="matrix(1.33333 0 0 -1.33333 124.636 142.882)"/><path d="M0 0a1.568 1.568 0 1 1-.001 3.135A1.568 1.568 0 0 1 0 0" clip-path="url(#G)" style="fill:#231f20;fill-opacity:1;fill-rule:nonzero;stroke:none" transform="matrix(1.33333 0 0 -1.33333 164.821 144.59)"/><path d="M0 0c.191 0 .367.051.528.128A1.2 1.2 0 0 1 .929.44a1.22 1.22 0 0 1 .312.801c0 .409-.211.754-.516.98-.05.037-.099.075-.155.104a1.2 1.2 0 0 1-.57.157A1.241 1.241 0 0 1 0 0" clip-path="url(#H)" style="fill:#231f20;fill-opacity:1;fill-rule:nonzero;stroke:none" transform="matrix(1.33333 0 0 -1.33333 172.329 141.232)"/><path d="M0 0a1.722 1.722 0 1 1 0 3.444A1.722 1.722 0 0 1 0 0" clip-path="url(#I)" style="fill:#231f20;fill-opacity:1;fill-rule:nonzero;stroke:none" transform="matrix(1.33333 0 0 -1.33333 169.822 148.91)"/><path d="M0 0c.208-.123.414-.248.628-.36 1.544-.8 3.181-1.414 4.772-2.111 3.526-1.545 7.058-3.087 10.585-4.643l1.395-.612c.356-.158.709-.322 1.063-.481 2.178-.98 4.344-1.985 6.527-2.961.407-.183.824-.343 1.248-.491q.466-.165.944-.31l.009-.003L28.75-15.9c.122-.389.2-.701.345-.99.623-1.223 1.256-2.435 1.879-3.658.623-1.19 1.601-1.979 2.824-2.524 2.012-.889 4.112-1.234 6.29-1.234h.004c.578 0 1.156.155 1.723.266.112.023.201.189.334.356-.296.168-.582.22-.86.232-.275.012-.543-.015-.808-.009h-.001c-2.279.011-4.436.534-6.493 1.501-.845.4-1.545.967-2.046 1.779-.454.754-.898 1.51-1.344 2.27-.215.508-1.734 4.118-2.108 5.497-.119.439-.311 1.437-.456 2.225-.454 3.831-.904 7.616-1.36 11.383-.205.102-.345.214-.493.242-.379.07-.745.176-1.116.27-2.132.541-4.147 1.418-6.168 2.25a28 28 0 0 0-2.82 1.375c-.284.157-.574.302-.854.467-2.307 1.364-4.485 2.914-6.488 4.691-.484.429-.966.86-1.427 1.318a4 4 0 0 1-.418.335c-.089.066-.179.13-.27.204-.067-.054-.124-.097-.185-.144a7 7 0 0 1-.398-.323l-.041-.035q-.208-.194-.415-.39a900 900 0 0 1-7.398-6.949c-.604-.567-1.097-1.236-1.839-2.08l-.003-.003.332-.225q.216-.146.403-.269C-1.946 1.289-1.002.593 0 0" clip-path="url(#J)" style="fill:#ba3022;fill-opacity:1;fill-rule:nonzero;stroke:none" transform="matrix(1.33333 0 0 -1.33333 28.75 124.864)"/><path d="m0 0 .005-.006-.013-.003-4.959 12.19c.593.202 1.211.408 1.637.577.09.04.177.063.257.084l-1.95 5.815c-.46 1.26-.961 3.282-1.443 5.524-.285.414-.791.751-1.107 1.082-1.553 1.628-3.134 3.227-4.613 4.911a38 38 0 0 0-1.463 1.796q-.214.282-.423.567-.496.67-.957 1.358c-.135.2-.271.399-.4.601a35 35 0 0 0-1.233 2.068 34 34 0 0 0-.938 1.847q-.154.332-.301.667-.33.738-.624 1.492c-.084.215-.17.429-.25.647a35 35 0 0 0-1.292 4.393c-.045.199-.084.4-.126.601a37 37 0 0 0-.393 2.166c-.055.391-.055.809-.381 1.228-.252-.351-.476-.624-.668-.92l-.02-.029a47 47 0 0 0-3.602-4.985 45 45 0 0 0-3.929-4.165 45 45 0 0 0-2.431-2.114c-.359-.289-.731-.553-1.098-.825a29 29 0 0 0-2.151-1.459 25 25 0 0 0-1.23-.699c-1.117-.599-2.271-1.131-3.502-1.528-.083-.028-.167-.067-.252-.106l-.382-.18-.082-.04c.13-.242.214-.428.325-.586a36 36 0 0 0 2.615-4.61q.407-.854.771-1.727.137-.334.269-.669c.228-.578.448-1.16.649-1.749.021-.062.047-.122.068-.184.024-.071.041-.143.065-.214a43 43 0 0 0 .582-1.942q.134-.474.259-.952.241-.951.442-1.911c.422-2.003.726-4.032.912-6.077.196-2.112.261-4.233.335-6.353.038-1.33.065-2.67-.028-3.991-.009-.136-.026-.272-.037-.408-.036-.464-.082-.926-.127-1.389q-.179-1.836-.412-3.653c-.326-2.496-.858-4.941-1.719-7.29a26 26 0 0 0-.828-1.986c-.028-.061-.048-.124-.076-.184-.14-.298-.233-.614-.41-1.079.205-.149.419-.353.67-.493.8-.437 1.581-.921 2.418-1.274.96-.405 1.943-.637 2.944-.761 1.046-.13 2.111-.142 3.186-.104a10 10 0 0 1 4.084 1.014c.319.159.635.327.951.492a31 31 0 0 1 2.109 1.182 36 36 0 0 1 3.566 2.561q1.444 1.167 2.805 2.434a24.5 24.5 0 0 0 4.429 3.267c2.169 1.259 4.506 2.199 6.994 2.862 1.283.345 2.576.661 3.86 1.005.058.016.115.042.171.062l.002-.001.001-.002.912.31a28 28 0 0 0-.77 2.28z" clip-path="url(#K)" style="fill:#ba3022;fill-opacity:1;fill-rule:nonzero;stroke:none" transform="matrix(1.33333 0 0 -1.33333 208.377 229.247)"/></svg>