<svg xmlns="http://www.w3.org/2000/svg" width="325.658" height="334.183" viewBox="0 0 325.658 334.183"><defs><clipPath id="a" clipPathUnits="userSpaceOnUse"><path d="M-369.182 134.32H1376.47v-350.252H-369.182Z"/></clipPath><clipPath id="b" clipPathUnits="userSpaceOnUse"><path d="M-351.634 205.391h1745.652v-350.253H-351.634Z"/></clipPath><clipPath id="c" clipPathUnits="userSpaceOnUse"><path d="M-346.215 151.39h1745.652v-350.252H-346.215Z"/></clipPath><clipPath id="d" clipPathUnits="userSpaceOnUse"><path d="M-373.625 85.555h1745.652v-350.253H-373.625Z"/></clipPath><clipPath id="e" clipPathUnits="userSpaceOnUse"><path d="M-379.029 281.577h1745.652V-68.676H-379.029Z"/></clipPath><clipPath id="f" clipPathUnits="userSpaceOnUse"><path d="M-318.457 118.276h1745.652v-350.253H-318.457Z"/></clipPath><clipPath id="g" clipPathUnits="userSpaceOnUse"><path d="M-447.722 126.252H1297.93v-350.253H-447.722Z"/></clipPath><clipPath id="h" clipPathUnits="userSpaceOnUse"><path d="M-435.518 150.705h1745.652v-350.253H-435.518Z"/></clipPath><clipPath id="i" clipPathUnits="userSpaceOnUse"><path d="M-319.058 65.928h1745.652v-350.253H-319.058Z"/></clipPath><clipPath id="j" clipPathUnits="userSpaceOnUse"><path d="M-403.108 278.084h1745.652V-72.17H-403.108Z"/></clipPath><clipPath id="k" clipPathUnits="userSpaceOnUse"><path d="M-503.81 119.038h1745.652v-350.253H-503.81Z"/></clipPath><clipPath id="l" clipPathUnits="userSpaceOnUse"><path d="M-317.43 213.217h1745.652v-350.254H-317.43Z"/></clipPath><clipPath id="m" clipPathUnits="userSpaceOnUse"><path d="M-521.36 102.701h1745.652v-350.253H-521.36Z"/></clipPath><clipPath id="n" clipPathUnits="userSpaceOnUse"><path d="M-517.202 111.953H1228.45V-238.3H-517.202Z"/></clipPath><clipPath id="o" clipPathUnits="userSpaceOnUse"><path d="M-420.821 225.785H1324.83v-350.253H-420.821Z"/></clipPath><clipPath id="p" clipPathUnits="userSpaceOnUse"><path d="M-369.338 125.055h1745.652v-350.253H-369.338Z"/></clipPath><clipPath id="q" clipPathUnits="userSpaceOnUse"><path d="M-374.655 98.232h1745.652V-252.02H-374.655Z"/></clipPath><clipPath id="r" clipPathUnits="userSpaceOnUse"><path d="M-379.747 124.914h1745.652V-225.34H-379.747Z"/></clipPath><clipPath id="s" clipPathUnits="userSpaceOnUse"><path d="M-356.863 96.534H1388.79V-253.72H-356.863Z"/></clipPath><clipPath id="t" clipPathUnits="userSpaceOnUse"><path d="M-384.794 147.881h1745.652v-350.253H-384.794Z"/></clipPath><clipPath id="u" clipPathUnits="userSpaceOnUse"><path d="M-392.01 122.725h1745.652v-350.253H-392.01Z"/></clipPath><clipPath id="v" clipPathUnits="userSpaceOnUse"><path d="M-370.771 134.44H1374.88v-350.253H-370.771Z"/></clipPath><clipPath id="w" clipPathUnits="userSpaceOnUse"><path d="M-365.897 134.645h1745.652v-350.253H-365.897Z"/></clipPath><clipPath id="x" clipPathUnits="userSpaceOnUse"><path d="M-392.177 125.906h1745.652v-350.253H-392.177Z"/></clipPath><clipPath id="y" clipPathUnits="userSpaceOnUse"><path d="M-369.1 131.947h1745.652v-350.253H-369.1Z"/></clipPath><clipPath id="z" clipPathUnits="userSpaceOnUse"><path d="M-394.371 122.98H1351.28v-350.254H-394.371Z"/></clipPath><clipPath id="A" clipPathUnits="userSpaceOnUse"><path d="M-357.928 102.894h1745.652V-247.36H-357.928Z"/></clipPath><clipPath id="B" clipPathUnits="userSpaceOnUse"><path d="M-384.131 134.841H1361.52v-350.253H-384.131Z"/></clipPath><clipPath id="C" clipPathUnits="userSpaceOnUse"><path d="M-378.8 143.28h1745.653v-350.254H-378.8Z"/></clipPath><clipPath id="D" clipPathUnits="userSpaceOnUse"><path d="M-377.672 101.456H1367.98v-350.253H-377.672Z"/></clipPath><clipPath id="E" clipPathUnits="userSpaceOnUse"><path d="M-378.572 123.497H1367.08v-350.253H-378.572Z"/></clipPath><clipPath id="F" clipPathUnits="userSpaceOnUse"><path d="M-522.024 105.691h1745.652v-350.253H-522.024Z"/></clipPath></defs><path d="M0 0c.01.492.406.886.848.846.445-.041.769-.464.741-.966-.027-.486-.329-.779-.783-.76C.301-.858-.011-.518 0 0m-1.512 2.305c.01.462.353.773.809.734.38-.032.627-.297.621-.666-.007-.457-.36-.779-.808-.736-.378.037-.63.307-.622.668M-4.001.36c.021.469.541.912.995.847.36-.052.685-.436.663-.782-.029-.439-.446-.771-.941-.749-.433.019-.734.307-.717.684m3.614 18.456A51 51 0 0 0 2.021 7.371c.061-.679.17-1.354.24-2.033.045-.437.187-.778.579-1.043C4.46 3.201 5.58 1.683 6.378-.073c.233-.514.513-.748 1.092-.755 3.74-.049 6.91 1.23 9.386 4.055 1.256 1.433 2.237 3.061 2.978 4.825.102.244.204.492.339.718.039.065.195.081.296.079.04-.001.11-.115.11-.177.003-.226.024-.465-.039-.676-.28-.942-.519-1.905-.903-2.805a10.6 10.6 0 0 0-1.302-2.263c-.675-.884-.954-1.891-1.156-2.93a20 20 0 0 1-.346-2.708c-.06-1.04.195-2.016.899-2.89.112.169.174.303.271.401.315.318.669.254.762-.147.059-.254.076-.527.058-.787-.169-2.404-1.741-4.415-4.032-5.13-3.067-.957-5.67-.082-7.929 2.067-.27.257-.482.576-.755.907-.293-.402-.502-.718-.74-1.011-1.258-1.551-2.807-2.638-4.804-3.028-.799-.156-1.587-.112-2.374.031a10.8 10.8 0 0 0-3.606 1.33c-.224.134-.427.306-.628.475-.042.035-.057.143-.037.201.02.057.094.112.157.132.067.023.15.015.223.001 2.334-.443 4.512-.002 6.594 1.102C3.486-7.68 4.864-5.584 4.726-2.615 4.595.206 2.755 2.558.022 3.493c-2.6.89-4.935.296-7.065-1.316-.451-.341-.832-.774-1.246-1.163-.193-.181-.374-.38-.587-.531-.233-.165-.579.028-.563.32.015.259.08.524.17.769.14.383.32.751.602 1.397-.608-.245-.95-.389-1.296-.52-.177-.067-.367-.161-.544-.148a.7.7 0 0 0-.456.243c-.062.078-.028.317.051.407.198.224.428.431.677.598.564.378 1.147.728 1.795 1.135-.179.232-.325.432-.482.623-1.924 2.337-3.326 4.982-4.539 7.733-1.647 3.736-2.791 7.619-3.287 11.681-.254 2.078-.426 4.162.052 6.229.16.694.392 1.396.727 2.022.896 1.673 2.498 2.311 4.333 1.828.938-.246 1.746-.731 2.504-1.311 1.464-1.12 2.625-2.52 3.668-4.024 2.268-3.275 3.829-6.888 5.077-10.649m14.265-11.25c-.124-1.479-.407-3-1.346-4.315-.908-1.272-2.061-2.102-3.711-2.055-1.22.035-1.959.747-2.451 1.751-.479.978-.552 2.013.167 2.899.435.537.61 1.115.719 1.752.109.635.192 1.276.333 1.904.115.515.257 1.033.459 1.519.622 1.49 1.576 1.919 3.338 1.353.743-.239 1.299-.766 1.695-1.449.586-1.013.836-2.107.797-3.359m10.017 3.948c.028.33.404.625.727.569a.704.704 0 0 0 .567-.742c-.035-.371-.339-.606-.714-.552-.334.049-.609.392-.58.725m.565-3.056c-.011-.449-.368-.811-.788-.798a.706.706 0 0 0-.677.754c.021.458.359.798.791.797.392-.001.683-.326.674-.753M2.992 34.32c.144.868.376 1.704.816 2.47.956 1.667 2.54 2.251 4.378 1.635.953-.319 1.763-.873 2.517-1.517 1.367-1.167 2.501-2.536 3.489-4.032 2.665-4.038 4.379-8.471 5.487-13.157.216-.915.405-1.836.622-2.821.75.422 1.332.777 1.94 1.081.298.15.638.238.969.298.285.051.497-.261.366-.53a3.2 3.2 0 0 0-.44-.653c-.186-.221-.407-.412-.694-.698.619-.095 1.102-.145 1.574-.245 2.736-.58 4.805-2.17 6.468-4.344 1.328-1.736 2.334-3.652 2.856-5.776.917-3.731.134-7.068-2.513-9.908-1.12-1.202-2.533-1.77-4.161-1.798-.91-.015-1.833-.018-2.691.336a7.2 7.2 0 0 0-1.374.773c-.291.204-.195.602.153.704.435.127.887.193 1.328.299 1.453.347 2.814.894 3.996 1.833a6.16 6.16 0 0 1 2.243 3.601c1.445 6.681-2.763 11.126-7.623 12.327-1.956.483-3.845.13-5.468-1.197-.976-.797-1.931-1.602-2.302-2.883a.74.74 0 0 0-.258-.356c-.06-.046-.227-.018-.299.038-.079.062-.103.193-.151.294-.195.409-.365.832-.59 1.224-.735 1.275-1.908 1.781-3.324 1.828a1.7 1.7 0 0 1-.454-.029c-.831-.201-1.303.131-1.691.891-2.272 4.442-4.2 9.002-4.978 13.971-.329 2.103-.544 4.214-.191 6.341m18.097-22.875c-.014.439.374.822.877.865.435.038.842-.3.862-.715.021-.432-.385-.904-.813-.943-.466-.043-.911.339-.926.793m-7.17-27.213c-1.293-.751-2.662-.618-3.786.368-.453.398-.862.852-1.259 1.309-.167.193-.271.451-.368.694-.113.282-.232.618.08.828.344.231.543-.083.745-.304 1.065-1.167 2.379-1.731 3.959-1.548.833.097 1.611.404 2.322.861.179.115.362.222.544.334l.148-.192c-.629-.945-1.389-1.772-2.385-2.35M-20.399 30.08c-.085-.753-.131-1.51-.201-2.264-.022-.226-.052-.515-.334-.504-.189.008-.42.158-.548.314-.418.51-.629 1.126-.695 1.775-.1.985-.068 1.966.234 2.925.963 3.064 2.843 5.317 5.846 6.549 1.37.562 2.791.709 4.217.206.347-.122.672-.341.96-.573.104-.084.117-.352.079-.513-.025-.101-.22-.22-.344-.227-.377-.021-.756.009-1.134.019-2.154.138-3.907-.734-5.404-2.197-1.545-1.513-2.433-3.361-2.676-5.51m17.607 12.647c.187.364.353.74.64 1.344-1.43-.107-2.637-.17-3.838-.293-4.783-.492-9.288-1.888-13.448-4.304-6.017-3.494-10.396-8.439-12.93-14.943-2.107-5.411-2.448-11.006-1.483-16.689 1.058-6.225 3.672-11.782 7.484-16.78 9.275-12.161 24.765-18.291 38.72-16.89 4.622.465 9.008 1.734 13.075 4 6.209 3.461 10.847 8.362 13.528 15.001 2.377 5.886 2.633 11.942 1.369 18.115-1.068 5.217-3.288 9.912-6.351 14.235-.702.99-1.363 2.016-2.14 2.944-3.731 4.46-8.286 7.885-13.432 10.548-1.482.766-2.986 1.487-4.549 2.023-.09-.068-.158-.106-.207-.159-.712-.765-.973-.783-1.643-.067q-.893.957-1.763 1.936c-.797.893-1.761 1.554-2.834 2.064-2.726 1.296-5.81.589-7.688-1.767a14.1 14.1 0 0 1-2-3.43c-.101-.245-.189-.497-.307-.734-.136-.271-.293-.59-.657-.513-.363.077-.384.433-.403.736-.015.226-.004.456.026.681.134 1.02.357 2.016.831 2.942" clip-path="url(#a)" style="fill:#d98522;fill-opacity:1;fill-rule:nonzero;stroke:none" transform="matrix(1.33333 0 0 -1.33333 117.704 120.618)"/><path d="M0 0a8.3 8.3 0 0 1 2.591-.823c1.183-.167 2.354-.02 3.516.145 3.006.425 5.998.955 9.01 1.332 3.942.494 7.882.323 11.799-.329 2.678-.445 5.203-1.381 7.68-2.452 3.073-1.327 6.271-2.288 9.46-3.27 1.942-.598 3.925-.785 5.963-.469 4.068.631 7.024 2.816 8.809 6.454.812 1.652 1.267 3.488 1.796 5.267.258.865.341 1.785.148 2.705-.148.705-.238 1.421-.36 2.131-.419 2.438-1.008 4.829-2.006 7.102-2.68 6.103-5.936 11.882-9.831 17.292a58 58 0 0 1-3.323 4.191c-1.624 1.865-3.419 3.554-5.493 4.931-.521.346-.97.441-1.583.235-3.29-1.106-6.675-1.715-10.144-1.919-4.046-.237-8.04.048-11.989.956C9.511 44.98 3.59 47.788-1.77 51.798c-.269.201-.552.381-.974.672.068-.9.136-1.576.167-2.254.125-2.819-.117-5.623-.554-8.397a106 106 0 0 0-2.903-13.106c-1.221-4.204-2.061-8.484-2.109-12.883-.042-3.788.734-7.379 2.655-10.694C-4.17 2.862-2.335 1.175 0 0" clip-path="url(#b)" style="fill:#ba3022;fill-opacity:1;fill-rule:nonzero;stroke:none" transform="matrix(1.33333 0 0 -1.33333 94.307 215.378)"/><path d="M0 0c-.009.586-.132 1.024-.593 1.381-.238.185-.442.415-.658.629-3.503 3.474-6.452 7.359-8.653 11.786-2.696 5.42-4.155 11.14-4.096 17.218.002.222-.029.445-.053.801-.581-.102-1.042-.131-1.47-.267-2.023-.644-4.049-1.284-6.051-1.99-2.54-.896-5.035-1.924-7.593-2.764a36.3 36.3 0 0 1-6.359-2.755 34.4 34.4 0 0 0-4.974-2.25 132 132 0 0 1-4.461-1.718c-1.694-.686-3.314-1.518-4.763-2.648-1.523-1.187-2.753-2.608-3.434-4.447a22.8 22.8 0 0 1-1.166-4.626c-.261-1.786-.101-3.557.106-5.333.299-2.566.695-5.1 1.565-7.558.783-2.209 2.127-3.918 4.052-5.193.63-.417 1.311-.762 1.987-1.104.71-.36 1.443-.675 2.165-1.012 2.713-1.267 4.78-3.211 6.061-5.925a42 42 0 0 0 1.696-4.096c1.319-3.802 3.228-7.279 5.672-10.462.713-.928 1.543-1.774 2.367-2.61 1.421-1.441 3.179-2.317 5.107-2.859a9.24 9.24 0 0 1 4.727-.088c2.516.606 4.55 2.046 6.408 3.757 3.018 2.779 5.322 6.117 7.369 9.641.725 1.249 1.335 2.567 1.637 3.986A982 982 0 0 1-.824-8.026C-.297-5.381.039-2.711 0 0" clip-path="url(#c)" style="fill:#ba3022;fill-opacity:1;fill-rule:nonzero;stroke:none" transform="matrix(1.33333 0 0 -1.33333 87.08 143.378)"/><path d="M0 0c.046-.452.27-.685.738-.668.151.006.303-.019.455-.029 2.308-.148 4.226-1.14 5.831-2.757.418-.422.873-.713 1.431-.874.29-.084.581-.171.865-.275 5.481-1.993 10.403-4.921 14.837-8.713 1.906-1.63 3.833-3.223 5.438-5.165.046-.055.122-.087.232-.162.533.354.983.71 1.481.974 1.677.887 3.372 1.74 5.058 2.609 1.888.973 3.772 1.954 5.664 2.921 3.248 1.66 5.801 4.121 8.001 6.976 1.093 1.418 2.068 2.93 2.612 4.644.585 1.842 1.127 3.708 1.513 5.599.773 3.793-.227 7.134-2.859 9.978a16.6 16.6 0 0 1-5.315 3.85c-1.414.645-2.875 1.187-4.301 1.81-1.772.774-3.546 1.546-5.286 2.388-1.883.911-3.381 2.285-4.566 4.015-.751 1.095-1.523 2.181-2.363 3.207-.596.728-1.24 1.472-2.007 1.995-1.691 1.151-3.458 2.198-5.229 3.225-.649.376-1.387.613-2.106.849-3.255 1.071-6.611 1.309-10.011 1.155-4.059-.184-7.773-3.014-9.022-6.884C.366 28.42-.146 26.13-.24 23.76c-.119-2.958-.246-5.916-.365-8.874a15 15 0 0 1 0-1.138c.113-3.793.219-7.586.354-11.379C-.223 1.578-.081.79 0 0" clip-path="url(#d)" style="fill:#ba3022;fill-opacity:1;fill-rule:nonzero;stroke:none" transform="matrix(1.33333 0 0 -1.33333 123.628 55.597)"/><path d="M0 0c-.175 2.96-.262 5.915.123 8.864.057.44-.019.819-.253 1.189-.833 1.319-1.727 2.583-2.899 3.638-3.211 2.89-6.984 4.505-11.25 5.03q-2.313.287-4.625.593a2 2 0 0 0-.546.143c-.515.235-.7.724-.455 1.224.098.2.233.402.401.544.821.694 1.715 1.243 2.808 1.415 1.567.246 3.104.032 4.639-.254.261-.049.519-.111.78-.162.316-.062.521.039.542.388.01.152.011.304.021.455.38 5.573.393 11.152.337 16.734q0 .227-.007.455c-.009.254-.118.425-.384.483-.185.04-.366.1-.547.157-2.452.77-4.413 2.237-5.759 4.397a19.3 19.3 0 0 0-2.627 6.756c-.43 2.339-.36 4.691.045 7.026.668 3.843 2.59 6.923 5.728 9.245.207.153.405.319.686.541-.647.816-1.261 1.579-1.863 2.35-.419.538-.919.627-1.6.539a83 83 0 0 0-5.888-.575c-2.119-.122-4.152.331-6.072 1.254-1.337.641-1.402.62-2.222-.664-.142-.224-.288-.45-.395-.691-.631-1.421-1.335-2.817-1.86-4.276-2.779-7.733-4.392-15.71-4.739-23.922-.203-4.816-.316-9.638-.393-14.458-.062-3.91.032-7.825.419-11.718.57-5.742 1.292-11.466 2.529-17.111.43-1.965.865-3.928 1.279-5.896.147-.699.122-.707.817-.857.185-.04.374-.066.562-.088 3.016-.36 6.027-.757 9.048-1.062 2.001-.202 4.016-.379 6.023-.376 5.754.01 11.435.694 17.019 2.111.727.184.756.184.742.888C.128-3.793.112-1.894 0 0" clip-path="url(#e)" style="fill:#508783;fill-opacity:1;fill-rule:nonzero;stroke:none" transform="matrix(1.33333 0 0 -1.33333 130.833 316.96)"/><path d="M0 0c1.696.198 3.397.35 5.093.544 1.658.19 3.309.448 4.97.597 1.017.091 2.046.024 3.07.044.749.014.831.099.949.828.115.712.202 1.43.356 2.133q2.937 13.47 14.548 20.91c.445.285.899.559 1.469.912-.247.401-.43.728-.641 1.036-.645.939-1.282 1.883-1.956 2.801-1.958 2.665-3.97 5.287-6.583 7.366-2.465 1.962-4.93 3.925-7.419 5.856-.657.51-1.38.943-2.108 1.349-3.69 2.063-7.714 3.158-11.831 3.917-4.421.815-8.245-.587-11.607-3.414-2.147-1.805-3.884-3.953-5.039-6.528-.543-1.21-1.065-2.435-1.498-3.688-.802-2.324-1.163-4.711-.799-7.174.128-.863.223-1.731.337-2.596.308-2.348.416-4.701-.133-7.021-.357-1.511-.827-2.999-1.32-4.473-.766-2.284-1.257-4.628-1.348-7.022-.131-3.399 1.239-5.515 4.064-6.693a13.2 13.2 0 0 1 4.3-1.005c1.988-.121 3.938.207 5.896.438C-4.819-.598-2.412-.282 0 0" clip-path="url(#f)" style="fill:#ba3022;fill-opacity:1;fill-rule:nonzero;stroke:none" transform="matrix(1.33333 0 0 -1.33333 50.07 99.225)"/><path d="M0 0c-.774 3.636-.763 7.227.892 10.689 1.267 2.65 1.473 5.466 1.103 8.35-.436 3.412-1.546 6.56-3.599 9.35-.818 1.111-1.769 2.079-2.909 2.86-4.744 3.25-9.893 4.01-15.421 2.554a3.93 3.93 0 0 1-2.141-1.377c-2.187-2.676-4.795-4.857-7.873-6.45-2.021-1.047-4.04-2.098-6.084-3.098-2.106-1.03-4.242-2-6.475-3.049.156-.269.31-.527.457-.79.979-1.754 2.004-3.485 2.927-5.269 2.072-4.011 3.452-8.246 3.998-12.744.247-2.041.331-4.082.215-6.134-.023-.414-.039-.798.263-1.175 1.523-1.894 3.064-3.77 4.833-5.445 1.242-1.176 2.508-2.334 3.997-3.188 3.106-1.779 6.362-3.246 9.837-4.117 3.199-.803 6.444-1.421 9.668-2.125a14.7 14.7 0 0 1 4.301-.305c.827.065 1.655.219 2.463.414 1.132.273 1.833 1.045 2.126 2.156.144.546.221 1.116.272 1.681.259 2.867-.116 5.681-.774 8.465C1.387-5.83.624-2.93 0 0" clip-path="url(#g)" style="fill:#ba3022;fill-opacity:1;fill-rule:nonzero;stroke:none" transform="matrix(1.33333 0 0 -1.33333 222.424 109.86)"/><path d="M0 0c-.459.398-.939.771-1.402 1.163-.501.425-1.064.695-1.707.861-3.218.828-6.241 2.145-9.106 3.811a19.7 19.7 0 0 0-2.886 2.019c-2.782 2.373-5.315 4.984-7.343 8.051-.115.174-.286.31-.49.526-2.01-11.826-8.389-20.225-19.271-25.395.327-.224.529-.392.756-.512 3.215-1.703 5.785-4.152 8.008-6.985 3.735-4.758 7.141-9.725 9.736-15.219 1.236-2.617 2.381-5.253 2.894-8.121.096-.538.312-1.025.696-1.408.453-.453.9-.933 1.427-1.287 1.522-1.023 3.235-1.668 4.932-2.326a4.6 4.6 0 0 1 1.785-.284c2.348.089 4.372.954 5.864 2.813a16 16 0 0 1 1.669 2.571c.829 1.578 1.572 3.202 2.338 4.812 1.143 2.403 2.406 4.736 3.893 6.947a23.8 23.8 0 0 0 4.467 4.988c.93.78 1.84 1.586 2.755 2.385 1.936 1.693 3.011 3.852 3.527 6.349.297 1.437.035 2.649-.849 3.843-1.78 2.407-3.872 4.479-6.312 6.193A67 67 0 0 0 0 0" clip-path="url(#h)" style="fill:#ba3022;fill-opacity:1;fill-rule:nonzero;stroke:none" transform="matrix(1.33333 0 0 -1.33333 206.152 142.464)"/><path d="M0 0c2.715-.422 5.3-1.314 7.897-2.164 3.139-1.029 5.993-2.586 8.524-4.703 2.183-1.827 4.328-3.701 6.471-5.576 3.494-3.059 5.923-6.885 7.878-11.044.288-.613.502-1.261.794-2.001l.827.374c5.26 2.413 10.795 3.551 16.569 3.505 1.142-.009 2.166.211 3.152.757.514.284.543.274.45.862-.03.187-.086.369-.126.555-1.015 4.615-1.405 9.301-1.51 14.013a255 255 0 0 0-.041 7.516 5.8 5.8 0 0 1-.485 2.429c-.486 1.113-.911 2.253-1.424 3.353-.625 1.34-1.227 2.703-1.992 3.963-2.558 4.213-6.348 6.17-11.268 5.889-.791-.045-1.581-.207-2.358-.378a55 55 0 0 0-12.432-1.288c-2.626.026-5.226-.269-7.76-1.033-4.902-1.479-8.731-4.507-11.984-8.333C-.267 4.992-.551 2.858-.658.71-.685.163-.599.093 0 0" clip-path="url(#i)" style="fill:#ba3022;fill-opacity:1;fill-rule:nonzero;stroke:none" transform="matrix(1.33333 0 0 -1.33333 50.873 29.428)"/><path d="M0 0c-.603-.071-1.207-.131-1.811-.197a14.13 14.13 0 0 0-7.652 1.266c-4.048 1.889-7.146 4.813-9.33 8.708-.183.326-.373.649-.56.973-.588-1.526-1.036-3-1.121-4.561-.142-2.631.286-5.222.52-7.826.136-1.51.334-3.015.463-4.526.12-1.399.194-2.801.27-4.203.054-.997-.073-1.058 1.147-.931 3.101.32 6.213.353 9.325.393 2.808.037 5.617.057 8.426.085 5.2.052 10.399.123 15.599.153 5.542.031 11.084.025 16.626.036.19.001.38.001.569.01.264.013.424.15.44.417q.025.455.027.91c.01 1.906.245 3.792.636 5.649 1.591 7.564 4.869 14.349 9.692 20.367 2.337 2.917 5.035 5.474 8.388 7.245.118.062.198.194.364.363-.833.375-1.581.741-2.353 1.049a9.3 9.3 0 0 1-1.628.499c-3.203.644-6.352.428-9.4-.756-3.565-1.385-6.425-3.729-8.692-6.766-1.131-1.514-2.073-3.171-3.068-4.784-.537-.871-.995-1.79-1.509-2.676a4 4 0 0 0-.612-.815c-.327-.33-.746-.29-.904.15-.182.506-.497.587-.948.6-2.617.075-5.233.189-7.85.238-1.06.019-2.123-.074-3.181-.155-.694-.053-.706-.082-.826-.811a11.1 11.1 0 0 0-2.21-5.056C6.59 2.142 3.66.431 0 0" clip-path="url(#j)" style="fill:#508783;fill-opacity:1;fill-rule:nonzero;stroke:none" transform="matrix(1.33333 0 0 -1.33333 162.938 312.302)"/><path d="M0 0c-1.281.901-2.236 2.043-2.578 3.62-.018.082-.098.152-.183.279-.272-.307-.493-.562-.719-.812-.822-.909-1.755-1.678-2.845-2.245-.234-.122-.478-.254-.732-.298-.203-.036-.5-.015-.62.111-.091.094-.013.414.071.596.093.199.28.354.423.532C-4.572 5.04-2.892 8.609-3.03 12.928c-.084 2.641-.728 5.007-2.365 7.087-.164.209-.336.417-.461.648-.213.395-.216.805.061 1.179.264.356.781.538 1.222.294.622-.345 1.206-.774 1.757-1.226.314-.257.532-.632.855-1.03.172.225.206.25.212.28.032.147.064.295.083.445.247 1.919 1.182 3.414 2.776 4.501 1.168.796 2.408 1.447 3.807 1.727 1.337.266 2.676.533 4.024.721.548.076 1.135-.002 1.685-.11.56-.11.853-.415.778-.681-.129-.457-.543-.441-.916-.517-1.223-.252-2.457-.474-3.656-.814-1.433-.405-2.765-1.072-3.919-2.023-.549-.453-1.09-.972-1.468-1.567-.918-1.445-.212-3.014 1.444-3.374.111-.024.225-.036.337-.055 3.157-.551 6.111.084 8.906 1.565 1.24.657 2.189 1.616 2.764 2.921.721 1.637.345 3.266-1.096 4.343a7.3 7.3 0 0 1-1.792.966c-1.717.64-3.488.651-5.273.304-2.409-.468-4.655-1.401-6.784-2.57a22 22 0 0 0-5.373-2.114c-2.469-.61-4.677.455-5.674 2.797a6.75 6.75 0 0 0-.464 3.679c.132.901.301 1.797.408 2.701.244 2.061-.609 3.657-2.286 4.76-2.641 1.737-5.504 2.034-8.49 1.001-.879-.304-1.602-.859-2.18-1.59-.643-.812-.823-1.71-.37-2.661.293-.615.641-1.206 1.005-1.781 1.096-1.732 2.225-3.442 3.311-5.18.502-.803.966-1.634 1.39-2.48.688-1.375 1.034-2.847 1.122-4.38.116-2.03-.389-3.902-1.361-5.676a40 40 0 0 1-1.445-2.962c-.475-1.071-.53-2.188-.309-3.345.252-1.321.777-2.529 1.338-3.736 1.003-2.156 2.716-3.515 4.863-4.386.93-.377 1.892-.579 2.87-.125q.105.048.215.075c.286.067.569.018.674-.264a.82.82 0 0 0-.045-.626c-.323-.543-.845-.856-1.434-1.057-.93-.317-1.893-.29-2.812-.061-2.66.665-4.744 2.179-6.164 4.528-.826 1.366-1.433 2.844-1.869 4.385-.056.199-.117.396-.209.702-.19-.201-.306-.293-.384-.41-1.101-1.669-1.262-3.469-.671-5.34.969-3.068 2.661-5.698 5-7.895 1.426-1.338 3.191-2.021 5.105-2.318.922-.143 1.7.133 2.263.878-.896.951-1.76 1.848-2.596 2.77a3.3 3.3 0 0 0-.535.859c-.14.311.001.599.245.813.249.219.555.278.844.104.223-.135.406-.334.609-.502.437-.363.843-.773 1.317-1.078 2.88-1.848 5.998-2.899 9.463-2.725 3.27.164 6.138 1.284 8.501 3.592.184.179.336.39.578.675-.496.124-.886.228-1.28.318C3.297-1.693 1.546-1.088 0 0" clip-path="url(#k)" style="fill:#fbfbf5;fill-opacity:1;fill-rule:nonzero;stroke:none" transform="matrix(1.33333 0 0 -1.33333 297.207 100.241)"/><path d="M0 0c-2.316 3.022-5.307 5.173-8.731 6.766-.935.434-1.906.78-2.93.88a6.5 6.5 0 0 1-1.912-.094c-.86-.174-1.271-.729-1.334-1.616-.023-.337.02-.68.052-1.019.044-.478.3-.691.793-.794a9.7 9.7 0 0 0 4.688-2.432c.33-.306.607-.675.878-1.037.075-.101.043-.283.061-.427C-8.612.21-8.819.126-8.959.19c-.446.205-.869.461-1.298.704-2.218 1.256-4.601 1.776-7.123 1.436-2.911-.393-5.12-1.98-6.855-4.287-.779-1.038-1.371-2.182-1.89-3.367-.136-.312-.264-.634-.448-.918-.294-.452-.737-.605-1.175-.466-.451.143-.722.51-.694 1.049.017.335.099.674.199.997.534 1.732 1.464 3.24 2.641 4.608.189.22.352.462.557.734-1.184.566-2.356.604-3.523.43-2.424-.362-4.091-1.707-4.914-4.034-.626-1.77-.472-3.517.293-5.208 1.936-4.277 6.886-6.297 11.272-4.153.409.2.817.403 1.239.572.113.045.327.015.4-.066.076-.084.103-.319.039-.406-.353-.486-.675-1.025-1.128-1.402-1.801-1.498-3.919-1.921-6.197-1.622-1.252.164-2.425.597-3.537 1.202-.497.27-.659.174-.7-.404a5.3 5.3 0 0 1 .808-3.259c.833-1.33 2.01-2.259 3.44-2.876 3.762-1.623 8.532-.615 11.561 2.436.267.269.524.551.815.793.205.17.461.29.724.079a.56.56 0 0 0 .164-.72c-.288-.573-.557-1.172-.947-1.673-1.297-1.665-3.005-2.757-5.011-3.391-.531-.168-1.063-.332-1.667-.521.396-.626.978-.835 1.527-1.042 2.087-.789 4.234-.85 6.378-.319 4.071 1.007 7.133 3.414 9.375 6.915.163.255.304.528.496.76.078.094.28.161.393.128.116-.033.276-.207.272-.314-.021-.484.014-1.011-.169-1.439-.384-.902-.889-1.753-1.352-2.621-.131-.247-.287-.481-.527-.88.323.055.47.054.595.106 2.151.879 3.718 2.329 4.413 4.598.894 2.921.802 5.847-.082 8.745-.54 1.769-1.401 3.361-2.94 4.495a1.8 1.8 0 0 0-.474.484c-.088.142-.148.382-.086.514.062.131.307.272.449.251.367-.054.755-.135 1.074-.313.66-.369 1.278-.814 1.921-1.216.189-.118.396-.268.604-.283.801-.06 1.556.661 1.547 1.476-.003.335-.078.677-.169 1.002C1.072-1.568.581-.758 0 0" clip-path="url(#l)" style="fill:#fbfbf5;fill-opacity:1;fill-rule:nonzero;stroke:none" transform="matrix(1.33333 0 0 -1.33333 48.701 225.812)"/><path d="M0 0c-.978.873-2.14 1.415-3.365 1.844-.391.137-.723.063-1.074-.146C-5.753.917-7.193.437-8.663.062c-1.993-.509-4.022-.816-6.074-.456-1.18.206-2.076-.235-2.872-.993-1.164-1.108-1.114-2.614.102-3.672.667-.58 1.459-.947 2.29-1.228 1.375-.463 2.797-.664 4.303-.739 2.143.042 4.327.234 6.45.879 1.423.434 2.787 1.001 3.958 1.936.438.349.841.768 1.17 1.221.551.76.504 1.563-.055 2.318A4.6 4.6 0 0 1 0 0" clip-path="url(#m)" style="fill:#fbfbf5;fill-opacity:1;fill-rule:nonzero;stroke:none" transform="matrix(1.33333 0 0 -1.33333 320.608 78.459)"/><path d="M0 0c-1.218-.273-2.452-.51-3.693-.635-2.129-.216-4.241.021-6.333.451-.32.066-.726.158-.978.024-.696-.371-1.387-.791-1.975-1.31-.644-.568-.667-1.345-.173-2.059.212-.307.478-.607.785-.811.627-.419 1.27-.837 1.958-1.137 1.654-.723 3.413-.997 4.543-1.042 2.345-.056 4.007.125 5.624.554.943.25 1.886.604 2.737 1.078 1.407.784 1.581 1.987.501 3.205-.496.559-1.141.988-1.727 1.465C.892.09.496.111 0 0" clip-path="url(#n)" style="fill:#fbfbf5;fill-opacity:1;fill-rule:nonzero;stroke:none" transform="matrix(1.33333 0 0 -1.33333 315.064 90.795)"/><path d="M0 0a5 5 0 0 1-.385 1.261c-.245.527-.569.983-1.122 1.227-.762.337-1.512-.17-1.434-.998.032-.332.169-.657.281-.977.502-1.438.837-2.903.798-4.44a4 4 0 0 1 .1-1.01c.096-.389.529-.495.797-.209.151.161.278.362.36.567q.151.369.281.744c.13.374.241.753.318 1.141.078.387.121.782.116 1.188A7.6 7.6 0 0 1 0 0" clip-path="url(#o)" style="fill:#fbfbf5;fill-opacity:1;fill-rule:nonzero;stroke:none" transform="matrix(1.33333 0 0 -1.33333 186.556 242.57)"/><path d="M0 0c.114-.824.145-1.663.165-2.496.011-.491-.222-.655-.727-.641-.31.008-.483.14-.521.467-.215 1.849-1.066 3.466-1.871 5.1-.033.068-.06.14-.099.205-.337.57-.463.624-1.1.448-.438-.12-.872-.257-1.309-.382-.218-.063-.435-.14-.658-.169-.39-.051-.594.163-.502.526.074.293.179.58.29.862.358.918.716 1.837 1.095 2.747.153.368.198.709.04 1.091-1.44 3.469-2.885 6.935-4.763 10.198-.4.694-.856 1.331-1.52 1.818-.782.575-1.567.722-2.434.231-.126-.071-.261-.126-.457-.219-.145 1.064.238 1.913.744 2.717.232.368.645.426 1.019.285.421-.158.869-.336 1.198-.627.851-.751 1.723-1.501 2.442-2.372 2.927-3.543 5.07-7.549 6.781-11.796C-1.149 5.414-.38 2.757 0 0m11.236-18.698c-.683-.132-1.228.221-1.774.474a6.7 6.7 0 0 0-2.797 2.357c2.25.56 3.767-.415 4.571-2.831m3.558 8.912c-1.399-3.124-4.801-3.931-6.956-1.727 2.467-.087 4.681.536 6.956 1.727M-9.287 24.223c-.758.58-1.567 1.065-2.504 1.311-1.836.483-3.437-.155-4.333-1.828-.335-.626-.567-1.328-.728-2.022-.477-2.066-.306-4.151-.052-6.229.496-4.062 1.64-7.944 3.287-11.681 1.213-2.751 2.616-5.396 4.539-7.732.157-.191.304-.392.483-.624-.649-.407-1.232-.757-1.796-1.135a3.5 3.5 0 0 1-.677-.598c-.078-.089-.112-.329-.05-.407a.7.7 0 0 1 .455-.243c.178-.012.367.081.544.148.347.131.688.275 1.297.521-.282-.647-.462-1.015-.603-1.398a2.8 2.8 0 0 1-.169-.769c-.017-.292.329-.485.562-.32.214.151.395.35.587.531.415.389.796.822 1.247 1.164 2.129 1.611 4.465 2.205 7.064 1.315C2.599-6.708 4.44-9.06 4.571-11.88c.138-2.969-1.241-5.066-3.834-6.441-2.082-1.105-4.261-1.546-6.595-1.103a.5.5 0 0 1-.223 0c-.062-.021-.137-.076-.157-.133s-.005-.166.037-.201c.201-.169.404-.341.629-.475a10.8 10.8 0 0 1 3.605-1.33c.788-.142 1.576-.187 2.375-.031 1.996.39 3.545 1.478 4.804 3.029.237.292.447.608.739 1.01.273-.331.485-.649.756-.907 2.258-2.149 4.862-3.024 7.929-2.067 2.291.715 3.863 2.726 4.031 5.13.018.261.002.534-.058.787-.093.402-.446.465-.761.148-.098-.099-.16-.233-.271-.401-.705.873-.959 1.85-.9 2.89.052.906.172 1.815.346 2.707.203 1.039.481 2.046 1.157 2.93.525.687.962 1.466 1.302 2.263.383.901.623 1.863.903 2.806.062.211.041.449.039.675-.001.063-.07.176-.111.177-.101.003-.256-.014-.295-.079-.136-.226-.237-.474-.34-.718-.741-1.764-1.722-3.392-2.978-4.825-2.475-2.824-5.645-4.104-9.385-4.055-.579.007-.86.242-1.093.755-.798 1.756-1.918 3.275-3.537 4.368-.393.265-.535.606-.579 1.043-.07.679-.179 1.354-.241 2.033A51 51 0 0 1-.542 9.55c-1.249 3.761-2.809 7.374-5.078 10.649-1.043 1.505-2.203 2.904-3.667 4.024" clip-path="url(#p)" style="fill:#100f0d;fill-opacity:1;fill-rule:nonzero;stroke:none" transform="matrix(1.33333 0 0 -1.33333 117.911 108.263)"/><path d="M0 0c.476.626 1.06.831 1.803.566.494-.176.999-.398 1.407-.717a18 18 0 0 0 1.926-1.756c.521-.547.989-1.153 1.421-1.773 3.333-4.788 5.632-10.023 6.779-15.752.037-.185.076-.371.101-.558.033-.244-.036-.438-.27-.568-.559-.312-1.112-.635-1.719-.983-.234.49-.476.956-.682 1.437-.381.888-1.05 1.345-2.002 1.456-.632.073-1.258.204-1.977.324.246.965.47 1.834.688 2.705.156.624.276 1.259.463 1.873.154.504.109.958-.1 1.429-.769 1.731-1.474 3.493-2.304 5.194C5.006-6.04 4.309-5.037 3.667-4.01c-.179.286-.41.547-.65.787C2.023-2.234.942-1.438-.7-1.83c.084.795.33 1.342.7 1.83m2.688-22.08c.388-.76.86-1.092 1.692-.892.145.035.302.035.453.03 1.416-.048 2.589-.553 3.324-1.829.225-.391.395-.814.59-1.223.048-.101.073-.233.151-.295.072-.055.239-.083.299-.038a.75.75 0 0 1 .258.357c.371 1.281 1.326 2.085 2.302 2.883 1.623 1.327 3.512 1.68 5.468 1.197 4.86-1.201 9.068-5.646 7.623-12.328a6.16 6.16 0 0 0-2.243-3.601c-1.182-.939-2.543-1.485-3.996-1.833-.441-.105-.893-.171-1.328-.298-.348-.102-.444-.501-.153-.704.429-.301.89-.575 1.374-.774.858-.354 1.781-.35 2.691-.335 1.629.028 3.041.596 4.161 1.797 2.647 2.841 3.43 6.177 2.513 9.909-.522 2.124-1.528 4.04-2.856 5.776-1.663 2.174-3.732 3.764-6.468 4.344-.472.1-.955.15-1.574.245.288.286.508.477.694.697.169.2.326.42.44.654.131.269-.081.581-.366.53a3.6 3.6 0 0 1-.969-.298c-.608-.305-1.19-.659-1.94-1.081-.217.984-.406 1.906-.622 2.82-1.107 4.686-2.822 9.12-5.487 13.157C7.731-1.717 6.597-.347 5.23.82c-.754.644-1.564 1.197-2.517 1.517-1.838.616-3.422.032-4.378-1.635-.44-.766-.672-1.602-.816-2.47-.352-2.128-.138-4.238.191-6.341.778-4.969 2.706-9.529 4.978-13.971" clip-path="url(#q)" style="fill:#100f0d;fill-opacity:1;fill-rule:nonzero;stroke:none" transform="matrix(1.33333 0 0 -1.33333 125.001 72.5)"/><path d="M0 0c-.434-.53-.816-1.069-.991-1.741-.026-.102-.109-.196-.184-.276-.29-.309-.778-.198-.888.214-.057.213-.047.445-.072.719.096.51.149 1.081.325 1.61.112.334.356.675.635.891.537.416 1.27.098 1.356-.575C.215.568.164.201 0 0m.821 2.967c-1.762.566-2.716.137-3.338-1.353a9 9 0 0 1-.46-1.519c-.14-.628-.224-1.269-.332-1.904-.109-.637-.284-1.215-.72-1.752-.718-.886-.645-1.921-.166-2.899.492-1.004 1.231-1.716 2.451-1.751 1.65-.047 2.803.784 3.711 2.055.939 1.315 1.222 2.836 1.346 4.315.039 1.252-.211 2.346-.797 3.359-.396.683-.953 1.21-1.695 1.449" clip-path="url(#r)" style="fill:#100f0d;fill-opacity:1;fill-rule:nonzero;stroke:none" transform="matrix(1.33333 0 0 -1.33333 131.79 108.075)"/><path d="M0 0c.378-.01.758-.04 1.134-.019.124.007.319.126.344.227.039.162.025.429-.079.513-.287.233-.613.451-.96.573-1.426.503-2.847.356-4.216-.205-3.004-1.233-4.883-3.486-5.847-6.55-.301-.959-.334-1.94-.234-2.925.066-.649.277-1.264.696-1.775.127-.156.358-.306.547-.313.282-.011.313.277.334.503.07.755.117 1.511.201 2.264.243 2.15 1.131 3.997 2.677 5.51C-3.907-.733-2.154.138 0 0" clip-path="url(#s)" style="fill:#100f0d;fill-opacity:1;fill-rule:nonzero;stroke:none" transform="matrix(1.33333 0 0 -1.33333 101.278 70.235)"/><path d="M0 0c-.711-.456-1.488-.764-2.321-.86-1.581-.184-2.894.381-3.96 1.547-.202.221-.401.536-.745.304-.312-.209-.193-.545-.08-.827.098-.243.201-.502.369-.695.396-.457.805-.911 1.259-1.309 1.124-.986 2.493-1.119 3.786-.368C-.696-1.629.064-.803.693.143L.544.334C.363.223.179.115 0 0" clip-path="url(#t)" style="fill:#100f0d;fill-opacity:1;fill-rule:nonzero;stroke:none" transform="matrix(1.33333 0 0 -1.33333 138.52 138.698)"/><path d="M0 0c-.02.415-.427.752-.862.715-.503-.043-.891-.426-.877-.866.015-.454.46-.835.926-.793.428.04.834.511.813.944" clip-path="url(#u)" style="fill:#100f0d;fill-opacity:1;fill-rule:nonzero;stroke:none" transform="matrix(1.33333 0 0 -1.33333 148.141 105.157)"/><path d="M0 0c.028.502-.297.925-.741.965-.443.04-.838-.354-.848-.845-.011-.518.301-.858.806-.88.454-.02.756.273.783.76" clip-path="url(#v)" style="fill:#100f0d;fill-opacity:1;fill-rule:nonzero;stroke:none" transform="matrix(1.33333 0 0 -1.33333 119.823 120.777)"/><path d="M0 0c.495-.022.913.31.941.749.023.346-.303.731-.662.782-.454.065-.975-.378-.996-.847C-.734.307-.432.019 0 0" clip-path="url(#w)" style="fill:#100f0d;fill-opacity:1;fill-rule:nonzero;stroke:none" transform="matrix(1.33333 0 0 -1.33333 113.325 121.05)"/><path d="M0 0a.706.706 0 0 1 .677-.754c.421-.013.778.348.788.798.01.427-.281.752-.674.753C.359.798.021.458 0 0" clip-path="url(#x)" style="fill:#100f0d;fill-opacity:1;fill-rule:nonzero;stroke:none" transform="matrix(1.33333 0 0 -1.33333 148.364 109.399)"/><path d="M0 0c.006.369-.241.633-.621.666-.456.038-.799-.272-.81-.734-.008-.361.244-.632.623-.668.448-.043.8.278.808.736" clip-path="url(#y)" style="fill:#100f0d;fill-opacity:1;fill-rule:nonzero;stroke:none" transform="matrix(1.33333 0 0 -1.33333 117.595 117.453)"/><path d="M0 0a.71.71 0 0 1-.567.742C-.89.797-1.266.503-1.294.173c-.029-.333.246-.677.58-.725.375-.055.679.181.714.552" clip-path="url(#z)" style="fill:#100f0d;fill-opacity:1;fill-rule:nonzero;stroke:none" transform="matrix(1.33333 0 0 -1.33333 151.29 105.496)"/><path d="M0 0c-.329.291-.777.469-1.198.627-.375.14-.787.082-1.019-.286-.507-.803-.889-1.653-.745-2.717.196.094.332.148.458.22.866.491 1.651.344 2.433-.231.664-.487 1.121-1.124 1.52-1.818 1.879-3.264 3.324-6.73 4.763-10.198.158-.382.114-.723-.04-1.091-.378-.91-.736-1.829-1.095-2.747a8 8 0 0 1-.29-.862c-.092-.363.112-.577.502-.526.223.029.441.106.658.169.437.125.871.261 1.309.382.638.176.764.122 1.101-.448.039-.065.065-.137.099-.205.805-1.634 1.656-3.251 1.87-5.1.038-.327.211-.459.522-.468.505-.013.738.15.726.642-.019.833-.051 1.672-.164 2.496-.38 2.757-1.149 5.414-2.188 7.992-1.71 4.248-3.854 8.254-6.78 11.797C1.723-1.502.85-.751 0 0" clip-path="url(#A)" style="fill:#fbfbf5;fill-opacity:1;fill-rule:nonzero;stroke:none" transform="matrix(1.33333 0 0 -1.33333 102.699 78.715)"/><path d="M0 0c-2.275-1.19-4.489-1.814-6.956-1.727C-4.801-3.931-1.399-3.123 0 0" clip-path="url(#B)" style="fill:#fbfbf5;fill-opacity:1;fill-rule:nonzero;stroke:none" transform="matrix(1.33333 0 0 -1.33333 137.637 121.312)"/><path d="M0 0c.547-.252 1.091-.606 1.775-.474C.97 1.943-.547 2.918-2.797 2.357A6.73 6.73 0 0 1 0 0" clip-path="url(#C)" style="fill:#ba3022;fill-opacity:1;fill-rule:nonzero;stroke:none" transform="matrix(1.33333 0 0 -1.33333 130.527 132.563)"/><path d="M0 0c.241-.239.472-.501.651-.787.641-1.027 1.338-2.029 1.867-3.113.829-1.701 1.534-3.462 2.303-5.193.209-.471.255-.926.101-1.429-.188-.615-.307-1.249-.463-1.873-.218-.872-.443-1.741-.689-2.706.719-.12 1.345-.25 1.978-.324.951-.111 1.62-.568 2.001-1.456.207-.481.448-.947.683-1.437.606.348 1.159.672 1.719.983.234.13.302.324.27.568-.025.187-.065.373-.102.559C9.173-10.479 6.873-5.244 3.541-.457A15 15 0 0 1 2.12 1.316 17.6 17.6 0 0 1 .193 3.072c-.408.319-.913.541-1.406.717-.743.265-1.328.061-1.804-.566-.37-.488-.616-1.035-.7-1.83C-2.075 1.786-.994.989 0 0" clip-path="url(#D)" style="fill:#fbfbf5;fill-opacity:1;fill-rule:nonzero;stroke:none" transform="matrix(1.33333 0 0 -1.33333 129.023 76.798)"/><path d="M0 0a2 2 0 0 1-.635-.891c-.176-.529-.229-1.1-.325-1.61.025-.274.015-.506.072-.719.11-.413.598-.523.888-.215.075.081.158.175.184.277.175.672.557 1.211.991 1.741.164.201.216.568.181.842C1.27.098.537.416 0 0" clip-path="url(#E)" style="fill:#fbfbf5;fill-opacity:1;fill-rule:nonzero;stroke:none" transform="matrix(1.33333 0 0 -1.33333 130.224 106.186)"/><path d="M0 0a6.4 6.4 0 0 0-1.169-1.222c-1.172-.934-2.536-1.502-3.959-1.935-2.123-.646-4.306-.837-6.45-.879-1.506.074-2.928.275-4.303.739-.831.28-1.623.647-2.29 1.228-1.216 1.058-1.265 2.564-.102 3.672.796.758 1.692 1.199 2.872.992 2.052-.359 4.081-.052 6.074.457 1.47.375 2.91.855 4.224 1.636.351.208.683.282 1.075.145 1.224-.428 2.386-.971 3.364-1.843.225-.201.429-.431.609-.673C.504 1.563.551.76 0 0m-1.826-7.945c1.08-1.217.906-2.42-.501-3.204-.851-.474-1.794-.828-2.737-1.079-1.617-.428-3.279-.61-5.624-.553-1.13.045-2.889.319-4.543 1.041-.688.301-1.331.719-1.958 1.137-.307.205-.573.505-.785.812-.494.714-.471 1.491.173 2.059.588.519 1.279.939 1.975 1.309.252.134.658.043.978-.023 2.093-.43 4.204-.667 6.334-.452 1.24.126 2.474.362 3.692.636.496.111.892.09 1.269-.217.587-.477 1.231-.906 1.727-1.466m-10.565-8.508c-2.363-2.308-5.232-3.428-8.501-3.592-3.465-.174-6.583.877-9.463 2.725-.474.305-.881.715-1.317 1.078-.203.168-.387.367-.61.501-.289.175-.594.116-.844-.103-.243-.214-.385-.502-.245-.813a3.3 3.3 0 0 1 .535-.859c.837-.922 1.701-1.819 2.597-2.77-.563-.745-1.342-1.021-2.263-.878-1.914.297-3.679.98-5.105 2.318-2.34 2.196-4.031 4.827-5 7.895-.591 1.871-.43 3.671.671 5.34.077.117.193.209.384.41.091-.307.152-.503.208-.702.437-1.541 1.043-3.019 1.869-4.386 1.421-2.348 3.505-3.862 6.164-4.527.92-.229 1.882-.256 2.812.061.589.201 1.112.514 1.435 1.057a.82.82 0 0 1 .045.626c-.105.282-.388.331-.674.264a1 1 0 0 1-.215-.075c-.979-.454-1.941-.252-2.871.125-2.146.871-3.86 2.23-4.862 4.386-.561 1.207-1.086 2.415-1.338 3.736-.221 1.157-.167 2.274.309 3.344.446 1.004.917 2 1.444 2.963.972 1.774 1.478 3.646 1.362 5.676-.088 1.533-.434 3.005-1.122 4.379a30 30 0 0 1-1.39 2.481c-1.086 1.738-2.216 3.448-3.311 5.18a17 17 0 0 0-1.005 1.781c-.453.951-.274 1.849.369 2.661.578.731 1.301 1.286 2.181 1.59 2.986 1.033 5.849.736 8.49-1.001 1.677-1.103 2.529-2.699 2.285-4.761-.107-.903-.275-1.799-.407-2.7a6.74 6.74 0 0 1 .464-3.679c.997-2.342 3.205-3.407 5.673-2.798a22.2 22.2 0 0 1 5.373 2.115c2.13 1.168 4.376 2.102 6.785 2.57 1.785.347 3.556.336 5.272-.304a7.3 7.3 0 0 0 1.792-.966c1.442-1.077 1.817-2.706 1.096-4.343-.574-1.305-1.524-2.264-2.763-2.921-2.795-1.481-5.749-2.116-8.907-1.566-.112.02-.226.032-.337.056-1.655.36-2.361 1.929-1.443 3.374.378.595.918 1.114 1.468 1.567 1.153.951 2.485 1.618 3.919 2.023 1.199.34 2.432.562 3.655.814.374.076.788.06.917.517.075.266-.218.571-.779.681-.55.108-1.137.186-1.684.11-1.349-.188-2.688-.455-4.024-.722-1.399-.279-2.639-.93-3.807-1.726-1.594-1.087-2.529-2.582-2.776-4.501a6 6 0 0 0-.083-.445c-.007-.03-.04-.055-.213-.28-.323.398-.54.773-.854 1.03-.552.452-1.135.881-1.758 1.226-.44.244-.957.062-1.221-.294-.278-.374-.274-.784-.061-1.179.124-.231.296-.44.46-.648 1.638-2.08 2.282-4.447 2.366-7.087.138-4.319-1.542-7.888-4.154-11.145-.142-.178-.33-.333-.422-.532-.084-.182-.162-.502-.072-.596.121-.126.417-.147.62-.111.254.044.498.176.732.298 1.09.567 2.023 1.336 2.845 2.245.227.25.448.505.719.812.086-.127.166-.197.184-.28.342-1.576 1.297-2.718 2.578-3.619 1.546-1.088 3.296-1.693 5.121-2.113.393-.091.784-.194 1.28-.318-.242-.285-.394-.496-.578-.675m-59.061-21.32a10 10 0 0 0-.272-1.681c-.293-1.111-.994-1.882-2.126-2.156a16 16 0 0 0-2.463-.413 14.8 14.8 0 0 0-4.302.305c-3.223.704-6.468 1.322-9.667 2.124-3.475.872-6.732 2.339-9.837 4.118-1.489.853-2.755 2.011-3.997 3.187-1.769 1.675-3.31 3.552-4.833 5.446-.302.376-.286.76-.263 1.175a34.7 34.7 0 0 1-.216 6.134c-.545 4.497-1.925 8.732-3.998 12.743-.922 1.784-1.947 3.515-2.927 5.27-.146.262-.3.521-.456.79 2.233 1.048 4.368 2.018 6.474 3.048 2.045 1 4.064 2.052 6.085 3.098 3.078 1.594 5.686 3.775 7.873 6.45a3.9 3.9 0 0 0 2.141 1.377c5.528 1.456 10.677.696 15.421-2.554 1.14-.781 2.091-1.748 2.908-2.859 2.054-2.791 3.164-5.938 3.6-9.351.369-2.884.164-5.7-1.103-8.35-1.655-3.462-1.666-7.052-.892-10.689.623-2.93 1.387-5.83 2.076-8.746.658-2.784 1.032-5.598.774-8.466m-3.36-17.64c.883-1.194 1.145-2.405.848-3.843-.516-2.496-1.591-4.655-3.527-6.348-.915-.8-1.824-1.605-2.755-2.385a23.8 23.8 0 0 1-4.467-4.989c-1.487-2.21-2.749-4.544-3.892-6.946-.767-1.611-1.509-3.234-2.338-4.812a16 16 0 0 0-1.67-2.571c-1.492-1.859-3.515-2.724-5.864-2.814a4.6 4.6 0 0 0-1.785.285c-1.696.657-3.41 1.303-4.931 2.325-.527.354-.975.835-1.428 1.287-.384.384-.6.87-.696 1.408-.512 2.869-1.658 5.505-2.894 8.122-2.595 5.493-6.001 10.461-9.735 15.219-2.224 2.832-4.793 5.281-8.009 6.985-.227.12-.428.288-.756.511 10.883 5.171 17.261 13.569 19.272 25.396.204-.217.374-.353.489-.526 2.028-3.067 4.561-5.679 7.344-8.051a20 20 0 0 1 2.886-2.02c2.864-1.665 5.887-2.982 9.105-3.811a4.16 4.16 0 0 0 1.707-.86c.463-.393.944-.765 1.402-1.163a66 66 0 0 1 5.381-4.205c2.441-1.714 4.532-3.787 6.313-6.194m-21.792-67.486c-.054-1.24-.706-2.127-1.631-2.862-.235-.187-.488-.35-.733-.525l-.164.104q.157.472.317.943c.538 1.588.876 3.216.982 4.891.046.73-.051 1.44-.303 2.124-.57 1.542-1.328 2.988-2.423 4.218-1.341 1.507-2.838 2.854-4.562 3.916-1.87 1.152-3.643 2.464-5.633 3.425-.54.261-1.021.644-1.597 1.016.196.25.338.456.505.641.534.591 1.09 1.162 1.614 1.762a11.6 11.6 0 0 1 2.273 3.909c.282.825.582 1.644.853 2.473.379 1.157.633 2.338.689 3.563.032.713.136 1.423.214 2.208.909-.343 1.471-.851 1.864-1.653 1.8-3.687 3.213-7.529 4.676-11.353.991-2.591 1.832-5.226 2.368-7.946.573-2.907.941-5.84.847-8.813-.022-.681-.127-1.36-.156-2.041m-4.604.11a9 9 0 0 0-.318-1.141 18 18 0 0 0-.281-.744 1.9 1.9 0 0 0-.361-.566c-.268-.286-.701-.18-.796.209-.08.326-.109.673-.1 1.009.039 1.537-.297 3.003-.799 4.441-.111.32-.249.645-.28.977-.078.827.671 1.334 1.434.998.552-.244.876-.7 1.122-1.227.171-.367.301-.794.384-1.261.084-.468.122-.976.111-1.507a5.7 5.7 0 0 0-.116-1.188m-6.661-39.499c.119.728.132.757.825.81 1.059.081 2.122.175 3.181.155 2.617-.048 5.233-.162 7.85-.237.452-.013.767-.094.949-.6.158-.44.577-.481.904-.15.237.239.442.522.612.815.514.885.972 1.804 1.509 2.675.995 1.613 1.937 3.27 3.068 4.785 2.266 3.036 5.127 5.381 8.691 6.765 3.049 1.185 6.198 1.401 9.4.757a9.5 9.5 0 0 0 1.629-.499c.771-.309 1.52-.675 2.353-1.05-.166-.169-.247-.301-.364-.363-3.354-1.77-6.051-4.328-8.389-7.244-4.823-6.019-8.1-12.804-9.692-20.368-.39-1.857-.626-3.743-.635-5.648a17 17 0 0 0-.027-.91c-.016-.268-.177-.405-.44-.417q-.284-.012-.569-.01c-5.542-.011-11.084-.005-16.626-.037-5.2-.03-10.4-.1-15.6-.152-2.808-.028-5.617-.048-8.426-.085-3.111-.041-6.223-.073-9.324-.394-1.221-.126-1.093-.065-1.147.931-.076 1.402-.15 2.805-.27 4.203-.129 1.511-.327 3.016-.463 4.527-.235 2.604-.662 5.195-.52 7.826.084 1.56.533 3.035 1.12 4.56.187-.324.378-.646.561-.973 2.184-3.895 5.281-6.819 9.33-8.708a14.13 14.13 0 0 1 7.652-1.266c.603.067 1.208.126 1.811.197 3.66.432 6.589 2.143 8.836 5.048a11.1 11.1 0 0 1 2.211 5.057m-32.981 2.092q-.237-.523-.47-1.05c-.151-.34-.286-.687-.481-1.159-.192.21-.323.319-.41.456-1.803 2.823-4.271 4.905-7.192 6.486-.134.073-.267.146-.407.206-.334.144-.421.345-.306.719.835 2.71 1.114 5.507 1.214 8.325.122 3.452-.313 6.904-1.142 10.258-.199.804-.088.807.547 1.056.844.332 1.57.862 2.301 1.536 0 0 1.766 1.181 2.988 2.347.281-.162.558-.328.85-.477a143 143 0 0 1 11.493-5.221c2.315-.934 4.739-1.602 7.12-2.37.029-.009.044-.01.071-.018l-.003-.004s1.542-.46 2.726-.772c-1.519-2.616-3.066-5.217-4.704-7.759a6.7 6.7 0 0 1-.819-1.765c-2.599.674-5.738-.164-6.388-.353-.079-.023-.128-.039-.128-.039l-.001-.004a4.4 4.4 0 0 1-.57-.188c-2.035-.874-3.394-2.307-4.068-4.295a6.7 6.7 0 0 1-.337-1.736c-.054-.846-.221-1.644-.708-2.313-.435-.597-.872-1.193-1.176-1.866m-2.723-22.27c-5.585-1.416-11.266-2.101-17.019-2.11-2.008-.004-4.022.174-6.023.376-3.021.304-6.033.702-9.048 1.061a6 6 0 0 0-.562.088c-.696.15-.67.158-.817.858-.415 1.968-.849 3.931-1.28 5.895-1.237 5.646-1.958 11.37-2.529 17.112-.387 3.893-.48 7.807-.418 11.718.076 4.82.189 9.641.393 14.458.347 8.212 1.959 16.189 4.739 23.921.525 1.46 1.229 2.855 1.859 4.276.108.242.253.468.396.691.819 1.285.885 1.306 2.221.664 1.921-.922 3.953-1.375 6.072-1.254 1.968.113 3.933.322 5.889.576.68.088 1.18-.002 1.6-.539.602-.772 1.215-1.535 1.863-2.35-.281-.223-.479-.389-.687-.542-3.137-2.321-5.06-5.401-5.727-9.245-.406-2.335-.476-4.687-.046-7.025a19.4 19.4 0 0 1 2.627-6.756c1.347-2.161 3.308-3.628 5.759-4.397.182-.057.363-.117.548-.157.266-.058.374-.23.384-.483.006-.152.005-.304.007-.456.055-5.581.042-11.161-.337-16.733-.011-.152-.012-.304-.021-.455-.022-.35-.227-.45-.542-.388-.261.051-.52.113-.781.161-1.535.287-3.071.5-4.638.254-1.093-.171-1.988-.72-2.809-1.414a1.7 1.7 0 0 1-.4-.545c-.246-.499-.061-.988.455-1.224.169-.077.36-.119.545-.143q2.312-.305 4.626-.592c4.265-.526 8.038-2.14 11.249-5.03 1.173-1.055 2.066-2.319 2.9-3.638a1.7 1.7 0 0 0 .252-1.19c-.385-2.949-.298-5.903-.122-8.863.111-1.894.127-3.794.164-5.691.013-.704-.016-.704-.742-.889m22.417 59.88c-.229.093-.458.183-.686.28-1.395.593-2.785 1.198-4.186 1.779-4.448 1.845-8.896 3.691-13.352 5.514-2.211.905-4.438 1.77-6.665 2.633-.403.156-.555.364-.62.812-.4 2.769-2.182 4.693-4.89 5.355-.22.054-.444.104-.669.126-.311.03-.459.195-.541.486a8 8 0 0 1-.408 1.177c-.157.338-.389.641-.703 1.143.907.097 1.654.207 2.405.249 1.552.088 3.107.133 4.66.208.557.027 1.02-.145 1.475-.472 3.02-2.167 6.056-4.311 9.082-6.47 2.717-1.939 5.439-3.87 8.135-5.838 2.37-1.731 4.428-3.805 6.398-5.968.245-.269.445-.58.565-1.014m-54.722 28.022c-1.921 3.315-2.697 6.906-2.655 10.694.048 4.399.888 8.679 2.109 12.883a106 106 0 0 1 2.903 13.106c.437 2.774.679 5.578.554 8.397-.031.678-.099 1.354-.167 2.254.422-.291.706-.471.974-.672 5.36-4.01 11.281-6.818 17.813-8.319 3.949-.908 7.943-1.193 11.989-.956 3.469.204 6.854.813 10.144 1.919.613.206 1.062.111 1.583-.235 2.074-1.377 3.869-3.066 5.493-4.931a58 58 0 0 0 3.323-4.191c3.895-5.41 7.151-11.189 9.831-17.292.998-2.273 1.587-4.664 2.006-7.102.122-.71.212-1.426.36-2.131.193-.92.11-1.84-.148-2.705-.529-1.779-.984-3.615-1.796-5.267-1.785-3.638-4.741-5.823-8.809-6.454-2.038-.316-4.021-.129-5.963.469-3.189.982-6.387 1.943-9.46 3.27-2.477 1.071-5.002 2.007-7.68 2.452-3.917.652-7.857.823-11.799.329-3.012-.377-6.004-.907-9.01-1.332-1.162-.165-2.333-.312-3.516-.145a8.3 8.3 0 0 0-2.591.823c-2.335 1.175-4.17 2.862-5.488 5.136m-4.973 24.372c-2.048-3.524-4.352-6.862-7.37-9.641-1.857-1.71-3.891-3.151-6.408-3.756a9.24 9.24 0 0 0-4.727.087c-1.927.542-3.686 1.419-5.106 2.86-.825.836-1.654 1.681-2.367 2.61-2.444 3.182-4.353 6.659-5.673 10.462a41 41 0 0 1-1.695 4.095c-1.281 2.715-3.348 4.659-6.061 5.926-.722.337-1.455.652-2.165 1.011-.676.342-1.357.687-1.987 1.104-1.926 1.275-3.269 2.984-4.052 5.194-.871 2.458-1.266 4.991-1.565 7.558-.207 1.775-.367 3.547-.106 5.332.232 1.583.61 3.127 1.166 4.626.681 1.839 1.911 3.26 3.434 4.448 1.449 1.129 3.069 1.962 4.762 2.648q2.216.899 4.462 1.718a34.5 34.5 0 0 1 4.974 2.249 36.3 36.3 0 0 0 6.359 2.756c2.558.839 5.053 1.868 7.593 2.764 2.002.706 4.028 1.345 6.051 1.99.427.136.889.165 1.469.267.025-.357.056-.579.054-.801-.06-6.079 1.4-11.798 4.095-17.218 2.201-4.427 5.15-8.312 8.654-11.787.215-.213.419-.444.658-.628.461-.357.584-.795.593-1.381.039-2.711-.297-5.381-.824-8.027a982 982 0 0 0-2.581-12.48c-.302-1.419-.912-2.737-1.637-3.986m-23.79-42.308c-.208.016-.415.165-.604.283-.643.402-1.261.847-1.921 1.216-.319.179-.707.259-1.075.313-.141.021-.386-.119-.448-.25-.062-.133-.002-.372.086-.515.115-.188.293-.351.474-.484 1.539-1.134 2.4-2.726 2.94-4.495.884-2.897.976-5.824.082-8.745-.695-2.269-2.262-3.718-4.413-4.598-.125-.051-.272-.05-.595-.106.24.399.395.634.527.881.463.868.967 1.719 1.352 2.62.183.428.148.956.169 1.44.004.106-.156.281-.272.314-.113.032-.316-.035-.393-.129-.192-.231-.333-.504-.496-.759-2.242-3.502-5.304-5.908-9.375-6.916-2.144-.53-4.291-.47-6.378.319-.549.207-1.131.417-1.527 1.042l1.667.521c2.006.634 3.713 1.726 5.011 3.392.39.5.659 1.1.947 1.673a.56.56 0 0 1-.164.719c-.263.211-.519.092-.724-.079-.291-.241-.548-.524-.815-.793-3.029-3.05-7.799-4.058-11.561-2.435-1.43.617-2.607 1.545-3.44 2.876a5.3 5.3 0 0 0-.808 3.258c.041.578.203.674.7.404 1.112-.604 2.285-1.037 3.537-1.202 2.278-.298 4.396.125 6.197 1.623.453.376.775.916 1.128 1.401.064.088.037.322-.039.406-.073.081-.287.112-.4.066-.422-.168-.83-.372-1.239-.572-4.386-2.143-9.336-.124-11.272 4.154-.765 1.691-.919 3.438-.293 5.208.823 2.326 2.49 3.671 4.914 4.034 1.166.174 2.339.136 3.523-.431-.205-.271-.368-.514-.557-.734-1.177-1.367-2.107-2.875-2.641-4.607a4 4 0 0 1-.199-.998c-.028-.538.243-.906.694-1.049.438-.139.881.015 1.175.467.184.283.312.606.448.918.519 1.185 1.111 2.329 1.89 3.366 1.735 2.308 3.944 3.895 6.855 4.287 2.522.34 4.905-.179 7.123-1.436.428-.242.852-.499 1.298-.704.14-.064.347.021.524.037-.018.145.014.326-.061.428-.271.362-.548.731-.878 1.037a9.7 9.7 0 0 1-4.688 2.431c-.493.103-.749.317-.793.795-.032.339-.076.682-.052 1.019.063.886.474 1.441 1.334 1.616.62.126 1.282.155 1.912.094 1.024-.1 1.995-.446 2.93-.881 3.424-1.592 6.415-3.744 8.731-6.765.581-.759 1.072-1.569 1.331-2.496.091-.325.165-.667.169-1.002.008-.816-.746-1.536-1.547-1.477m-12.052 98.594a13.2 13.2 0 0 0-4.3 1.005c-2.825 1.178-4.195 3.294-4.064 6.693.091 2.394.582 4.738 1.348 7.022.493 1.474.963 2.962 1.32 4.473.549 2.319.441 4.673.133 7.021-.114.865-.209 1.733-.337 2.596-.364 2.463-.003 4.85.799 7.174.433 1.253.955 2.478 1.498 3.688 1.155 2.575 2.892 4.723 5.039 6.528 3.362 2.827 7.186 4.229 11.607 3.414 4.117-.759 8.141-1.854 11.831-3.917.728-.406 1.451-.839 2.108-1.349 2.489-1.931 4.954-3.894 7.419-5.856 2.613-2.079 4.625-4.701 6.583-7.366.674-.918 1.311-1.862 1.956-2.801.211-.308.394-.635.641-1.036-.57-.353-1.024-.627-1.469-.912q-11.611-7.44-14.548-20.91c-.154-.703-.241-1.421-.356-2.133-.118-.73-.2-.814-.949-.828-1.024-.02-2.053.047-3.07-.044-1.661-.149-3.312-.407-4.97-.597-1.696-.194-3.397-.346-5.093-.544-2.412-.282-4.819-.599-7.23-.883-1.958-.231-3.908-.559-5.896-.438m14.909 60.365c3.253 3.826 7.082 6.853 11.985 8.332 2.534.765 5.133 1.06 7.76 1.033a55 55 0 0 1 12.432 1.289c.776.171 1.566.332 2.357.378 4.921.28 8.71-1.676 11.268-5.889.765-1.261 1.367-2.624 1.992-3.964.513-1.099.938-2.24 1.424-3.352a5.8 5.8 0 0 0 .486-2.429c-.018-2.505-.016-5.012.04-7.517.106-4.712.495-9.397 1.51-14.013.041-.185.096-.368.126-.555.094-.587.065-.577-.449-.862-.986-.545-2.011-.765-3.153-.756-5.774.046-11.309-1.093-16.569-3.505-.239-.11-.48-.217-.827-.374-.291.74-.506 1.388-.794 2.001-1.954 4.158-4.383 7.985-7.878 11.044-2.143 1.875-4.288 3.749-6.471 5.575-2.531 2.118-5.384 3.675-8.524 4.703-2.597.851-5.182 1.743-7.897 2.165-.599.093-.685.163-.658.71.108 2.148.391 4.282 1.84 5.986m45.696-36.72c.364-.077.521.241.657.513.117.236.206.488.307.733a14.1 14.1 0 0 0 2 3.431c1.878 2.355 4.961 3.063 7.688 1.767 1.073-.51 2.037-1.171 2.834-2.064.581-.652 1.166-1.3 1.763-1.937.67-.715.931-.698 1.643.067.049.054.117.091.207.159 1.563-.536 3.067-1.256 4.549-2.023 5.146-2.662 9.701-6.088 13.432-10.548.777-.928 1.438-1.954 2.14-2.944 3.063-4.322 5.283-9.018 6.351-14.235 1.264-6.173 1.008-12.229-1.369-18.115-2.681-6.639-7.319-11.54-13.528-15-4.067-2.267-8.453-3.536-13.075-4-13.955-1.402-29.445 4.728-38.72 16.889-3.812 4.998-6.426 10.556-7.484 16.78-.965 5.684-.624 11.279 1.483 16.689 2.534 6.504 6.913 11.45 12.93 14.944 4.16 2.416 8.665 3.812 13.448 4.303 1.201.123 2.408.186 3.838.294-.287-.605-.453-.98-.64-1.345-.474-.926-.697-1.922-.831-2.942a3.5 3.5 0 0 1-.026-.681c.019-.303.04-.659.403-.735m7.084 25.283c.119 2.958.247 5.916.365 8.874.095 2.37.606 4.66 1.331 6.908 1.249 3.87 4.963 6.7 9.022 6.884 3.4.153 6.756-.084 10.011-1.155.719-.237 1.458-.473 2.106-.849 1.772-1.027 3.538-2.074 5.229-3.226.768-.523 1.411-1.266 2.007-1.994.84-1.026 1.612-2.112 2.363-3.208 1.186-1.729 2.683-3.104 4.566-4.014 1.74-.842 3.515-1.615 5.287-2.389 1.425-.622 2.886-1.164 4.3-1.81a16.5 16.5 0 0 0 5.315-3.849c2.633-2.845 3.633-6.185 2.859-9.978-.385-1.892-.928-3.758-1.513-5.599-.544-1.714-1.519-3.226-2.611-4.644-2.201-2.855-4.753-5.316-8.002-6.976-1.891-.967-3.775-1.948-5.664-2.921-1.686-.869-3.381-1.722-5.057-2.609-.499-.264-.948-.62-1.482-.975-.11.076-.186.107-.232.163-1.604 1.942-3.531 3.535-5.438 5.165-4.433 3.792-9.356 6.719-14.836 8.713-.285.103-.575.19-.866.274-.558.161-1.013.453-1.431.875-1.604 1.617-3.523 2.608-5.831 2.757-.152.01-.304.035-.454.029-.469-.018-.692.216-.739.668-.08.79-.223 1.577-.251 2.369-.135 3.792-.241 7.586-.354 11.379-.012.379-.015.759 0 1.138M.893 4.714c-.742.502-1.617.814-2.45 1.17-.404.174-.85.25-1.355.392.229.333.433.599.605.884.352.583.709 1.165 1.024 1.767 1.178 2.247.291 5.488-1.875 7-1.469 1.025-3.09 1.597-4.864 1.759-2.509.231-4.908-.278-7.263-1.082-2.411-.823-4.734-1.852-7.005-2.999-.652-.329-1.324-.568-2.047-.656-1.212-.148-2.199.44-2.536 1.62-.163.57-.197 1.198-.17 1.795.032.678.191 1.351.307 2.023.688 3.988-.894 7.104-4.528 8.904-.238.118-.478.233-.723.334-2.155.883-4.393 1.19-6.696.864-1.957-.277-3.739-.975-5.165-2.417-1.78-1.801-2.212-3.957-1.188-6.265.322-.725.744-1.408 1.149-2.093 1.14-1.927 2.334-3.824 3.427-5.777.533-.953.957-1.982 1.309-3.017.612-1.803.448-3.592-.354-5.319-.304-.654-.632-1.296-.927-1.954-.669-1.493-1.299-3.003-1.326-4.674-.008-.474-.302-.645-.642-.836-1.774-.995-2.786-2.525-3.135-4.512-.039-.224-.081-.452-.075-.678.013-.482-.201-.769-.647-.947-1.584-.635-3.134-1.361-4.742-1.924-5.576-1.953-11.326-3.137-17.196-3.765-1.592-.17-1.702-.085-1.274 1.438.286 1.019.736 1.992 1.068 3 .402 1.224.905 2.439 1.108 3.699.939 5.811-.14 11.238-3.255 16.262-2.563 4.134-6.252 6.775-10.828 8.209-3.291 1.031-6.648 1.088-10.015.327-.43-.097-.863-.178-1.262-.26-.064.126-.099.161-.092.185.039.145.079.291.133.43.988 2.516 1.749 5.097 2.162 7.771.643 4.167-.403 7.919-2.946 11.233-2.026 2.641-4.667 4.548-7.691 5.91-1.868.841-3.78 1.584-5.656 2.408a59 59 0 0 0-3.279 1.582c-1.381.711-2.451 1.755-3.273 3.084-.759 1.225-1.583 2.411-2.398 3.601-.78 1.139-1.722 2.137-2.892 2.873-1.701 1.071-3.406 2.144-5.175 3.097-1.06.571-2.222.98-3.376 1.345-3.814 1.207-7.741 1.486-11.712 1.254-3.291-.192-6.09-1.458-8.338-3.904-1.968-2.142-3.355-4.585-3.953-7.45-.08-.379-.156-.76-.398-1.184-.478 1.209-.853 2.325-1.351 3.383-1.54 3.267-3.826 5.784-7.221 7.245-3.107 1.338-6.286 1.628-9.586 1.03a178 178 0 0 0-5.387-.905c-2.597-.388-5.222-.385-7.839-.47-2.937-.096-5.817-.514-8.611-1.465-5.243-1.785-9.477-5.044-13.227-9.014a7 7 0 0 1-.699-.897c-1.458-2.147-1.975-4.488-1.429-7.043.048-.222.136-.449.122-.668-.01-.143-.142-.33-.272-.4-.157-.083-.368-.069-.557-.087-2.143-.203-4.171-.826-6.086-1.782-3.96-1.977-6.925-5.015-9.138-8.8-1.306-2.236-2.251-4.639-2.995-7.12-.627-2.093-.931-4.23-.798-6.409.091-1.475.252-2.95.469-4.412.419-2.82.354-5.59-.517-8.332a31.5 31.5 0 0 1-1.262-5.776c-.195-1.619-.443-3.24-.249-4.878.429-3.637 2.205-6.332 5.588-7.861a16 16 0 0 1 5.718-1.402c1.675-.093 3.337.033 4.998.231.269.032.544.02.882.031-.115-.155-.145-.239-.202-.266-1.994-.93-3.977-1.884-5.99-2.77-1.841-.809-3.73-1.511-5.571-2.32-2.024-.889-3.909-2.024-5.613-3.443-2.055-1.711-3.634-3.763-4.504-6.317-1.089-3.199-1.67-6.463-1.248-9.853q.267-2.147.543-4.292c.278-2.162.946-4.217 1.755-6.229a11.4 11.4 0 0 1 3.659-4.849c1.448-1.124 2.981-2.091 4.652-2.843a68 68 0 0 0 2.056-.976c1.726-.847 3.067-2.116 3.934-3.824.668-1.316 1.296-2.663 1.807-4.046 1.58-4.279 3.821-8.177 6.631-11.753 1.392-1.772 3.003-3.32 4.93-4.517.144-.089.26-.224.425-.37-.982-.955-1.941-1.819-2.823-2.756a1076 1076 0 0 1-8.299-8.921c-.367-.398-.71-.598-1.274-.519a6.2 6.2 0 0 1-2.813-.243c-1.93-.631-2.883-2.299-2.461-4.279.076-.354.155-.708.246-1.123-.649-.093-1.211-.15-1.764-.257a12.8 12.8 0 0 1-3.424-1.207c-.246-.127-.458-.194-.725.013-1.089.841-2.385 1.13-3.709 1.318-5.823.825-10.764-3.817-10.327-9.687a10.9 10.9 0 0 1 1.644-5.033c.218-.349.291-.63.093-1.041-.685-1.422-.745-2.939-.436-4.454.555-2.731 2.151-4.728 4.526-6.125 1.357-.797 2.833-1.275 4.39-1.497.311-.045.573-.106.749-.418 1.18-2.104 3.086-3.178 5.358-3.691 2.194-.495 4.377-.364 6.531.245a16.8 16.8 0 0 1 4.364 1.918c.287.18.545.362.941.221.887-.315 1.791-.219 2.692-.01 4.597 1.069 7.756 4.566 8.372 9.258.368 2.804.096 5.526-.978 8.156-.258.63-.254.649.412.997 1.466.764 2.149 1.996 2.126 3.612a7.3 7.3 0 0 1-.277 1.79c-.176.648-.46 1.267-.697 1.898l1.528 1.517q.04.04.078.083c3.64 4.078 7.372 8.077 10.785 12.352 1.918 2.403 3.821 4.818 5.741 7.22.246.308.449.682.927.903.035-.309.054-.525.085-.74.242-1.65.38-3.325.752-4.946.929-4.054 2.774-7.613 5.998-10.356.111-.094.199-.216.335-.367-2.337-1.972-3.604-4.61-4.736-7.302a73 73 0 0 1-2.294-6.306c-1.662-5.266-2.767-10.659-3.175-16.165-.334-4.504-.511-9.02-.705-13.533-.191-4.441-.1-8.888.23-13.316.583-7.812 1.873-15.519 3.771-23.122.166-.662.342-1.324.569-1.967.272-.772.725-1.44 1.515-1.754 1.09-.433 2.179-.906 3.312-1.188 3.681-.913 7.361-1.831 11.145-2.272 3.063-.356 6.123-.553 9.204-.419 3.041.132 6.046.574 9.045 1.046 1.84.29 3.639.797 5.358 1.517.678.283 1.302.307 1.986.176.782-.15 1.566-.338 2.356-.382 2.387-.134 4.778-.278 7.168-.29 7.1-.036 14.201-.016 21.302-.006 2.885.004 5.771.035 8.657.061q11.39.103 22.781.214c1.291.013 2.581.05 3.872.081.876.022 1.646.305 2.202 1.008.61.771 1.284 1.513 1.767 2.36a191 191 0 0 1 3.625 6.71c1.295 2.499 2.355 5.098 3.085 7.822.955 3.564 1.656 7.174 1.921 10.858.245 3.418-.183 6.737-1.523 9.919-.425 1.01-1.042 1.841-1.936 2.474-1.499 1.061-3.096 1.919-4.898 2.347-3.994.95-7.923.699-11.75-.762-4.655-1.777-8.097-5-10.655-9.207a27 27 0 0 1-2.668-5.899c-.186-.59-.199-.566-.791-.395-.837.243-1.674.497-2.527.666-2.134.424-4.287.633-6.451.265-1.008-.172-2.002-.425-2.998-.66-.673-.159-.658-.168-.939.406-.349.715-.658 1.461-1.099 2.117-.446.666-.421 1.193.001 1.863 1.216 1.931 2.156 4.004 3.031 6.111.859 2.067 1.822 4.09 2.719 6.141.19.433.434.646.934.654.834.014 1.669.08 2.498.172 1.168.129 2.353.208 3.493.471 5.139 1.186 9.328 3.906 12.681 7.961 3.585 4.336 5.272 9.436 5.975 14.907.427 3.323.323 6.674.008 10.005-.49 5.184-1.313 10.307-2.953 15.278-.928 2.812-1.84 5.625-3.108 8.308-.194.41-.317.853-.494 1.272-.191.452-.148.863.063 1.308 1.109 2.334 2.288 4.626 3.804 6.731a15.5 15.5 0 0 0 3.421 3.474 69 69 0 0 1 2.789 2.164c3.31 2.696 5.164 6.19 5.728 10.407.275 2.057-.136 3.928-1.328 5.618-.415.587-.883 1.14-1.35 1.688-1.692 1.983-3.71 3.581-5.905 4.967-.282.179-.56.365-.84.548l.045.231c.37-.01.742-.053 1.109-.024 1.36.105 2.732.151 4.074.372 1.999.33 3.596 1.369 4.734 3.074.666.999 1.048 2.103 1.227 3.28.281 1.844.414 3.696.244 5.561-.017.188-.048.387-.006.564.027.112.172.263.277.275.261.03.529-.018.794-.02 1.138-.009 2.284-.097 3.414-.002 3.18.267 6.314.851 9.404 1.637 6.324 1.609 12.294 4.112 18.004 7.249.552.303 1.047.448 1.709.328 1.924-.346 3.531.171 4.566 1.97.266.464.303.461.929.215 2.27-.888 4.624-1.246 7.039-.965 4.284.498 7.855 2.239 10.11 6.112.202.347.43.457.814.46 1.024.008 2.053.006 3.07.107 1.833.182 3.568.711 5.137 1.71.844.538 1.555 1.212 2.094 2.06 1.082 1.703.957 3.54-.392 5.03-.402.445-.908.8-1.379 1.179-.224.18-.478.322-.805.537.412.238.732.427 1.056.609 1.14.638 2.143 1.437 2.927 2.491C3.824.181 3.385 3.028.893 4.714" clip-path="url(#F)" style="fill:#231f20;fill-opacity:1;fill-rule:nonzero;stroke:none" transform="matrix(1.33333 0 0 -1.33333 321.493 82.445)"/></svg>